<svg id="Layer_1" xmlns="http://www.w3.org/2000/svg" viewBox="0 0 1024 768" width="1024" height="768">
  <style>
    .st0{fill:#B6D7BB;} .st1{fill:#F1EEDB;} .st2{fill:#D6D7B4;} .st3{fill:#E8E8D4;} .st4{fill:#7A6C53;} .st5{fill:#AAB5B8;} .st6{fill:#D6CAB9;} .st7{fill:#8B9DA1;} .st8{fill:#ECF0F9;} .st9{fill:#5B6B6A;} .st10{fill:#959686;} .st11{fill:#6B7E72;} .st12{fill:#485755;} .st13{fill:#404F4D;} .st14{fill:#617270;} .st15{fill:#697B79;} .st16{fill:#8A9618;} .st17{fill:#A6A660;} .st18{fill:#C7C796;} .st19{fill:#7FA643;} .st20{fill:#517820;} .st21{fill:#868704;} .st22{fill:#F2E3A5;} .st23{fill:#A2CDA9;} .st24{fill:#FEC465;} .st25{fill:#669060;} .st26{fill:#709D2F;} .st27{fill:#F5E6C1;} .st28{fill:#657008;} .st29{fill:none;stroke:#D6CAB9;stroke-width:34.9104;stroke-miterlimit:10;} .st30{fill:#29ABE2;} .st31{fill:#9CD8F2;} .st32{font-family:&apos;Gotham-Bold&apos;;} .st33{font-size:12px;} .st34{font-size:12.1773px;}
  </style>
  <path class="st0" d="M.9 194l21.2 47.8 98.7 5.7v255.3L.9 659.8zM165.4 255.9l-3.1 214.4 136.4-138.7 70.7-.3-35-84.8z"/>
  <path class="st1" d="M565.3 634.4c-15 41.6-24.5 75.5-26.7 75.3-4.8-.4-537.8-.6-537.8-.6l116.9-110M166.3 548.2l43.5-93.8 125.5 55.5L598 358.2s-37.8 129.8-53.9 214"/>
  <path class="st2" d="M579.1 720.6L616 615s90 .8 101.1-27.2v-77.5l-8.5-183.2-7.4-66.7s72.9 158.6 315.2 158.4v301.9H579.1z"/>
  <path class="st3" d="M585.4 720.6L622.2 615s90 .8 101.1-27.2v-77.5l-8.5-183.2-7.4-66.7s72.9 158.6 315.2 158.4v301.9H585.4z"/>
  <g id="XMLID_61_">
    <path class="st4" d="M913.4 653.5l2.7.2.1-.6zM916.1 653.7l-1.7 49.5 19.5-48.7z"/>
    <path class="st4" d="M916.2 653.1l-.1.6 17.8.8 1.7-4.1zM935.3 654.5l-16.2 59.6 22.8-59.3z"/>
    <path class="st4" d="M935.6 650.4l-1.7 4.1h1.4l1.2-4.3z"/>
    <path class="st4" d="M936.5 650.2l-1.2 4.3 6.6.3 2.1-5.6z"/>
    <path class="st5" d="M935.6 650.4l.9-.2 1.9-6.8z"/>
    <path class="st6" d="M936.5 650.2l7.5-1 7-18.2-8 1-4.6 11.4z"/>
    <path class="st6" d="M938.4 643.4L943 632l-1.6.2z"/>
    <path class="st6" d="M941.4 632.2l1.6-.2 4.8-12 3.7-.5-4.5-7.7z"/>
    <path class="st6" d="M947.8 620l-4.8 12 8-1 2.9-7.4-2.4-4.1z"/>
    <path class="st5" d="M944 649.2l9.9-1.4 16.1-19.2-19 2.4z"/>
    <path class="st4" d="M1090.5 719.6L1056 660l-114.1-5.2-22.8 59.3 16.2-59.6h-1.4l-19.5 48.7 1.7-49.5-2.7-.2 2.8-.4.5-15.9-45 82.4z"/>
    <path class="st5" d="M970 628.6l48-6-28.8-16.8z"/>
    <path class="st5" d="M1047.7 640l-29.7-17.4-48 6-16.1 19.2-9.9 1.4-2.1 5.6L1056 660l-4.6-7.9 5.3-6.9z"/>
    <path class="st7" d="M1012.5 575.8l-12.4-32.2-5.9 14.9z"/>
    <path class="st8" d="M1012.5 575.8l-18.3-17.4 6-14.9 12.3 32.3zm-13.9 10.7l20.3-9.8 20.5 24.6-23.2-43.4-32.1-55.8-23.2 68.8-31.2 62.7 11.8-1.5 5.6-20.4 4.5 7.7 5-.7 19.6-63.7 22.4 31.5z"/>
    <path class="st5" d="M1033.5 620.7l-15.5 1.9 29.7 17.4 1.1-3.4z"/>
    <path class="st6" d="M1018 589.5l-.9-5.8-13.8 5.8 30.2 31.2 4.5-.6z"/>
    <path class="st5" d="M1003.3 589.5l13.8-5.8.9 5.8 20 30.6 10.8-1.3v-.1l-9.3-17.4-20.5-24.6-20.4 9.8-22.5-31.4-19.6 63.7-5 .7 2.4 4.1-2.9 7.4 19-2.4 19.2-22.8 28.8 16.8 15.5-1.9z"/>
  </g>
  <path class="st9" d="M1026.7 390.7s-260.4-25.9-315.5-184.9l-115.8-3.7-559-1.1S21.3 100.6 4.1 77.8V36.5h1022.6v354.2z"/>
  <path class="st5" d="M1024.2 385.2s-260.4-25.9-315.5-184.9l-115.8-3.7-559-1.1S18.8 95.1 1.6 72.3V31h1022.6v354.2z"/>
  <path class="st2" d="M661.8 266.1v244.1s2 51.5-47.7 51.5h-42.7l90.4-295.6z"/>
  <path class="st3" d="M665.6 268v244.1s2 51.5-47.7 51.5h-42.7L665.6 268z"/>
  <g id="XMLID_1_">
    <path class="st10" d="M242.3 123.8l11.1 22.7-17.3-23.4z"/>
    <path class="st10" d="M237.2 113.1l5.1 10.7-6.2-.7-2.9-3.9z"/>
    <path class="st11" d="M184 117.4l52.1 5.7 17.3 23.4-11.1-22.7 4.9.5 8.9 16.6 9.3-2 26.2 23.2h-152l28.7-42.3 5.1 6.1 4.6-9.1 4.2.5-4.2 8.7 6-8.6zm-31.5 33.9l24-17.5-6.9-7.9-17.1 25.4z"/>
    <path class="st11" d="M236.7 104.6l10.6 19.7-5-.5-5.1-10.7-4 6.1 2.9 3.9-52.1-5.7L204.4 89l-8-3-.5 3-13.7 28.2-4.3-.5 3.5-6.9 13.9-27.4 11.8 5.1 13.1-16.1 11.4 45.3z"/>
    <path class="st7" d="M206.3 65.5l3.4 7.6-10.6 8.9z"/>
    <path class="st10" d="M204.4 89L184 117.4l-1.8-.2L195.9 89l.5-3z"/>
    <path class="st10" d="M184 117.4l-6.1 8.5 4.3-8.7z"/>
    <path class="st8" d="M177.9 116.7l19-43.9 18.7-28.6 13.5 35.3 18.2 44.9-10.6-19.7-5.1 12.1-11.4-45.4-13.1 16.1-11.8-5-13.9 27.4-3.5 6.8zm31.8-43.6l-3.5-7.6-7.1 16.5 10.6-8.9z"/>
    <path class="st10" d="M176.4 133.8l-23.9 17.5 17-25.4z"/>
  </g>
  <g id="XMLID_60_">
    <path class="st4" d="M980 672.5l-2.4.1v-.4zM979.2 711.2l-17.3-38 15.7-.6z"/>
    <path class="st4" d="M977.6 672.2v.4l-15.7.6-1.5-3.2zM960.6 673.3l14.4 46.4-20.1-46.2z"/>
    <path class="st4" d="M960.4 670l1.5 3.2-1.3.1-1-3.4z"/>
    <path class="st4" d="M960.6 673.3l-5.7.2-2-4.4 6.7.8z"/>
    <path class="st5" d="M958 664.6l2.4 5.4-.8-.1z"/>
    <path class="st6" d="M958 664.6l1.6 5.3-6.7-.8-6.2-14.2 7.2.8z"/>
    <path class="st6" d="M958 664.6l-4.1-8.9 1.3.1zM950.3 639.9l4.9 15.9-1.3-.1-4.3-9.4-3.3-.4z"/>
    <path class="st6" d="M949.6 646.3l4.3 9.4-7.2-.8-2.5-5.8 2.1-3.2z"/>
    <path class="st8" d="M938 608l27.6 48.9-10.4-1.2-4.9-15.9-4 6-4.4-.5-17.4-49.7-19.9 24.5-18-7.7-18.1 19.2 20.6-33.8 28.4-43.5L938 608zm-29.5-9.7l-5.3-11.6-10.9 25.2 16.2-13.6z"/>
    <path class="st5" d="M929.9 653l16.8 1.9 6.2 14.2-8.7-1.1z"/>
    <path class="st5" d="M929.9 653l-17-17.7-25.4 13.1-13.7-1.5 26.6-24.4-12.1-4.5-.8 4.5-17.8 23.9-9.5-1 8.3-13.7 18.1-19.2 18 7.7 19.9-24.5 17.4 49.7 4.4.5-2.1 3.2 2.5 5.8z"/>
    <path class="st5" d="M912.9 635.3l17 17.7-42.4-4.6z"/>
    <path class="st5" d="M887.5 648.4l42.4 4.6 14.3 15 8.7 1.1 2 4.4-101.1 4 4.1-6.2-4.7-5.3 7.9-4.1z"/>
    <path class="st7" d="M903.3 586.7l5.2 11.6-16.2 13.6z"/>
    <path class="st6" d="M900.4 622.5l-26.6 24.4-4.1-.5 17.8-23.9.8-4.5z"/>
    <path class="st5" d="M887.5 648.4l-26.4 13.5-.9-2.6 13.6-12.4z"/>
    <path class="st4" d="M853.8 677.5l101.1-4 20.1 46.2-14.4-46.4 1.3-.1 17.3 38-1.6-38.6 2.4-.1-2.4-.3-.5-12.5 39.9 64.4H823.3z"/>
    <path class="st6" d="M873.8 646.9l-13.6 12.4 9.5-12.9z"/>
    <path class="st5" d="M869.7 646.4l-9.5 12.9.9 2.6-7.9 4.1-5.9-6.7-4.6 12.1-13.9 7.1 11.3-.4-17.6 46h-28.9l51.9-74.1 7.7 9.2 7-13.8zM868.5 631.7l-8.3 13.7 5.3-10.6z"/>
    <path class="st4" d="M857.9 671.3l-4.1 6.2-13.7.6 2.6-6.7 10.5-5.4zM853.8 677.5l-30.5 46.6h-.8l17.6-46z"/>
    <path class="st5" d="M853.2 666l-10.5 5.4 4.6-12.1zM842.7 671.4l-2.6 6.7-11.3.4z"/>
    <path class="st4" d="M823.3 724.1l-1.9 2.9 1.1-2.9z"/>
  </g>
  <path class="st12" d="M304 82.2c4.1 2.9 12.8-9.8 12.8-9.8s2.9 9.7 8.7 10.3"/>
  <path class="st12" d="M302.5 88.8c4.7 3.4 14.6-11.3 14.6-11.3s3.3 11.1 9.9 11.8"/>
  <path class="st12" d="M298.6 99.1c6.1 4.4 18.9-14.6 18.9-14.6s4.3 14.4 12.8 15.2"/>
  <path class="st13" d="M304.3 101.9c4.1 2.9 12.8-9.8 12.8-9.8s2.9 9.7 8.7 10.3"/>
  <path class="st13" d="M302.8 108.5c4.7 3.4 14.6-11.3 14.6-11.3s3.3 11.1 9.9 11.8"/>
  <path class="st13" d="M298.9 118.9c6.1 4.4 18.9-14.6 18.9-14.6s4.3 14.4 12.8 15.2"/>
  <path class="st12" d="M280.3 77.2c4.1 2.9 12.8-9.8 12.8-9.8s2.9 9.7 8.7 10.3"/>
  <path class="st12" d="M278.8 83.8c4.7 3.4 14.6-11.3 14.6-11.3s3.3 11.1 9.9 11.8"/>
  <path class="st12" d="M274.9 94.2c6.1 4.4 18.9-14.6 18.9-14.6s4.3 14.4 12.8 15.2"/>
  <path class="st13" d="M276.7 116.7c4.1 2.9 12.8-9.8 12.8-9.8s2.9 9.7 8.7 10.3"/>
  <path class="st13" d="M275.2 123.2c4.7 3.4 14.6-11.3 14.6-11.3s3.3 11.1 9.9 11.8"/>
  <path class="st13" d="M271.3 133.6c6.1 4.4 18.9-14.6 18.9-14.6s4.3 14.4 12.8 15.2"/>
  <path class="st12" d="M328.4 94.4c4.1 2.9 12.8-9.8 12.8-9.8s2.9 9.7 8.7 10.3"/>
  <path class="st12" d="M326.9 100.9c4.7 3.4 14.6-11.3 14.6-11.3s3.3 11.1 9.9 11.8"/>
  <path class="st12" d="M323 111.3c6.1 4.4 18.9-14.6 18.9-14.6s4.3 14.4 12.8 15.2"/>
  <path class="st13" d="M359.1 90.9c4.1 2.9 12.8-9.8 12.8-9.8s2.9 9.7 8.7 10.3"/>
  <path class="st13" d="M357.6 97.5c4.7 3.4 14.6-11.3 14.6-11.3s3.3 11.1 9.9 11.8"/>
  <path class="st13" d="M353.7 107.9c6.1 4.4 18.9-14.6 18.9-14.6s4.3 14.4 12.8 15.2"/>
  <path class="st12" d="M336.9 96.7c4.1 2.9 12.8-9.8 12.8-9.8s2.9 9.7 8.7 10.3"/>
  <path class="st12" d="M335.4 103.3C340.1 106.7 350 92 350 92s3.3 11.1 9.9 11.8"/>
  <path class="st12" d="M331.4 113.7c6.1 4.4 18.9-14.6 18.9-14.6s4.3 14.4 12.8 15.2"/>
  <path class="st13" d="M389.8 105.2c4.1 2.9 12.8-9.8 12.8-9.8s2.9 9.7 8.7 10.3"/>
  <path class="st13" d="M388.3 111.7c4.7 3.4 14.6-11.3 14.6-11.3s3.3 11.1 9.9 11.8"/>
  <path class="st13" d="M384.4 122.1c6.1 4.4 18.9-14.6 18.9-14.6s4.3 14.4 12.8 15.2"/>
  <path class="st12" d="M350.4 99.1c4.1 2.9 12.8-9.8 12.8-9.8s2.9 9.7 8.7 10.3"/>
  <path class="st12" d="M348.9 105.6c4.7 3.4 14.6-11.3 14.6-11.3s3.3 11.1 9.9 11.8"/>
  <path class="st12" d="M344.9 116c6.1 4.4 18.9-14.6 18.9-14.6s4.3 14.4 12.8 15.2"/>
  <path class="st13" d="M390 86.9c4.1 2.9 12.8-9.8 12.8-9.8s2.9 9.7 8.7 10.3"/>
  <path class="st13" d="M388.5 93.5c4.7 3.4 14.6-11.3 14.6-11.3s3.3 11.1 9.9 11.8"/>
  <path class="st13" d="M384.6 103.8c6.1 4.4 18.9-14.6 18.9-14.6s4.3 14.4 12.8 15.2"/>
  <path class="st12" d="M371.1 95.8c4.1 2.9 12.8-9.8 12.8-9.8s2.9 9.7 8.7 10.3"/>
  <path class="st12" d="M369.6 102.4c4.7 3.4 14.6-11.3 14.6-11.3s3.3 11.1 9.9 11.8"/>
  <path class="st12" d="M365.6 112.8c6.1 4.4 18.9-14.6 18.9-14.6s4.3 14.4 12.8 15.2"/>
  <path class="st13" d="M410.5 80.7c4.1 2.9 12.8-9.8 12.8-9.8s2.9 9.7 8.7 10.3"/>
  <path class="st13" d="M409 87.2c4.7 3.4 14.6-11.3 14.6-11.3s3.3 11.1 9.9 11.8"/>
  <path class="st13" d="M405.1 97.6C411.2 102 424 83 424 83s4.3 14.4 12.8 15.2"/>
  <path class="st14" d="M390 157.3c5.1 3.6 15.8-12.2 15.8-12.2s3.6 12 10.7 12.7"/>
  <path class="st14" d="M388.1 165.4c5.8 4.2 18.1-13.9 18.1-13.9s4.1 13.8 12.3 14.6"/>
  <path class="st14" d="M383.2 178.2c7.6 5.4 23.4-18 23.4-18s5.3 17.8 15.9 18.8"/>
  <path class="st15" d="M362.4 174.2c5.1 3.6 15.8-12.2 15.8-12.2s3.6 12 10.7 12.7"/>
  <path class="st15" d="M360.5 182.4c5.8 4.2 18.1-13.9 18.1-13.9s4.1 13.8 12.3 14.6"/>
  <path class="st15" d="M355.7 195.2c7.6 5.4 23.4-18 23.4-18S384.4 195 395 196M375.2 164.8c5.1 3.6 15.8-12.2 15.8-12.2s3.6 12 10.7 12.7"/>
  <path class="st15" d="M373.3 172.9c5.8 4.2 18.1-13.9 18.1-13.9s4.1 13.8 12.3 14.6"/>
  <path class="st15" d="M368.5 185.8c7.6 5.4 23.4-18 23.4-18s5.3 17.8 15.9 18.8M322.4 164.8c5.1 3.6 15.8-12.2 15.8-12.2s3.6 12 10.7 12.7"/>
  <path class="st15" d="M320.6 172.9c5.8 4.2 18.1-13.9 18.1-13.9s4.1 13.8 12.3 14.6"/>
  <path class="st15" d="M315.7 185.8c7.6 5.4 23.4-18 23.4-18s5.3 17.8 15.9 18.8"/>
  <path class="st9" d="M148.5 154c5.1 3.6 15.8-12.2 15.8-12.2s3.6 12 10.7 12.7"/>
  <path class="st9" d="M146.6 162.1c5.8 4.2 18.1-13.9 18.1-13.9s4.1 13.8 12.3 14.6"/>
  <path class="st9" d="M141.7 174.9c7.6 5.4 23.4-18 23.4-18s5.3 17.8 15.9 18.8"/>
  <path class="st13" d="M196.8 146.7c5.1 3.6 15.8-12.2 15.8-12.2s3.6 12 10.7 12.7"/>
  <path class="st13" d="M194.9 154.8c5.8 4.2 18.1-13.9 18.1-13.9s4.1 13.8 12.3 14.6"/>
  <path class="st13" d="M190.1 167.6c7.6 5.4 23.4-18 23.4-18s5.3 17.8 15.9 18.8"/>
  <g id="XMLID_13_">
    <path class="st10" d="M861 122.7l11.1 22.7-17.3-23.4zM851.8 118.1l4-6 5.2 10.6-6.2-.7z"/>
    <path class="st11" d="M802.7 116.3l52.1 5.7 17.3 23.4-11.1-22.7 4.9.5 8.9 16.6 9.3-2 26.2 23.2H758.2l28.7-42.3 5.1 6.1 4.6-9.1 4.2.5-4.2 8.7 6.1-8.6zm-31.5 33.9l24-17.5-6.9-7.9-17.1 25.4z"/>
    <path class="st11" d="M851.8 118.1l3 3.9-52.1-5.7 20.4-28.4-8-3-.5 3-13.8 28.2-4.2-.5 3.5-6.9L814 81.4l11.8 5 13.1-16.1 11.4 45.3 5.1-12.1 10.5 19.8-4.9-.6-5.2-10.6z"/>
    <path class="st7" d="M824.9 64.4l3.5 7.6-10.6 8.9z"/>
    <path class="st10" d="M823.1 87.9l-20.4 28.4-1.9-.2 13.8-28.2.5-3z"/>
    <path class="st10" d="M802.7 116.3l-6.1 8.5 4.2-8.7z"/>
    <path class="st8" d="M850.3 115.6l-11.4-45.4-13.1 16.1-11.8-5-13.9 27.4-3.5 6.9 19-43.9 18.7-28.6 13.5 35.3 18.2 44.9-10.6-19.7-5.1 12zM828.4 72l-3.5-7.6-7.2 16.5 10.7-8.9z"/>
    <path class="st10" d="M795.1 132.7l-23.9 17.5 17-25.4z"/>
  </g>
  <path class="st15" d="M993.9 163.7c5.1 3.6 15.8-12.2 15.8-12.2s3.6 12 10.7 12.7"/>
  <path class="st15" d="M992 171.9c5.8 4.2 18.1-13.9 18.1-13.9s4.1 13.8 12.3 14.6"/>
  <path class="st15" d="M987.1 184.7c7.6 5.4 23.4-18 23.4-18s5.3 17.8 15.9 18.8M941.1 163.7c5.1 3.6 15.8-12.2 15.8-12.2s3.6 12 10.7 12.7"/>
  <path class="st15" d="M939.3 171.9c5.8 4.2 18.1-13.9 18.1-13.9s4.1 13.8 12.3 14.6"/>
  <path class="st15" d="M934.4 184.7c7.6 5.4 23.4-18 23.4-18s5.3 17.8 15.9 18.8"/>
  <path class="st9" d="M767.1 152.9c5.1 3.6 15.8-12.2 15.8-12.2s3.6 12 10.7 12.7"/>
  <path class="st9" d="M765.3 161c5.8 4.2 18.1-13.9 18.1-13.9s4.1 13.8 12.3 14.6"/>
  <path class="st9" d="M760.4 173.8c7.6 5.4 23.4-18 23.4-18s5.3 17.8 15.9 18.8"/>
  <path class="st13" d="M815.5 145.6c5.1 3.6 15.8-12.2 15.8-12.2s3.6 12 10.7 12.7"/>
  <path class="st13" d="M813.6 153.7c5.8 4.2 18.1-13.9 18.1-13.9s4.1 13.8 12.3 14.6"/>
  <path class="st13" d="M808.8 166.6c7.6 5.4 23.4-18 23.4-18s5.3 17.8 15.9 18.8"/>
  <path class="st6" d="M302.3 211.4s-3.1-10.1-7.4-10.1 9.3-7.5 7.4 10.1z"/>
  <path class="st6" d="M312.2 193.8s-9.5 1.1-9.9 17.6c0 0 7-19 9.9-17.6zM297.8 193.8s4.6 3.9 3.9 6c-.7 2.1 2.6-6.5-3.9-6zM324.4 205s-3.1-10.1-7.4-10.1 9.3-7.5 7.4 10.1z"/>
  <path class="st6" d="M334.3 187.4s-9.5 1.1-9.9 17.6c0 0 7-19 9.9-17.6zM319.9 187.4s4.6 3.9 3.9 6c-.6 2.1 2.6-6.5-3.9-6zM346.6 214.4s-3.1-10.1-7.4-10.1c-4.2.1 9.3-7.5 7.4 10.1z"/>
  <path class="st6" d="M356.5 196.8s-9.5 1.1-9.9 17.6c0 0 7-19 9.9-17.6zM342.1 196.8s4.6 3.9 3.9 6c-.6 2.1 2.6-6.5-3.9-6zM284.2 209.7s-3.1-10.1-7.4-10.1 9.3-7.5 7.4 10.1z"/>
  <path class="st6" d="M294.1 192.1s-9.5 1.1-9.9 17.6c0 0 7-19 9.9-17.6zM279.7 192.1s4.6 3.9 3.9 6 2.6-6.5-3.9-6zM306.3 203.3s-3.1-10.1-7.4-10.1c-4.1.1 9.4-7.5 7.4 10.1z"/>
  <path class="st6" d="M316.2 185.7s-9.5 1.1-9.9 17.6c0 0 7-19 9.9-17.6zM301.9 185.7s4.6 3.9 3.9 6c-.7 2.1 2.6-6.5-3.9-6zM328.5 212.8s-3.1-10.1-7.4-10.1c-4.1 0 9.4-7.5 7.4 10.1z"/>
  <path class="st6" d="M338.4 195.2s-9.5 1.1-9.9 17.6c0 0 7-19.1 9.9-17.6zM324.1 195.1s4.6 3.9 3.9 6c-.7 2.1 2.6-6.5-3.9-6zM505.2 175.3S502 165 497.6 165c-4.3 0 9.6-7.8 7.6 10.3z"/>
  <path class="st6" d="M515.4 157.2s-9.7 1.1-10.2 18.1c0 0 7.2-19.6 10.2-18.1zM500.6 157.1s4.7 4 4 6.2c-.7 2.2 2.7-6.6-4-6.2zM532.2 191.9s-3.2-10.3-7.6-10.3c-4.3 0 9.5-7.8 7.6 10.3z"/>
  <path class="st6" d="M542.3 173.8s-9.7 1.1-10.2 18.1c.1 0 7.3-19.6 10.2-18.1zM527.6 173.7s4.7 4 4 6.2c-.7 2.2 2.6-6.6-4-6.2zM555 201.6s-3.2-10.3-7.6-10.3 9.6-7.8 7.6 10.3z"/>
  <path class="st6" d="M565.2 183.5s-9.7 1.1-10.2 18.1c0 0 7.2-19.6 10.2-18.1zM550.4 183.4s4.7 4 4 6.2 2.7-6.6-4-6.2zM486.6 173.6s-3.2-10.3-7.6-10.3c-4.3-.1 9.6-7.8 7.6 10.3z"/>
  <path class="st6" d="M496.8 155.5s-9.7 1.1-10.2 18.1c0 0 7.2-19.6 10.2-18.1zM482 155.4s4.7 4 4 6.2c-.7 2.2 2.7-6.7-4-6.2zM509.3 167s-3.2-10.3-7.6-10.3 9.6-7.8 7.6 10.3z"/>
  <path class="st6" d="M519.5 148.9s-9.7 1.1-10.2 18.1c0 0 7.3-19.6 10.2-18.1zM504.7 148.8s4.7 4 4 6.2c-.6 2.2 2.7-6.6-4-6.2zM536.4 199.8s-3.2-10.3-7.6-10.3c-4.3 0 9.6-7.8 7.6 10.3z"/>
  <path class="st6" d="M546.6 181.7s-9.7 1.1-10.2 18.1c0 0 7.2-19.5 10.2-18.1zM531.8 181.7s4.7 4 4 6.2c-.7 2.2 2.7-6.7-4-6.2zM560.8 185.3s-3.2-10.3-7.6-10.3 9.6-7.8 7.6 10.3z"/>
  <path class="st6" d="M571 167.2s-9.7 1.1-10.2 18.1c0 0 7.3-19.6 10.2-18.1zM556.3 167.1s4.7 4 4 6.2 2.6-6.7-4-6.2zM583.6 178.7s-3.2-10.3-7.6-10.3 9.6-7.8 7.6 10.3z"/>
  <path class="st6" d="M593.8 160.6s-9.7 1.1-10.2 18.1c0 0 7.2-19.6 10.2-18.1zM579 160.5s4.7 4 4 6.2c-.7 2.2 2.7-6.6-4-6.2zM606.4 188.4s-3.2-10.3-7.6-10.3c-4.3-.1 9.6-7.8 7.6 10.3z"/>
  <path class="st6" d="M616.6 170.3s-9.7 1.1-10.2 18.1c0 0 7.2-19.6 10.2-18.1zM601.8 170.2s4.7 4 4 6.2c-.7 2.2 2.7-6.7-4-6.2zM542.3 183.5s-3.2-10.3-7.6-10.3c-4.3 0 9.6-7.8 7.6 10.3z"/>
  <path class="st6" d="M552.5 165.4s-9.7 1.1-10.2 18.1c0 0 7.2-19.5 10.2-18.1zM537.7 165.4s4.7 4 4 6.2c-.7 2.1 2.6-6.7-4-6.2zM565 177s-3.2-10.3-7.6-10.3 9.6-7.8 7.6 10.3z"/>
  <path class="st6" d="M575.2 158.9S565.5 160 565 177c0 0 7.2-19.6 10.2-18.1zM560.4 158.8s4.7 4 4 6.2 2.7-6.7-4-6.2zM587.8 186.6s-3.2-10.3-7.6-10.3 9.6-7.8 7.6 10.3z"/>
  <path class="st6" d="M598 168.5s-9.7 1.1-10.2 18.1c0 0 7.2-19.5 10.2-18.1zM583.2 168.5s4.7 4 4 6.2c-.6 2.1 2.7-6.7-4-6.2zM622 171.1s-3.2-10.3-7.6-10.3 9.6-7.8 7.6 10.3z"/>
  <path class="st6" d="M632.2 153s-9.7 1.1-10.2 18.1c0 0 7.2-19.5 10.2-18.1zM617.4 153s4.7 4 4 6.2c-.7 2.2 2.7-6.7-4-6.2zM593.8 156.3s-3.2-10.3-7.6-10.3 9.5-7.8 7.6 10.3z"/>
  <path class="st6" d="M603.9 138.2s-9.7 1.1-10.2 18.1c.1 0 7.3-19.5 10.2-18.1zM589.2 138.2s4.7 4 4 6.2c-.7 2.1 2.6-6.7-4-6.2z"/>
  <g>
    <path class="st6" d="M637.6 210.4s-3.2-10.3-7.6-10.3 9.6-7.8 7.6 10.3z"/>
    <path class="st6" d="M647.8 192.3s-9.7 1.1-10.2 18.1c0 0 7.2-19.6 10.2-18.1zM633 192.2s4.7 4 4 6.2c-.7 2.2 2.7-6.6-4-6.2z"/>
  </g>
  <g>
    <path class="st6" d="M603.1 169.6s-3.2-10.3-7.6-10.3c-4.3 0 9.5-7.8 7.6 10.3z"/>
    <path class="st6" d="M613.2 151.5s-9.7 1.1-10.2 18.1c.1 0 7.3-19.5 10.2-18.1zM598.5 151.4s4.7 4 4 6.2c-.7 2.2 2.6-6.6-4-6.2z"/>
  </g>
  <g>
    <path class="st6" d="M656.2 169.2s-3.2-10.3-7.6-10.3 9.6-7.8 7.6 10.3z"/>
    <path class="st6" d="M666.4 151.1s-9.7 1.1-10.2 18.1c0 0 7.2-19.5 10.2-18.1zM651.6 151.1s4.7 4 4 6.2c-.7 2.1 2.7-6.7-4-6.2z"/>
  </g>
  <g>
    <path class="st6" d="M669.7 183.9s-3.2-10.3-7.6-10.3 9.6-7.8 7.6 10.3z"/>
    <path class="st6" d="M679.9 165.8s-9.7 1.1-10.2 18.1c0 0 7.2-19.6 10.2-18.1zM665.1 165.7s4.7 4 4 6.2c-.7 2.2 2.7-6.6-4-6.2z"/>
  </g>
  <g>
    <path class="st6" d="M308.4 160.1S305.3 150 301 150s9.3-7.5 7.4 10.1z"/>
    <path class="st6" d="M318.3 142.5s-9.5 1.1-9.9 17.6c0 0 7-19 9.9-17.6zM303.9 142.5s4.6 3.9 3.9 6 2.6-6.5-3.9-6z"/>
  </g>
  <g>
    <path class="st6" d="M330.5 153.7s-3.1-10.1-7.4-10.1c-4.1.1 9.4-7.5 7.4 10.1z"/>
    <path class="st6" d="M340.5 136.1s-9.5 1.1-9.9 17.6c-.1 0 7-19 9.9-17.6zM326.1 136.1s4.6 3.9 3.9 6c-.7 2.1 2.6-6.5-3.9-6z"/>
  </g>
  <g>
    <path class="st6" d="M352.7 163.1s-3.1-10.1-7.4-10.1c-4.1.1 9.4-7.5 7.4 10.1z"/>
    <path class="st6" d="M362.7 145.5s-9.5 1.1-9.9 17.6c-.1 0 7-19 9.9-17.6zM348.3 145.5s4.6 3.9 3.9 6c-.7 2.1 2.6-6.5-3.9-6z"/>
  </g>
  <g>
    <path class="st6" d="M200.6 195.6s-3.1-10.1-7.4-10.1c-4.2 0 9.3-7.5 7.4 10.1z"/>
    <path class="st6" d="M210.5 178s-9.5 1.1-9.9 17.6c0 0 7-19.1 9.9-17.6zM196.1 177.9s4.6 3.9 3.9 6c-.7 2.2 2.6-6.4-3.9-6z"/>
  </g>
  <g>
    <path class="st6" d="M187.6 192.8s-3.1-10.1-7.4-10.1c-4.2 0 9.3-7.5 7.4 10.1z"/>
    <path class="st6" d="M197.5 175.2s-9.5 1.1-9.9 17.6c0 0 7-19.1 9.9-17.6zM183.1 175.1s4.6 3.9 3.9 6c-.7 2.1 2.6-6.4-3.9-6z"/>
  </g>
  <g>
    <path class="st6" d="M194.2 188.1s-3.1-10.1-7.4-10.1c-4.1 0 9.4-7.5 7.4 10.1z"/>
    <path class="st6" d="M204.1 170.5s-9.5 1.1-9.9 17.6c0 0 7.1-19 9.9-17.6zM189.8 170.4s4.6 3.9 3.9 6c-.7 2.2 2.6-6.4-3.9-6z"/>
  </g>
  <g>
    <path class="st6" d="M238.8 188.3s-3.1-10.1-7.4-10.1c-4.2 0 9.3-7.5 7.4 10.1z"/>
    <path class="st6" d="M248.7 170.7s-9.5 1.1-9.9 17.6c0 0 7-19 9.9-17.6zM234.3 170.6s4.6 3.9 3.9 6c-.6 2.2 2.6-6.4-3.9-6z"/>
  </g>
  <g>
    <path class="st6" d="M225.8 185.5s-3.1-10.1-7.4-10.1c-4.2 0 9.3-7.5 7.4 10.1z"/>
    <path class="st6" d="M235.7 167.9s-9.5 1.1-9.9 17.6c0 0 7-19 9.9-17.6zM221.3 167.8s4.6 3.9 3.9 6c-.6 2.2 2.6-6.4-3.9-6z"/>
  </g>
  <g>
    <path class="st6" d="M232.5 180.8s-3.1-10.1-7.4-10.1c-4.2.1 9.3-7.5 7.4 10.1z"/>
    <path class="st6" d="M242.4 163.2s-9.5 1.1-9.9 17.6c0 0 7-19 9.9-17.6zM228 163.1s4.6 3.9 3.9 6c-.7 2.2 2.6-6.4-3.9-6z"/>
  </g>
  <g id="XMLID_4_">
    <path class="st16" d="M799.2 520.3s2.5 2.1 8.3-.8c0 0-1.7 8-9.7 5.1l-1.7-.6c-1.3-1.6-2.6-1.9-3.6-1.7 0-.1-.7-4.7 6.7-2z"/>
    <path class="st16" d="M803.9 540.1c-2.4-.7-8.1-3.3-10.1-13.1 0 0-2.1-4.3-3.7-3.2.1-.1 1.1-1.3 2.5-1.5 1-.2 2.3.1 3.6 1.7.8 1 1.6 2.5 2.4 4.8-.1-.1 2.5 9.5 5.3 11.3z"/>
    <path class="st17" d="M789.1 527.9c-1.7 4.8.9 25.3.9 25.3-1 1.6-2.5 1.7-3.7 1.4.5-.6.9-1 .9-1-3-1.5-3.3-20.9-3.3-20.9-.1.4-.3.8-.4 1.2-.1-.9-.2-1.7-.3-2.4 0-.1.1-.2.1-.3 0 0-.1-.3-.2-.8-.1-.8-.2-1.3-.2-1.3 1.1 2.4 6.2-1.2 6.2-1.2zM787.3 507.2c-.7 2.7 1.3 19 1.3 19-3.6 3-5.8 1.7-5.8 1.7 1-.9-.7-20.7-.8-22.2.3 2.2 5.3 1.5 5.3 1.5z"/>
    <path class="st18" d="M783.8 532.7s.3 19.4 3.3 20.9c0 0-.3.4-.9 1-1.4-.4-2.5-1.4-2.5-1.4 1.2-3.2.3-13.3-.3-19.4.2-.3.3-.7.4-1.1z"/>
    <path class="st18" d="M783.4 533.9c.7 6.1 1.5 16.1.3 19.4 0 0 1.1 1 2.5 1.4-1.3 1.4-3.8 3.6-5.1 2.8 0 0-.1-.4-.1-1.1.2-.1.3-.2.3-.2-.1-.2-.2-.3-.3-.6-.1-1.7-.3-4.6-.6-7.5.2-4.4.9-9.3 1.3-11.8.7-.5 1.3-1.3 1.7-2.4zM780.9 523.4c.4 5 .9 9.5.9 9.5-1.6 2.3-3.3 2.7-4.5 2.5.1-1.9-.6-5.9-1.5-10.1 0-5.1-.3-10.9-.5-14 .7-.4 1.3-1 1.8-1.4h.7c0 2.4 1.6 8.4 3.1 13.5z"/>
    <path class="st18" d="M781.8 536.3c-.4 2.6-1.1 7.5-1.3 11.8-.4-4.4-1.2-9-2.6-10.5 0 0 2 .4 3.9-1.3z"/>
    <path class="st17" d="M780.7 509.1c-.7 1.4-.3 8.3.1 14.3-1.5-5-3.1-11.1-3.1-13.6 1.6-.1 3-.7 3-.7zM779.6 481.8c-1.7 4.8.9 25.3.9 25.3-.7 1.2-1.7 1.5-2.6 1.5-.5 0-1-.1-1.5-.3 1-.9 1.7-1.8 1.7-1.8-3-1.5-3.3-20.9-3.3-20.9-.2.8-.5 1.4-.8 1.9-.3-2.6-.5-4.5-.6-4.6 1.1 2.6 6.2-1.1 6.2-1.1z"/>
    <path class="st18" d="M783.2 531.5c-2.2 5.7-6 4.5-6 4.5 0-.2.1-.4.1-.6 1.3.2 2.9-.1 4.5-2.5 0 0-.5-4.4-.9-9.5.9 3.1 1.8 5.8 2.2 7 0 .3 0 .7.1 1.1z"/>
    <path class="st17" d="M777.9 537.6c1.4 1.6 2.1 6.2 2.6 10.5-.2 3.2-.1 6 .6 7.5 0 .3 0 .5.1.7-1.1.5-4.8 2.2-6.1.4-.3-.4 2.6-16 .5-20.5 0 0 4 2.9 6.6-1.7 0 .1-.1.7-.3 1.8-2 1.7-4 1.3-4 1.3zM777.9 461.1c-.7 2.7 1.3 19 1.3 19-3.6 3-5.8 1.7-5.8 1.7 1-.9-.7-20.7-.8-22.2.2 2.2 5.3 1.5 5.3 1.5zM775.7 525.2c.9 4.2 1.6 8.3 1.5 10.1-1.3-.2-2.1-1-2.1-1 .5-1.1.7-4.8.6-9.1z"/>
    <path class="st18" d="M776.3 508.4c-.3.3-.7.6-1 .9-.1 0-.1-.1-.2-.2v.3c-1.1.9-2.3 1.5-3.1 1-.3-.2-.5-16.6-3.3-19.8 0 0 3.3.6 5.2-3 .7 6 1.6 16.3.4 19.6 0 0 .9.7 2 1.2zM775.3 511.2c.2 3.1.4 8.9.5 14-1.4-6.4-3.2-13.3-3.2-13.3.7.3 1.7-.1 2.7-.7z"/>
    <path class="st18" d="M774.7 485.7s.3 19.4 3.3 20.9c0 0-.7.9-1.7 1.8-1.2-.4-2.1-1.2-2.1-1.2 1.2-3.3.3-13.5-.4-19.6.4-.6.7-1.2.9-1.9z"/>
    <path class="st16" d="M771.8 459.4s-.7 7.6-4.1 11.2c0 0-2.2 6.2-1.2 11.7-.6-3.2-3.1-17.2 3.2-23h2.1z"/>
    <path class="st16" d="M771.8 459.4h-2.1c-3.1-3-6.4 13.1-6.4 13.1-.3-11 3.5-15.6 3.5-15.6 3.5 0 4.9 2.4 5 2.5z"/>
  </g>
  <g id="XMLID_6_">
    <path class="st16" d="M668.7 449.5s2.3 1.4 7.4-.5c0 0-1.5 5.1-8.6 3.3l-1.5-.4c-1.2-1-2.3-1.2-3.2-1.1-.1 0-.7-3 5.9-1.3z"/>
    <path class="st16" d="M672.9 462.3c-2.2-.4-7.2-2.2-9-8.4 0 0-1.9-2.7-3.3-2.1.1-.1.9-.8 2.2-1 .9-.1 2.1.1 3.2 1.1.7.6 1.5 1.6 2.2 3.1-.1-.1 2.2 6.1 4.7 7.3z"/>
    <path class="st17" d="M659.7 454.4c-1.5 3.1.8 16.3.8 16.3-.9 1-2.2 1.1-3.3.9.5-.4.8-.6.8-.6-2.7-1-3-13.5-3-13.5-.1.3-.2.5-.4.8-.1-.6-.2-1.1-.2-1.6 0-.1.1-.1.1-.2 0 0-.1-.2-.2-.5-.1-.5-.1-.8-.2-.9 1.1 1.7 5.6-.7 5.6-.7zM658.2 441.1c-.6 1.7 1.1 12.3 1.1 12.3-3.2 2-5.1 1.1-5.1 1.1.9-.6-.6-13.4-.7-14.3.2 1.4 4.7.9 4.7.9z"/>
    <path class="st18" d="M655.1 457.5s.3 12.5 3 13.5c0 0-.3.3-.8.6-1.2-.3-2.3-.9-2.3-.9 1-2.1.3-8.6-.3-12.5.1-.2.2-.4.4-.7z"/>
    <path class="st18" d="M654.7 458.3c.6 3.9 1.4 10.4.3 12.5 0 0 1 .6 2.3.9-1.2.9-3.4 2.3-4.6 1.8 0 0-.1-.3-.1-.7.2-.1.3-.1.3-.1-.1-.1-.2-.2-.3-.4-.1-1.1-.2-2.9-.5-4.8.2-2.8.8-6 1.2-7.6.4-.4 1-.9 1.4-1.6zM652.4 451.5c.4 3.2.8 6.1.8 6.1-1.4 1.5-2.9 1.7-4.1 1.6.1-1.2-.6-3.8-1.4-6.5 0-3.3-.3-7-.4-9 .6-.3 1.2-.6 1.6-.9h.6c.2 1.6 1.6 5.5 2.9 8.7z"/>
    <path class="st18" d="M653.2 459.9c-.4 1.6-1 4.8-1.2 7.6-.4-2.8-1.1-5.8-2.3-6.8 0 0 1.9.2 3.5-.8z"/>
    <path class="st17" d="M652.3 442.3c-.6.9-.3 5.3.1 9.2-1.3-3.2-2.7-7.1-2.8-8.7 1.4-.1 2.7-.5 2.7-.5zM651.3 424.8c-1.5 3.1.8 16.3.8 16.3-.7.8-1.5 1-2.4 1-.5 0-.9-.1-1.4-.2.9-.6 1.5-1.1 1.5-1.1-2.7-1-3-13.5-3-13.5-.2.5-.4.9-.7 1.2-.3-1.7-.5-2.9-.5-3 1.1 1.6 5.7-.7 5.7-.7z"/>
    <path class="st18" d="M649.2 459.2c1.1.1 2.6-.1 4.1-1.6 0 0-.4-2.8-.8-6.1.8 2 1.6 3.7 1.9 4.5 0 .2.1.4.1.7-2 3.7-5.3 2.9-5.3 2.9-.1-.1 0-.2 0-.4z"/>
    <path class="st17" d="M647.5 459.8s3.6 1.9 5.9-1.1c0 0-.1.5-.3 1.1-1.6 1.1-3.5.8-3.5.8 1.2 1 1.9 4 2.3 6.8-.1 2-.1 3.9.5 4.8v.5c-1 .3-4.3 1.4-5.5.3 0-.2 2.6-10.3.6-13.2zM649.7 411.4c-.6 1.7 1.1 12.3 1.1 12.3-3.2 2-5.1 1.1-5.1 1.1.9-.6-.6-13.4-.7-14.3.2 1.4 4.7.9 4.7.9zM647.8 452.7c.8 2.7 1.4 5.3 1.4 6.5-1.1-.1-1.9-.7-1.9-.7.4-.6.5-3.1.5-5.8z"/>
    <path class="st18" d="M648.4 441.9l-.9.6c-.1 0-.1-.1-.2-.1v.2c-1 .6-2.1 1-2.8.7-.3-.1-.4-10.7-3-12.8 0 0 2.9.4 4.7-1.9.6 3.9 1.4 10.5.3 12.6 0-.1.8.4 1.9.7zM647.4 443.7c.1 2 .4 5.7.4 9-1.2-4.1-2.8-8.5-2.8-8.5.7.1 1.6-.1 2.4-.5z"/>
    <path class="st18" d="M646.9 427.2s.3 12.5 3 13.5c0 0-.6.6-1.5 1.1-1-.3-1.8-.8-1.8-.8 1.1-2.1.3-8.7-.3-12.6.2-.3.4-.7.6-1.2z"/>
    <path class="st16" d="M644.3 410.3s-.6 4.9-3.7 7.2c0 0-2 4-1 7.6-.6-2-2.7-11.1 2.9-14.8h1.8z"/>
    <path class="st16" d="M644.3 410.3h-1.8c-2.8-2-5.8 8.5-5.8 8.5-.3-7.1 3.1-10.1 3.1-10.1 3.2 0 4.4 1.5 4.5 1.6z"/>
  </g>
  <g>
    <g id="XMLID_12_">
      <path class="st19" d="M772.7 564.9c.5-.4 1-.7 1.5-1.1 0 0-3.1 4.1-5.6 9.3l-.1-.1c2.2-4.5 4.2-7.9 4.2-8.1 0 .1 0 0 0 0zM768.6 573.2c-1.4 2.8-2.6 6-3 8.9l-1.5 4.7s-.6 1-1 2.2v-.1-.1-.1-.1-.1-.2c.7-4.6 3.1-10.5 5.4-15.2l.1.1z"/>
      <path class="st20" d="M772.7 565c-.1.1-2.1 3.6-4.3 8.1-2.3 4.7-4.7 10.6-5.4 15.2.5-2.9 2.5-14.8 9.7-23.3z"/>
      <path class="st19" d="M763 587.9s2.1-16.6 9.7-22.9c-7.2 8.6-9.2 20.5-9.6 23.4v.7c-.2.6-.5 1.2-.6 1.7 0-.2.1-.4.1-.7.1-1.1.3-1.9.4-2.2z"/>
      <path class="st21" d="M763.1 589c.5-1.1 1-2.1 1-2.2l-.8 2.3s-1 5.1-1.6 9.2c.2-2.4.5-5.5.8-7.6.1-.5.3-1.1.6-1.7z"/>
      <path class="st19" d="M761.3 575.9s.8 2.3.7 3.1c0 0 .8 9.9-.4 16.1l-.1 4.6c-.1 1.2-.2 2.3-.2 2.9 0 0-.6-4.1 0-8.1l.5-8.4s0-8-1.2-8.5c0 0-1.7-1.6-3.6-7.2 0 0-1.2-2.2-1.7-2.6.7.4 5.5 3.9 6 8.1z"/>
      <path class="st19" d="M761.5 599.7v1c-.1 1.2-.1 1.9-.1 1.9-.1-.6 0-1.7.1-2.9z"/>
    </g>
    <g id="XMLID_11_">
      <path class="st19" d="M747.8 561.4c-.5-.4-1-.7-1.5-1.1 0 0 3.1 4.1 5.6 9.3l.1-.1c-2.1-4.6-4.1-8-4.2-8.1zM752 569.6c1.4 2.8 2.6 6 3 8.9l1.5 4.7s.6 1 1 2.2v-.1-.1-.1-.1-.1-.2c-.7-4.6-3.1-10.5-5.4-15.2l-.1.1z"/>
      <path class="st20" d="M757.5 584.7c-.4-2.9-2.4-14.8-9.6-23.4.1.1 2.1 3.6 4.3 8.1 2.2 4.8 4.6 10.7 5.3 15.3z"/>
      <path class="st19" d="M747.8 561.4c7.2 8.6 9.2 20.5 9.6 23.4v.7c.2.6.5 1.2.6 1.7 0-.2-.1-.4-.1-.7-.2-1.1-.3-1.9-.4-2.2 0 0-2.1-16.6-9.7-22.9z"/>
      <path class="st21" d="M756.5 583.3l.8 2.3s1.1 5.1 1.6 9.2c-.2-2.4-.5-5.5-.8-7.7-.1-.5-.3-1.1-.6-1.7-.4-1.1-1-2.1-1-2.1z"/>
      <path class="st19" d="M759.2 572.3s-.8 2.3-.7 3.1c0 0-.8 9.9.4 16.1l.1 4.7c.1 1.2.2 2.3.2 2.9 0 0 .6-4.1 0-8.1l-.5-8.4s0-8 1.2-8.5c0 0 1.7-1.6 3.6-7.2 0 0 1.2-2.2 1.7-2.6-.6.3-5.4 3.8-6 8z"/>
      <path class="st19" d="M759 596.1v1c.1 1.2.1 1.9.1 1.9.1-.6.1-1.7-.1-2.9z"/>
    </g>
    <g id="XMLID_10_">
      <path class="st19" d="M755.3 556.9c-.5-.4-1-.7-1.5-1.1 0 0 3.1 4.1 5.6 9.3l.1-.1c-2.1-4.6-4.1-8-4.2-8.1z"/>
      <path class="st19" d="M759.4 565.1c1.4 2.8 2.6 6 3 8.9l1.5 4.7s.6 1 1 2.2v-.1-.1-.1-.1-.1-.2c-.7-4.6-3.1-10.5-5.4-15.2l-.1.1z"/>
      <path class="st20" d="M764.9 580.2c-.4-2.9-2.4-14.8-9.6-23.4.1.1 2.1 3.6 4.3 8.1 2.2 4.8 4.7 10.7 5.3 15.3z"/>
      <path class="st19" d="M765 579.8s-2.1-16.6-9.7-22.9c7.2 8.6 9.2 20.5 9.6 23.4v.7c.2.6.5 1.2.6 1.7 0-.2-.1-.4-.1-.7-.1-1.1-.2-1.9-.4-2.2z"/>
      <path class="st21" d="M766.3 590.3c-.2-2.4-.5-5.5-.8-7.7-.1-.5-.3-1.1-.6-1.7-.5-1.1-1-2.1-1-2.2l.8 2.3c0 .1 1.1 5.2 1.6 9.3z"/>
      <path class="st19" d="M766.7 567.8s-.8 2.3-.7 3.1c0 0-.8 9.9.4 16.1l.1 4.7c.1 1.2.2 2.3.2 2.9 0 0 .6-4.1 0-8.1l-.5-8.4s0-8 1.2-8.5c0 0 1.7-1.6 3.6-7.2 0 0 1.2-2.2 1.7-2.6-.6.3-5.4 3.8-6 8z"/>
      <path class="st19" d="M766.5 591.6v1c.1 1.2.1 1.9.1 1.9.1-.6.1-1.7-.1-2.9z"/>
    </g>
  </g>
  <g>
    <g id="XMLID_21_">
      <path class="st19" d="M822.1 525.5c.5-.4 1-.7 1.5-1.1 0 0-3.1 4.1-5.6 9.3l-.1-.1c2.1-4.5 4.1-8 4.2-8.1zM817.9 533.7c-1.4 2.8-2.6 6-3 8.9l-1.5 4.7s-.6 1-1 2.2v-.1-.1-.1-.1-.1-.2c.7-4.6 3.1-10.5 5.4-15.2l.1.1z"/>
      <path class="st20" d="M822.1 525.5c-.1.1-2.1 3.6-4.3 8.1-2.3 4.7-4.7 10.6-5.4 15.2.4-2.8 2.5-14.7 9.7-23.3z"/>
      <path class="st19" d="M812.4 549.2c0 .1 0 .1 0 0v.2c-.2.6-.5 1.2-.6 1.7 0-.2.1-.4.1-.7.2-1.1.3-1.9.4-2.2 0 0 2.1-16.6 9.7-22.9-7.2 8.6-9.2 20.5-9.6 23.4v.5z"/>
      <path class="st21" d="M813.4 547.4l-.8 2.3s-1 5.1-1.6 9.2c.2-2.4.5-5.5.8-7.6.1-.5.3-1.1.6-1.7.5-1.1 1-2.1 1-2.2z"/>
      <path class="st19" d="M810.7 536.4s.8 2.3.7 3.1c0 0 .8 9.9-.4 16.1l-.1 4.6c-.1 1.2-.2 2.3-.2 2.9 0 0-.6-4.1 0-8.1l.5-8.4s0-8-1.2-8.5c0 0-1.7-1.6-3.6-7.2 0 0-1.2-2.2-1.7-2.6.6.5 5.4 4 6 8.1z"/>
      <path class="st19" d="M810.9 560.2v1c-.1 1.2-.1 1.9-.1 1.9-.1-.6-.1-1.6.1-2.9z"/>
    </g>
    <g id="XMLID_20_">
      <path class="st19" d="M797.2 521.9c-.5-.4-1-.7-1.5-1.1 0 0 3.1 4.1 5.6 9.3l.1-.1c-2.2-4.5-4.2-8-4.2-8.1zM801.3 530.2c1.4 2.8 2.6 6 3 8.9l1.5 4.7s.6 1 1 2.2v-.1-.1-.1-.1-.1-.2c-.7-4.6-3.1-10.5-5.4-15.2l-.1.1z"/>
      <path class="st20" d="M806.8 545.3c-.4-2.9-2.4-14.8-9.6-23.4.1.1 2.1 3.6 4.3 8.1 2.2 4.8 4.6 10.7 5.3 15.3z"/>
      <path class="st19" d="M797.2 521.9c7.2 8.6 9.2 20.5 9.6 23.4v.7c.2.6.5 1.2.6 1.7 0-.2-.1-.4-.1-.7-.2-1.1-.3-1.9-.4-2.2 0 .1-2.1-16.6-9.7-22.9z"/>
      <path class="st21" d="M806.8 546c-.5-1.1-1-2.1-1-2.2l.8 2.3s1.1 5.1 1.6 9.2c-.2-2.4-.5-5.5-.8-7.7-.1-.4-.3-1-.6-1.6z"/>
      <path class="st19" d="M808.6 532.8s-.8 2.3-.7 3.1c0 0-.8 9.9.4 16.1l.1 4.7c.1 1.2.2 2.3.2 2.9 0 0 .6-4.1 0-8.1l-.6-8.5s0-8 1.2-8.5c0 0 1.7-1.6 3.6-7.2 0 0 1.2-2.2 1.7-2.6-.6.5-5.4 4-5.9 8.1z"/>
      <path class="st19" d="M808.4 556.7v1c.1 1.2.1 1.9.1 1.9.1-.7 0-1.7-.1-2.9z"/>
    </g>
    <g id="XMLID_19_">
      <path class="st19" d="M804.6 517.4c-.5-.4-1-.7-1.5-1.1 0 0 3.1 4.1 5.6 9.3l.1-.1c-2.1-4.5-4.1-8-4.2-8.1zM808.8 525.7c1.4 2.8 2.6 6 3 8.9l1.5 4.7s.6 1 1 2.2v-.1-.1-.1-.1-.1-.2c-.7-4.6-3.1-10.5-5.4-15.2l-.1.1z"/>
      <path class="st20" d="M814.3 540.8c-.4-2.9-2.4-14.8-9.6-23.4.1.1 2.1 3.6 4.3 8.1 2.2 4.8 4.6 10.7 5.3 15.3z"/>
      <path class="st19" d="M814.4 540.4s-2.1-16.6-9.7-22.9c7.2 8.6 9.2 20.5 9.6 23.4v.7c.2.6.5 1.2.6 1.7 0-.2-.1-.4-.1-.7-.1-1.1-.3-1.9-.4-2.2z"/>
      <path class="st21" d="M815.7 550.8c-.2-2.4-.5-5.5-.8-7.7-.1-.5-.3-1.1-.6-1.7-.5-1.1-1-2.1-1-2.2l.8 2.3c0 .1 1 5.3 1.6 9.3z"/>
      <path class="st19" d="M816 528.3s-.8 2.3-.7 3.1c0 0-.8 9.9.4 16.1l.1 4.7c.1 1.2.2 2.3.2 2.9 0 0 .6-4.1 0-8.1l-.5-8.4s0-8 1.2-8.5c0 0 1.7-1.6 3.6-7.2 0 0 1.2-2.2 1.7-2.6-.6.4-5.4 3.9-6 8z"/>
      <path class="st19" d="M815.8 552.2v1c.1 1.2.1 1.9.1 1.9.2-.7.1-1.7-.1-2.9z"/>
    </g>
  </g>
  <g>
    <g id="XMLID_27_">
      <path class="st19" d="M835.1 566.2c.5-.4 1-.7 1.5-1.1 0 0-3.1 4.1-5.6 9.3l-.1-.1c2.1-4.6 4.1-8 4.2-8.1zM830.9 574.4c-1.4 2.8-2.6 6-3 8.9l-1.5 4.7s-.6 1-1 2.2v-.1-.1-.1-.1-.1-.2c.7-4.6 3.1-10.5 5.4-15.2l.1.1z"/>
      <path class="st20" d="M835.1 566.2c-.1.1-2.1 3.6-4.3 8.1-2.3 4.7-4.7 10.6-5.4 15.2.4-2.9 2.5-14.8 9.7-23.3z"/>
      <path class="st19" d="M825.4 589.9v.2c-.2.6-.5 1.2-.6 1.7 0-.2.1-.4.1-.7.2-1.1.3-1.9.4-2.2 0 0 2.1-16.6 9.7-22.9-7.2 8.6-9.2 20.5-9.6 23.4v.5z"/>
      <path class="st21" d="M826.4 588.1l-.8 2.3s-1 5.1-1.6 9.2c.2-2.4.5-5.5.8-7.6.1-.5.3-1.1.6-1.7.4-1.2 1-2.2 1-2.2z"/>
      <path class="st19" d="M823.6 577.1s.8 2.3.7 3.1c0 0 .8 9.9-.4 16.1l-.1 4.6c-.1 1.2-.2 2.3-.2 2.9 0 0-.6-4.1 0-8.1l.5-8.4s0-8-1.2-8.5c0 0-1.7-1.6-3.6-7.2 0 0-1.2-2.2-1.7-2.6.7.4 5.5 3.9 6 8.1z"/>
      <path class="st19" d="M823.9 600.9v1c-.1 1.2-.1 1.9-.1 1.9-.2-.6-.1-1.7.1-2.9z"/>
    </g>
    <g id="XMLID_26_">
      <path class="st19" d="M810.1 562.6c-.5-.4-1-.7-1.5-1.1 0 0 3.1 4.1 5.6 9.3l.1-.1c-2.1-4.5-4.1-8-4.2-8.1zM814.3 570.8c1.4 2.8 2.6 6 3 8.9l1.5 4.7s.6 1 1 2.2v-.1-.1-.1-.1-.1-.2c-.7-4.6-3.1-10.5-5.4-15.2l-.1.1z"/>
      <path class="st20" d="M819.8 585.9c-.4-2.9-2.4-14.8-9.6-23.4.1.1 2.1 3.6 4.3 8.1 2.2 4.8 4.6 10.7 5.3 15.3z"/>
      <path class="st19" d="M810.1 562.6c7.2 8.6 9.2 20.5 9.6 23.4v.7c.2.6.5 1.2.6 1.7 0-.2-.1-.4-.1-.7-.2-1.1-.3-1.9-.4-2.2.1 0-2.1-16.6-9.7-22.9z"/>
      <path class="st21" d="M819.8 586.6c-.5-1.1-1-2.1-1-2.2l.8 2.3s1.1 5.1 1.6 9.2c-.2-2.4-.5-5.5-.8-7.7-.1-.4-.3-1-.6-1.6z"/>
      <path class="st19" d="M821.5 573.5s-.8 2.3-.7 3.1c0 0-.8 9.9.4 16.1l.1 4.7c.1 1.2.2 2.3.2 2.9 0 0 .6-4.1 0-8.1l-.5-8.4s0-8 1.2-8.5c0 0 1.7-1.6 3.6-7.2 0 0 1.2-2.2 1.7-2.6-.6.4-5.4 3.8-6 8z"/>
      <path class="st19" d="M821.3 597.3v1c.1 1.2.1 1.9.1 1.9.2-.6.1-1.6-.1-2.9z"/>
    </g>
    <g id="XMLID_25_">
      <path class="st19" d="M817.6 558.1c-.5-.4-1-.7-1.5-1.1 0 0 3.1 4.1 5.6 9.3l.1-.1c-2.1-4.5-4.1-8-4.2-8.1zM821.8 566.3c1.4 2.8 2.6 6 3 8.9l1.5 4.7s.6 1 1 2.2v-.1-.1-.1-.1-.1-.2c-.7-4.6-3.1-10.5-5.4-15.2l-.1.1z"/>
      <path class="st20" d="M827.3 581.4c-.4-2.9-2.4-14.8-9.6-23.4.1.1 2.1 3.6 4.3 8.1 2.2 4.8 4.6 10.7 5.3 15.3z"/>
      <path class="st19" d="M827.3 581s-2.1-16.6-9.7-22.9c7.2 8.6 9.2 20.5 9.6 23.4v.7c.2.6.5 1.2.6 1.7 0-.2-.1-.4-.1-.7-.1-1.1-.2-1.9-.4-2.2z"/>
      <path class="st21" d="M828.7 591.5c-.2-2.4-.5-5.5-.8-7.7-.1-.5-.3-1.1-.6-1.7-.5-1.1-1-2.1-1-2.2l.8 2.3c-.1.1 1 5.2 1.6 9.3z"/>
      <path class="st19" d="M829 569s-.8 2.3-.7 3.1c0 0-.8 9.9.4 16.1l.1 4.7c.1 1.2.2 2.3.2 2.9 0 0 .6-4.1 0-8.1l-.5-8.4s0-8 1.2-8.5c0 0 1.7-1.6 3.6-7.2 0 0 1.2-2.2 1.7-2.6-.6.4-5.4 3.8-6 8z"/>
      <path class="st19" d="M828.8 592.8v1c.1 1.2.1 1.9.1 1.9.1-.6.1-1.6-.1-2.9z"/>
    </g>
  </g>
  <g>
    <g id="XMLID_73_">
      <path class="st19" d="M651.2 671.2c.5-.4 1-.7 1.5-1.1 0 0-3.1 4.1-5.6 9.3l-.1-.1c2.1-4.6 4.1-8 4.2-8.1zM647 679.4c-1.4 2.8-2.6 6-3 8.9l-1.5 4.7s-.6 1-1 2.2v-.1-.1-.1-.1-.1-.2c.7-4.6 3.1-10.5 5.4-15.2l.1.1z"/>
      <path class="st20" d="M651.2 671.2c-.1.1-2.1 3.6-4.3 8.1-2.3 4.7-4.7 10.6-5.4 15.2.5-2.9 2.5-14.8 9.7-23.3z"/>
      <path class="st19" d="M641.5 694.9v.2c-.2.6-.5 1.2-.6 1.7 0-.2.1-.4.1-.7.2-1.1.3-1.9.4-2.2 0 0 2.1-16.6 9.7-22.9-7.2 8.6-9.2 20.5-9.6 23.4v.5c0-.1 0 0 0 0z"/>
      <path class="st21" d="M642.5 693.1l-.8 2.3s-1 5.1-1.6 9.2c.2-2.4.5-5.5.8-7.6.1-.5.3-1.1.6-1.7.5-1.2 1-2.2 1-2.2z"/>
      <path class="st19" d="M639.8 682.1s.8 2.3.7 3.1c0 0 .8 9.9-.4 16.1l-.1 4.6c-.1 1.2-.2 2.3-.2 2.9 0 0-.6-4.1 0-8.1l.5-8.4s0-8-1.2-8.5c0 0-1.7-1.6-3.6-7.2 0 0-1.2-2.2-1.7-2.6.6.4 5.4 3.9 6 8.1z"/>
      <path class="st19" d="M640 705.9v1c-.1 1.2-.1 1.9-.1 1.9-.1-.6-.1-1.7.1-2.9z"/>
    </g>
    <g id="XMLID_72_">
      <path class="st19" d="M626.3 667.6c-.5-.4-1-.7-1.5-1.1 0 0 3.1 4.1 5.6 9.3l.1-.1c-2.1-4.6-4.2-8-4.2-8.1z"/>
      <path class="st19" d="M630.4 675.8c1.4 2.8 2.6 6 3 8.9l1.5 4.7s.6 1 1 2.2v-.1-.1-.1-.1-.1-.2c-.7-4.6-3.1-10.5-5.4-15.2l-.1.1z"/>
      <path class="st20" d="M635.9 690.9c-.4-2.9-2.4-14.8-9.6-23.4.1.1 2.1 3.6 4.3 8.1 2.2 4.8 4.6 10.7 5.3 15.3z"/>
      <path class="st19" d="M626.3 667.6c7.2 8.6 9.2 20.5 9.6 23.4v.7c.2.6.5 1.2.6 1.7 0-.2-.1-.4-.1-.7-.2-1.1-.3-1.9-.4-2.2 0 0-2.1-16.6-9.7-22.9z"/>
      <path class="st21" d="M635.9 691.6c-.5-1.1-1-2.1-1-2.2l.8 2.3s1.1 5.1 1.6 9.2c-.2-2.4-.5-5.5-.8-7.7-.1-.4-.3-1-.6-1.6z"/>
      <path class="st19" d="M637.7 678.5s-.8 2.3-.7 3.1c0 0-.8 9.9.4 16.1l.1 4.7c.1 1.2.2 2.3.2 2.9 0 0 .6-4.1 0-8.1l-.5-8.4s0-8 1.2-8.5c0 0 1.7-1.6 3.6-7.2 0 0 1.2-2.2 1.7-2.6-.7.3-5.5 3.8-6 8z"/>
      <path class="st19" d="M637.5 702.3v1c.1 1.2.1 1.9.1 1.9.1-.6 0-1.7-.1-2.9z"/>
    </g>
    <g id="XMLID_71_">
      <path class="st19" d="M633.7 663.1c-.5-.4-1-.7-1.5-1.1 0 0 3.1 4.1 5.6 9.3l.1-.1c-2.1-4.6-4.1-8-4.2-8.1zM637.9 671.3c1.4 2.8 2.6 6 3 8.9l1.5 4.7s.6 1 1 2.2v-.1-.1-.1-.1-.1-.2c-.7-4.6-3.1-10.5-5.4-15.2l-.1.1z"/>
      <path class="st20" d="M643.4 686.4c-.4-2.9-2.4-14.8-9.6-23.4.1.1 2.1 3.6 4.3 8.1 2.2 4.8 4.6 10.7 5.3 15.3z"/>
      <path class="st19" d="M643.5 686s-2.1-16.6-9.7-22.9c7.2 8.6 9.2 20.5 9.6 23.4v.7c.2.6.5 1.2.6 1.7 0-.2-.1-.4-.1-.7-.1-1.1-.3-1.9-.4-2.2z"/>
      <path class="st21" d="M644.8 696.5c-.2-2.4-.5-5.5-.8-7.7-.1-.5-.3-1.1-.6-1.7-.5-1.1-1-2.1-1-2.2l.8 2.3c0 .1 1 5.2 1.6 9.3z"/>
      <path class="st19" d="M645.2 674s-.8 2.3-.7 3.1c0 0-.8 9.9.4 16.1l.1 4.7c.1 1.2.2 2.3.2 2.9 0 0 .6-4.1 0-8.1l-.5-8.4s0-8 1.2-8.5c0 0 1.7-1.6 3.6-7.2 0 0 1.2-2.2 1.7-2.6-.7.3-5.5 3.8-6 8z"/>
      <path class="st19" d="M644.9 697.8v1c.1 1.2.1 1.9.1 1.9.2-.6.1-1.7-.1-2.9z"/>
    </g>
  </g>
  <g>
    <g id="XMLID_67_">
      <path class="st19" d="M733 647.8c.5-.4 1-.7 1.5-1.1 0 0-3.1 4.1-5.6 9.3l-.1-.1c2.1-4.6 4.1-8 4.2-8.1z"/>
      <path class="st19" d="M728.9 656c-1.4 2.8-2.6 6-3 8.9l-1.5 4.7s-.6 1-1 2.2v-.1-.1-.1-.1-.1-.2c.7-4.6 3.1-10.5 5.4-15.2l.1.1z"/>
      <path class="st20" d="M733 647.8c-.1.1-2.1 3.6-4.3 8.1-2.3 4.7-4.7 10.6-5.4 15.2.5-2.9 2.5-14.8 9.7-23.3z"/>
      <path class="st19" d="M723.3 671.5v.2c-.2.6-.5 1.2-.6 1.7 0-.2.1-.4.1-.7.2-1.1.3-1.9.4-2.2 0 0 2.1-16.6 9.7-22.9-7.2 8.6-9.2 20.5-9.6 23.4v.5c0-.1 0 0 0 0z"/>
      <path class="st21" d="M724.4 669.7l-.8 2.3s-1 5.1-1.6 9.2c.2-2.4.5-5.5.8-7.6.1-.5.3-1.1.6-1.7.4-1.2.9-2.2 1-2.2z"/>
      <path class="st19" d="M721.6 658.7s.8 2.3.7 3.1c0 0 .8 9.9-.4 16.1l-.1 4.6c-.1 1.2-.2 2.3-.2 2.9 0 0-.6-4.1 0-8.1l.5-8.4s0-8-1.2-8.5c0 0-1.7-1.6-3.6-7.2 0 0-1.2-2.2-1.7-2.6.7.4 5.4 3.9 6 8.1z"/>
      <path class="st19" d="M721.8 682.5v1c-.1 1.2-.1 1.9-.1 1.9-.1-.6 0-1.7.1-2.9z"/>
    </g>
    <g id="XMLID_66_">
      <path class="st19" d="M708.1 644.2c-.5-.4-1-.7-1.5-1.1 0 0 3.1 4.1 5.6 9.3l.1-.1c-2.1-4.6-4.1-8-4.2-8.1z"/>
      <path class="st19" d="M712.2 652.4c1.4 2.8 2.6 6 3 8.9l1.5 4.7s.6 1 1 2.2v-.1-.1-.1-.1-.1-.2c-.7-4.6-3.1-10.5-5.4-15.2l-.1.1z"/>
      <path class="st20" d="M717.7 667.5c-.4-2.9-2.4-14.8-9.6-23.4.1.1 2.1 3.6 4.3 8.1 2.2 4.8 4.7 10.7 5.3 15.3z"/>
      <path class="st19" d="M708.1 644.2c7.2 8.6 9.2 20.5 9.6 23.4v.7c.2.6.5 1.2.6 1.7 0-.2-.1-.4-.1-.7-.2-1.1-.3-1.9-.4-2.2 0 0-2.1-16.6-9.7-22.9z"/>
      <path class="st21" d="M717.8 668.2c-.5-1.1-1-2.1-1-2.2l.8 2.3s1.1 5.1 1.6 9.2c-.2-2.4-.5-5.5-.8-7.7-.2-.4-.4-1-.6-1.6z"/>
      <path class="st19" d="M719.5 655.1s-.8 2.3-.7 3.1c0 0-.8 9.9.4 16.1l.1 4.7c.1 1.2.2 2.3.2 2.9 0 0 .6-4.1 0-8.1l-.5-8.4s0-8 1.2-8.5c0 0 1.7-1.6 3.6-7.2 0 0 1.2-2.2 1.7-2.6-.7.3-5.4 3.8-6 8z"/>
      <path class="st19" d="M719.3 678.9v1c.1 1.2.1 1.9.1 1.9.1-.6 0-1.7-.1-2.9z"/>
    </g>
    <g id="XMLID_65_">
      <path class="st19" d="M715.6 639.7c-.5-.4-1-.7-1.5-1.1 0 0 3.1 4.1 5.6 9.3l.1-.1c-2.1-4.6-4.2-8-4.2-8.1z"/>
      <path class="st19" d="M719.7 647.9c1.4 2.8 2.6 6 3 8.9l1.5 4.7s.6 1 1 2.2v-.1-.1-.1-.1-.1-.2c-.7-4.6-3.1-10.5-5.4-15.2l-.1.1z"/>
      <path class="st20" d="M725.2 663c-.4-2.9-2.4-14.8-9.6-23.4.1.1 2.1 3.6 4.3 8.1 2.2 4.8 4.7 10.7 5.3 15.3z"/>
      <path class="st19" d="M725.3 662.6s-2.1-16.6-9.7-22.9c7.2 8.6 9.2 20.5 9.6 23.4v.7c.2.6.5 1.2.6 1.7 0-.2-.1-.4-.1-.7-.1-1.1-.3-1.9-.4-2.2z"/>
      <path class="st21" d="M726.6 673.1c-.2-2.4-.5-5.5-.8-7.7-.1-.5-.3-1.1-.6-1.7-.5-1.1-1-2.1-1-2.2l.8 2.3c0 .1 1 5.2 1.6 9.3z"/>
      <path class="st19" d="M727 650.6s-.8 2.3-.7 3.1c0 0-.8 9.9.4 16.1l.1 4.7c.1 1.2.2 2.3.2 2.9 0 0 .6-4.1 0-8.1l-.5-8.4s0-8 1.2-8.5c0 0 1.7-1.6 3.6-7.2 0 0 1.2-2.2 1.7-2.6-.7.3-5.4 3.8-6 8z"/>
      <path class="st19" d="M726.8 674.4v1c.1 1.2.1 1.9.1 1.9.1-.6 0-1.7-.1-2.9z"/>
    </g>
  </g>
  <g>
    <g id="XMLID_64_">
      <path class="st19" d="M708.4 636.6l1.2-1.2s-2.6 4.6-4.6 10.5l-.1-.1c1.7-5.2 3.4-9.1 3.5-9.2zM704.9 645.9c-1.1 3.2-2.1 6.8-2.5 10.1l-1.3 5.3c0 .1-.5 1.2-.9 2.4v-.2-.1-.1-.1-.1-.2c.5-5.2 2.6-11.9 4.4-17.3l.3.3z"/>
      <path class="st20" d="M708.4 636.6c-.1.1-1.7 4-3.5 9.2-1.9 5.3-3.9 12-4.4 17.3.2-3.3 1.9-16.8 7.9-26.5z"/>
      <path class="st19" d="M700.4 663.5v.4c-.2.7-.4 1.4-.5 2 0-.3 0-.5.1-.7.1-1.2.3-2.1.4-2.5 0 0 1.7-18.8 8-26-5.9 9.7-7.6 23.2-8 26.5V663.5c0-.1 0-.1 0 0z"/>
      <path class="st21" d="M699.9 665.8c.1-.6.3-1.3.5-2 .4-1.3.8-2.4.9-2.4l-.6 2.7s-.9 5.8-1.3 10.4c0-2.8.3-6.2.5-8.7z"/>
      <path class="st19" d="M698.9 648.9s.6 2.6.6 3.5c0 0 .6 11.3-.3 18.3l-.1 5.3c-.1 1.4-.2 2.6-.1 3.3 0 0-.5-4.7 0-9.2l.4-9.5s0-9.1-1-9.6c0 0-1.4-1.8-3-8.2 0 0-1-2.5-1.4-2.9.5.4 4.5 4.3 4.9 9z"/>
      <path class="st19" d="M699.1 675.9v1.1c-.1 1.3-.1 2.2-.1 2.2-.1-.7 0-1.9.1-3.3z"/>
    </g>
    <g id="XMLID_63_">
      <path class="st19" d="M687.8 632.5l-1.2-1.2s2.6 4.6 4.6 10.5l.1-.1c-1.8-5.2-3.5-9.1-3.5-9.2z"/>
      <path class="st19" d="M691.2 641.8c1.1 3.2 2.1 6.8 2.5 10.1l1.3 5.3c0 .1.5 1.2.9 2.4v-.2-.1-.1-.1-.1-.2c-.5-5.2-2.6-11.9-4.4-17.3l-.3.3z"/>
      <path class="st20" d="M687.8 632.5c.1.1 1.7 4 3.5 9.2 1.9 5.3 3.9 12 4.4 17.3-.3-3.3-2-16.8-7.9-26.5z"/>
      <path class="st19" d="M695.8 658.5s-1.7-18.8-8-26c5.9 9.7 7.6 23.2 7.9 26.5v.8c.2.7.4 1.4.5 2 0-.3 0-.5-.1-.7 0-1.4-.2-2.3-.3-2.6z"/>
      <path class="st21" d="M695.8 659.8c-.4-1.2-.8-2.4-.9-2.4l.6 2.7s.9 5.8 1.3 10.4c-.2-2.8-.4-6.2-.6-8.7 0-.7-.2-1.4-.4-2z"/>
      <path class="st19" d="M697.2 644.9s-.6 2.6-.6 3.5c0 0-.6 11.3.3 18.3l.1 5.3c.1 1.4.2 2.6.1 3.3 0 0 .5-4.7 0-9.2l-.4-9.5s0-9.1 1-9.6c0 0 1.4-1.8 3-8.2 0 0 1-2.5 1.4-2.9-.5.3-4.4 4.2-4.9 9z"/>
      <path class="st19" d="M697 671.9v1.1c.1 1.3.1 2.2.1 2.2.1-.8.1-1.9-.1-3.3z"/>
    </g>
    <g id="XMLID_62_">
      <path class="st19" d="M694 627.4l-1.2-1.2s2.6 4.6 4.6 10.5l.1-.1c-1.8-5.2-3.5-9.1-3.5-9.2z"/>
      <path class="st19" d="M697.4 636.7c1.1 3.2 2.1 6.8 2.5 10.1l1.3 5.3c0 .1.5 1.2.9 2.4v-.2-.1-.1-.1-.1-.2c-.5-5.2-2.6-11.9-4.4-17.3l-.3.3z"/>
      <path class="st20" d="M694 627.4c.1.1 1.7 4 3.5 9.2 1.9 5.3 3.9 12 4.4 17.3-.3-3.3-2-16.8-7.9-26.5z"/>
      <path class="st19" d="M702 653.4s-1.7-18.8-8-26c5.9 9.7 7.6 23.2 7.9 26.5v.8c.2.7.4 1.4.5 2 0-.3 0-.5-.1-.7-.1-1.4-.2-2.3-.3-2.6z"/>
      <path class="st21" d="M703.1 665.3c-.2-2.8-.4-6.2-.6-8.7-.1-.6-.3-1.3-.5-2-.4-1.2-.8-2.4-.9-2.4l.6 2.7s.9 5.8 1.4 10.4z"/>
      <path class="st19" d="M703.4 639.8s-.6 2.6-.6 3.5c0 0-.6 11.3.3 18.3l.1 5.3c.1 1.4.2 2.6.1 3.3 0 0 .5-4.7 0-9.2l-.4-9.5s0-9.1 1-9.6c0 0 1.4-1.8 3-8.2 0 0 1-2.5 1.4-2.9-.5.3-4.4 4.2-4.9 9z"/>
      <path class="st19" d="M703.2 666.8v1.1c.1 1.3.1 2.2.1 2.2.1-.8 0-1.9-.1-3.3z"/>
    </g>
  </g>
  <g>
    <g id="XMLID_59_">
      <path class="st19" d="M761 386.1c.3-.2.6-.5.9-.7 0 0-2 2.6-3.5 5.8l-.1-.1c1.4-2.8 2.7-4.9 2.7-5zM758.4 391.3c-.9 1.8-1.6 3.7-1.9 5.6l-1 3s-.4.7-.6 1.4v-.1-.1-.1-.1c.5-3.1 2-6.7 3.5-9.6z"/>
      <path class="st20" d="M758.3 391.2c-1.4 2.9-2.9 6.6-3.4 9.5.3-1.9 1.6-9.3 6.1-14.6 0 .1-1.3 2.2-2.7 5.1z"/>
      <path class="st19" d="M761 386.1c-4.5 5.3-5.8 12.7-6.1 14.6v.4c-.2.4-.3.8-.4 1.1 0-.1 0-.3.1-.4.1-.7.2-1.2.3-1.4 0 .1 1.3-10.3 6.1-14.3z"/>
      <path class="st21" d="M754.6 402.3c.1-.3.2-.7.4-1.1.3-.7.6-1.3.6-1.4l-.5 1.5s-.7 3.2-1 5.8c.1-1.5.3-3.4.5-4.8z"/>
      <path class="st19" d="M753.8 393s.5 1.4.4 1.9c0 0 .5 6.3-.2 10.1l-.1 2.9c-.1.8-.1 1.4-.1 1.8 0 0-.4-2.6 0-5.1l.3-5.3s0-5-.7-5.3c0 0-1.1-1-2.3-4.5 0 0-.8-1.4-1-1.6.4.3 3.4 2.4 3.7 5.1z"/>
      <path class="st19" d="M754 407.9v.6c-.1.7-.1 1.2-.1 1.2-.1-.3 0-1 .1-1.8z"/>
    </g>
    <g id="XMLID_58_">
      <path class="st19" d="M745.4 383.8c-.3-.2-.6-.5-.9-.7 0 0 2 2.6 3.5 5.8l.1-.1c-1.4-2.7-2.7-4.9-2.7-5zM748 389c.9 1.8 1.6 3.7 1.9 5.6l1 3s.4.7.6 1.4v-.1-.1-.1-.1c-.5-3-2-6.7-3.5-9.6z"/>
      <path class="st20" d="M745.4 383.8c0 .1 1.3 2.2 2.7 5.1 1.4 3 3 6.7 3.4 9.6-.3-1.8-1.6-9.3-6.1-14.7z"/>
      <path class="st19" d="M751.4 399c.2.4.3.8.4 1.1 0-.1 0-.3-.1-.4-.1-.7-.2-1.2-.3-1.4 0 0-1.3-10.5-6.1-14.4 4.5 5.4 5.8 12.9 6.1 14.7V398.9c.1 0 .1 0 0 .1.1-.1.1-.1 0 0 .1-.1.1-.1 0 0 .1-.1.1-.1 0 0z"/>
      <path class="st21" d="M752.3 404.9c-.1-1.5-.3-3.4-.5-4.8-.1-.3-.2-.7-.4-1.1-.3-.7-.6-1.3-.6-1.4l.5 1.5s.6 3.2 1 5.8z"/>
      <path class="st19" d="M752.5 390.7s-.5 1.4-.4 1.9c0 0-.5 6.3.2 10.1l.1 2.9c.1.8.1 1.4.1 1.8 0 0 .4-2.6 0-5.1l-.3-5.3s0-5 .7-5.3c0 0 1.1-1 2.3-4.5 0 0 .8-1.4 1-1.6-.3.3-3.3 2.5-3.7 5.1z"/>
      <path class="st19" d="M752.4 405.7v.6c.1.7.1 1.2.1 1.2 0-.4 0-1-.1-1.8z"/>
    </g>
    <g id="XMLID_57_">
      <path class="st19" d="M750.1 381c-.3-.2-.6-.5-.9-.7 0 0 2 2.6 3.5 5.8l.1-.1c-1.4-2.7-2.7-4.9-2.7-5zM752.7 386.2c.9 1.8 1.6 3.7 1.9 5.6l1 3s.4.7.6 1.4v-.1-.1-.1-.1c-.5-3-2-6.7-3.5-9.6z"/>
      <path class="st20" d="M750.1 381c0 .1 1.3 2.2 2.7 5.1 1.4 3 3 6.7 3.4 9.6-.3-1.8-1.6-9.3-6.1-14.7z"/>
      <path class="st19" d="M756.1 395.9s.1.1 0 0c.1.1.1.1 0 0v.2c.2.4.3.8.4 1.1 0-.1 0-.3-.1-.4-.1-.7-.2-1.2-.3-1.4 0 0-1.3-10.5-6.1-14.4 4.5 5.4 5.8 12.9 6.1 14.7v.2z"/>
      <path class="st21" d="M757 402c-.1-1.5-.3-3.4-.5-4.8-.1-.3-.2-.7-.4-1.1-.3-.7-.6-1.3-.6-1.4l.5 1.5s.6 3.3 1 5.8z"/>
      <path class="st19" d="M757.2 387.9s-.5 1.4-.4 1.9c0 0-.5 6.3.2 10.1l.1 2.9c.1.8.1 1.4.1 1.8 0 0 .4-2.6 0-5.1l-.3-5.3s0-5 .7-5.3c0 0 1.1-1 2.3-4.5 0 0 .8-1.4 1-1.6-.3.3-3.3 2.5-3.7 5.1z"/>
      <path class="st19" d="M757.1 402.9v.6c.1.7.1 1.2.1 1.2 0-.4 0-1.1-.1-1.8z"/>
    </g>
  </g>
  <g>
    <g id="XMLID_56_">
      <path class="st19" d="M779 391.6c.3-.2.6-.5.9-.7 0 0-2 2.6-3.5 5.8l-.1-.1c1.4-2.7 2.7-4.9 2.7-5zM773 406.3c.4-2.9 1.9-6.6 3.4-9.5l.1.1c-.9 1.8-1.6 3.7-1.9 5.6l-1 3s-.4.7-.6 1.4v-.1-.1-.1-.3z"/>
      <path class="st20" d="M773 406.3c.3-1.9 1.6-9.3 6.1-14.6 0 .1-1.3 2.2-2.7 5.1-1.5 2.9-3 6.6-3.4 9.5z"/>
      <path class="st19" d="M779 391.6c-4.5 5.3-5.8 12.7-6.1 14.6v.4c-.2.4-.3.8-.4 1.1 0-.1 0-.3.1-.4.1-.7.2-1.2.3-1.4 0 .1 1.4-10.3 6.1-14.3z"/>
      <path class="st21" d="M772.9 406.7c.3-.7.6-1.3.6-1.4l-.5 1.5s-.7 3.2-1 5.8c.1-1.5.3-3.4.5-4.8.2-.3.3-.7.4-1.1z"/>
      <path class="st19" d="M771.9 398.5s.5 1.4.4 1.9c0 0 .5 6.3-.2 10.1l-.1 2.9c-.1.8-.1 1.4-.1 1.8 0 0-.4-2.6 0-5.1l.3-5.3s0-5-.7-5.3c0 0-1.1-1-2.3-4.5 0 0-.8-1.4-1-1.6.3.3 3.3 2.5 3.7 5.1z"/>
      <path class="st19" d="M772 413.5v.6c-.1.7-.1 1.2-.1 1.2 0-.4 0-1.1.1-1.8z"/>
    </g>
    <g id="XMLID_55_">
      <path class="st19" d="M763.4 389.3c-.3-.2-.6-.5-.9-.7 0 0 2 2.6 3.5 5.8l.1-.1c-1.4-2.7-2.7-4.9-2.7-5zM766 394.5c.9 1.8 1.6 3.7 1.9 5.6l1 3s.4.7.6 1.4v-.1-.1-.1-.1c-.5-3-2-6.7-3.5-9.6z"/>
      <path class="st20" d="M763.4 389.4c0 .1 1.3 2.2 2.7 5.1 1.4 3 3 6.7 3.4 9.6-.3-1.9-1.6-9.4-6.1-14.7z"/>
      <path class="st19" d="M769.5 403.8s-1.3-10.5-6.1-14.4c4.5 5.4 5.8 12.9 6.1 14.7v.4c.2.4.3.8.4 1.1 0-.1 0-.3-.1-.4-.1-.7-.2-1.2-.3-1.4z"/>
      <path class="st21" d="M770.3 410.4c-.1-1.5-.3-3.4-.5-4.8-.1-.3-.2-.7-.4-1.1-.3-.7-.6-1.3-.6-1.4l.5 1.5s.6 3.2 1 5.8z"/>
      <path class="st19" d="M770.5 396.2s-.5 1.4-.4 1.9c0 0-.5 6.3.2 10.1l.1 2.9c.1.8.1 1.4.1 1.8 0 0 .4-2.6 0-5.1l-.3-5.3s0-5 .7-5.3c0 0 1.1-1 2.3-4.5 0 0 .8-1.4 1-1.6-.3.3-3.3 2.5-3.7 5.1z"/>
      <path class="st19" d="M770.4 411.2v.6c.1.7.1 1.2.1 1.2 0-.4 0-1-.1-1.8z"/>
    </g>
    <g id="XMLID_54_">
      <path class="st19" d="M768.1 386.5c-.3-.2-.6-.5-.9-.7 0 0 2 2.6 3.5 5.8l.1-.1c-1.4-2.7-2.7-4.9-2.7-5zM770.7 391.7c.9 1.8 1.6 3.7 1.9 5.6l1 3s.4.7.6 1.4v-.1-.1-.1-.1c-.5-3-2-6.7-3.5-9.6z"/>
      <path class="st20" d="M768.1 386.5c0 .1 1.3 2.2 2.7 5.1 1.4 3 3 6.7 3.4 9.6-.3-1.8-1.6-9.3-6.1-14.7z"/>
      <path class="st19" d="M768.1 386.5c4.5 5.4 5.8 12.9 6.1 14.7v.4c.2.4.3.8.4 1.1 0-.1 0-.3-.1-.4-.1-.7-.2-1.2-.3-1.4 0 0-1.3-10.4-6.1-14.4z"/>
      <path class="st21" d="M775 407.5c-.1-1.5-.3-3.4-.5-4.8-.1-.3-.2-.7-.4-1.1-.3-.7-.6-1.3-.6-1.4l.5 1.5c0 .1.7 3.3 1 5.8z"/>
      <path class="st19" d="M775.2 393.4s-.5 1.4-.4 1.9c0 0-.5 6.3.2 10.1l.1 2.9c.1.8.1 1.4.1 1.8 0 0 .4-2.6 0-5.1l-.3-5.3s0-5 .7-5.3c0 0 1.1-1 2.3-4.5 0 0 .8-1.4 1-1.6-.3.3-3.3 2.5-3.7 5.1z"/>
      <path class="st19" d="M775.1 408.4v.6c.1.7.1 1.2.1 1.2.1-.4 0-1.1-.1-1.8z"/>
    </g>
  </g>
  <g>
    <g id="XMLID_53_">
      <path class="st19" d="M772.8 413.1c.3-.2.6-.5.9-.7 0 0-2 2.6-3.5 5.8l-.1-.1c1.4-2.7 2.7-4.9 2.7-5zM770.2 418.3c-.9 1.8-1.6 3.7-1.9 5.6l-1 3s-.4.7-.6 1.4v-.1-.1-.1-.1c.5-3 2-6.7 3.5-9.6z"/>
      <path class="st20" d="M772.8 413.1c0 .1-1.3 2.2-2.7 5.1-1.4 2.9-2.9 6.6-3.4 9.5.3-1.8 1.6-9.2 6.1-14.6z"/>
      <path class="st19" d="M766.7 427.6s1.3-10.5 6.1-14.4c-4.5 5.3-5.8 12.7-6.1 14.6v.4c-.2.4-.3.8-.4 1.1 0-.1 0-.3.1-.4.1-.6.2-1.1.3-1.3z"/>
      <path class="st21" d="M766.7 428.3c.3-.7.6-1.3.6-1.4l-.5 1.5s-.7 3.2-1 5.8c.1-1.5.3-3.4.5-4.8.1-.4.3-.8.4-1.1z"/>
      <path class="st19" d="M765.6 420s.5 1.4.4 1.9c0 0 .5 6.3-.2 10.1l-.1 2.9c-.1.8-.1 1.4-.1 1.8 0 0-.4-2.6 0-5.1l.3-5.3s0-5-.7-5.3c0 0-1.1-1-2.3-4.5 0 0-.8-1.4-1-1.6.4.3 3.4 2.5 3.7 5.1z"/>
      <path class="st19" d="M765.8 435v.6c-.1.7-.1 1.2-.1 1.2-.1-.4 0-1 .1-1.8z"/>
    </g>
    <g id="XMLID_52_">
      <path class="st19" d="M757.1 410.9c-.3-.2-.6-.5-.9-.7 0 0 2 2.6 3.5 5.8l.1-.1c-1.3-2.8-2.6-4.9-2.7-5zM759.7 416.1c.9 1.8 1.6 3.7 1.9 5.6l1 3s.4.7.6 1.4v-.1-.1-.1-.1c-.4-3-1.9-6.7-3.5-9.6z"/>
      <path class="st20" d="M757.1 410.9c0 .1 1.3 2.2 2.7 5.1 1.4 3 3 6.7 3.4 9.6-.3-1.9-1.5-9.3-6.1-14.7z"/>
      <path class="st19" d="M763.3 425.3s-1.3-10.5-6.1-14.4c4.5 5.4 5.8 12.9 6.1 14.7v.4c.2.4.3.8.4 1.1 0-.1 0-.3-.1-.4-.2-.7-.3-1.2-.3-1.4z"/>
      <path class="st21" d="M764.1 431.9c-.1-1.5-.3-3.4-.5-4.8-.1-.3-.2-.7-.4-1.1-.3-.7-.6-1.3-.6-1.4l.5 1.5s.6 3.2 1 5.8z"/>
      <path class="st19" d="M764.3 417.7s-.5 1.4-.4 1.9c0 0-.5 6.3.2 10.1l.1 2.9c.1.8.1 1.4.1 1.8 0 0 .4-2.6 0-5.1l-.3-5.3s0-5 .7-5.3c0 0 1.1-1 2.3-4.5 0 0 .8-1.4 1-1.6-.3.3-3.3 2.5-3.7 5.1z"/>
      <path class="st19" d="M764.2 432.7v.6c.1.7.1 1.2.1 1.2 0-.3 0-1-.1-1.8z"/>
    </g>
    <g id="XMLID_51_">
      <path class="st19" d="M761.8 408.1c-.3-.2-.6-.5-.9-.7 0 0 2 2.6 3.5 5.8l.1-.1c-1.3-2.8-2.6-5-2.7-5z"/>
      <path class="st19" d="M767.9 422.7c-.4-2.9-1.9-6.6-3.4-9.6l-.1.1c.9 1.8 1.6 3.7 1.9 5.6l1 3s.4.7.6 1.4v-.1-.1-.1-.2c0 .1 0 0 0 0z"/>
      <path class="st20" d="M767.9 422.7c-.3-1.8-1.5-9.3-6.1-14.7 0 .1 1.3 2.2 2.7 5.1 1.5 3 3 6.7 3.4 9.6z"/>
      <path class="st19" d="M761.8 408.1c4.5 5.4 5.8 12.9 6.1 14.7v.4c.2.4.3.8.4 1.1 0-.1 0-.3-.1-.4-.1-.7-.2-1.2-.3-1.4.1 0-1.3-10.5-6.1-14.4z"/>
      <path class="st21" d="M767.9 423.2c-.3-.7-.6-1.3-.6-1.4l.5 1.5s.7 3.2 1 5.8c-.1-1.5-.3-3.4-.5-4.8-.1-.4-.2-.8-.4-1.1z"/>
      <path class="st19" d="M769 414.9s-.5 1.4-.4 1.9c0 0-.5 6.3.2 10.1l.1 2.9c.1.8.1 1.4.1 1.8 0 0 .4-2.6 0-5.1l-.3-5.3s0-5 .7-5.3c0 0 1.1-1 2.3-4.5 0 0 .8-1.4 1-1.6-.3.3-3.3 2.5-3.7 5.1z"/>
      <path class="st19" d="M768.9 429.9v.6c.1.7.1 1.2.1 1.2 0-.4 0-1-.1-1.8z"/>
    </g>
  </g>
  <g>
    <g id="XMLID_50_">
      <path class="st19" d="M797.9 423.5c.3-.2.6-.5.9-.7 0 0-2 2.6-3.5 5.8l-.1-.1c1.3-2.7 2.6-4.9 2.7-5zM795.3 428.7c-.9 1.8-1.6 3.7-1.9 5.6l-1 3s-.4.7-.6 1.4v-.1-.1-.1-.1c.4-3 2-6.7 3.5-9.6z"/>
      <path class="st20" d="M797.9 423.5c0 .1-1.3 2.2-2.7 5.1-1.4 2.9-2.9 6.6-3.4 9.5.3-1.8 1.6-9.2 6.1-14.6z"/>
      <path class="st19" d="M791.7 438s1.3-10.5 6.1-14.4c-4.5 5.3-5.8 12.7-6.1 14.6v.4c-.2.4-.3.8-.4 1.1 0-.1 0-.3.1-.4.2-.6.3-1.1.3-1.3z"/>
      <path class="st21" d="M791.8 438.7c.3-.7.6-1.3.6-1.4l-.5 1.5s-.7 3.2-1 5.8c.1-1.5.3-3.4.5-4.8.1-.4.2-.8.4-1.1z"/>
      <path class="st19" d="M790.7 430.4s.5 1.4.4 1.9c0 0 .5 6.3-.2 10.1l-.1 2.9c-.1.8-.1 1.4-.1 1.8 0 0-.4-2.6 0-5.1l.3-5.3s0-5-.7-5.3c0 0-1.1-1-2.3-4.5 0 0-.8-1.4-1-1.6.3.3 3.3 2.5 3.7 5.1z"/>
      <path class="st19" d="M790.8 445.4v.6c-.1.7-.1 1.2-.1 1.2 0-.4 0-1 .1-1.8z"/>
    </g>
    <g id="XMLID_49_">
      <path class="st19" d="M782.2 421.3c-.3-.2-.6-.5-.9-.7 0 0 2 2.6 3.5 5.8l.1-.1c-1.4-2.8-2.7-4.9-2.7-5zM784.8 426.5c.9 1.8 1.6 3.7 1.9 5.6l1 3s.4.7.6 1.4v-.1-.1-.1-.1c-.5-3-2-6.7-3.5-9.6z"/>
      <path class="st20" d="M782.2 421.3c0 .1 1.3 2.2 2.7 5.1 1.4 3 3 6.7 3.4 9.6-.3-1.9-1.6-9.3-6.1-14.7z"/>
      <path class="st19" d="M788.3 435.7s-1.3-10.5-6.1-14.4c4.5 5.4 5.8 12.9 6.1 14.7v.4c.2.4.3.8.4 1.1 0-.1 0-.3-.1-.4-.1-.7-.2-1.2-.3-1.4z"/>
      <path class="st21" d="M788.3 436.4c-.3-.7-.6-1.3-.6-1.4l.5 1.5s.7 3.2 1 5.8c-.1-1.5-.3-3.4-.5-4.8-.1-.3-.3-.7-.4-1.1z"/>
      <path class="st19" d="M789.4 428.1s-.5 1.4-.4 1.9c0 0-.5 6.3.2 10.1l.1 2.9c.1.8.1 1.4.1 1.8 0 0 .4-2.6 0-5.1l-.3-5.3s0-5 .7-5.3c0 0 1.1-1 2.3-4.5 0 0 .8-1.4 1-1.6-.4.3-3.4 2.5-3.7 5.1z"/>
      <path class="st19" d="M789.2 443.1v.6c.1.7.1 1.2.1 1.2.1-.4 0-1-.1-1.8z"/>
    </g>
    <g id="XMLID_48_">
      <path class="st19" d="M786.9 418.5c-.3-.2-.6-.5-.9-.7 0 0 2 2.6 3.5 5.8l.1-.1c-1.4-2.8-2.7-5-2.7-5z"/>
      <path class="st19" d="M789.5 423.6c.9 1.8 1.6 3.7 1.9 5.6l1 3s.4.7.6 1.4v-.1-.1-.1-.1c-.5-3-2-6.7-3.5-9.6z"/>
      <path class="st20" d="M786.9 418.5c0 .1 1.3 2.2 2.7 5.1 1.4 3 3 6.7 3.4 9.6-.3-1.9-1.6-9.4-6.1-14.7z"/>
      <path class="st19" d="M793 432.9s-1.3-10.5-6.1-14.4c4.5 5.4 5.8 12.9 6.1 14.7v.4c.2.4.3.8.4 1.1 0-.1 0-.3-.1-.4-.1-.7-.2-1.2-.3-1.4z"/>
      <path class="st21" d="M793 433.6c-.3-.7-.6-1.3-.6-1.4l.5 1.5s.7 3.2 1 5.8c-.1-1.5-.3-3.4-.5-4.8-.1-.4-.3-.8-.4-1.1z"/>
      <path class="st19" d="M794.1 425.3s-.5 1.4-.4 1.9c0 0-.5 6.3.2 10.1l.1 2.9c.1.8.1 1.4.1 1.8 0 0 .4-2.6 0-5.1l-.3-5.3s0-5 .7-5.3c0 0 1.1-1 2.3-4.5 0 0 .8-1.4 1-1.6-.4.3-3.4 2.5-3.7 5.1zM793.9 440.3v.6c.1.7.1 1.2.1 1.2.1-.4 0-1-.1-1.8z"/>
    </g>
  </g>
  <g>
    <g id="XMLID_47_">
      <path class="st19" d="M784 394.7c.2-.3.5-.5.8-.8 0 0-1.6 2.9-2.9 6.6l-.1-.1c1.1-3.2 2.1-5.7 2.2-5.7zM781.8 400.5c-.7 2-1.3 4.2-1.5 6.4l-.8 3.4s-.3.7-.5 1.5v-.1-.1-.1-.1c.3-3.4 1.6-7.6 2.8-10.9z"/>
      <path class="st20" d="M779 411.3c.2-2.1 1.3-10.6 5-16.7 0 .1-1.1 2.5-2.2 5.8-1.2 3.4-2.5 7.6-2.8 10.9z"/>
      <path class="st19" d="M778.9 411s1.1-11.8 5-16.4c-3.7 6.1-4.8 14.6-5 16.7v.4c-.1.4-.2.9-.3 1.2v-.5c.2-.6.3-1.2.3-1.4z"/>
      <path class="st21" d="M778.2 418.5c.1-1.7.3-3.9.4-5.5l.3-1.2c.2-.8.5-1.5.5-1.5l-.4 1.7c.1-.1-.5 3.6-.8 6.5z"/>
      <path class="st19" d="M778 402.4s.4 1.6.4 2.2c0 0 .4 7.1-.2 11.5v3.3c-.1.9-.1 1.6-.1 2.1 0 0-.3-3 0-5.8l.2-6s0-5.7-.6-6.1c0 0-.9-1.1-1.9-5.1 0 0-.6-1.6-.9-1.9.4.4 2.9 2.9 3.1 5.8z"/>
      <path class="st19" d="M778.2 419.4v.7c0 .8-.1 1.4-.1 1.4-.1-.5 0-1.2.1-2.1z"/>
    </g>
    <g id="XMLID_46_">
      <path class="st19" d="M771 392.1c-.2-.3-.5-.5-.8-.8 0 0 1.6 2.9 2.9 6.6l.1-.1c-1.1-3.2-2.1-5.6-2.2-5.7zM773.2 398c.7 2 1.3 4.2 1.5 6.4l.8 3.4s.3.7.5 1.5v-.1-.1-.1-.1c-.3-3.4-1.6-7.6-2.8-10.9z"/>
      <path class="st20" d="M771 392.1c0 .1 1.1 2.5 2.2 5.8 1.2 3.4 2.4 7.6 2.8 10.9-.2-2.1-1.2-10.6-5-16.7z"/>
      <path class="st19" d="M776.1 409v.2c.1.4.2.9.3 1.2v-.5c-.1-.8-.2-1.3-.2-1.6 0 0-1.1-11.9-5-16.4 3.7 6.1 4.8 14.6 5 16.7v.1c-.1.2-.1.2-.1.3z"/>
      <path class="st21" d="M775.5 407.7l.4 1.7s.5 3.6.8 6.5c-.1-1.7-.3-3.9-.4-5.4l-.3-1.2c-.2-.9-.5-1.6-.5-1.6z"/>
      <path class="st19" d="M777 399.9s-.4 1.6-.4 2.2c0 0-.4 7.1.2 11.5v3.3c.1.9.1 1.6.1 2.1 0 0 .3-3 0-5.8l-.2-6s0-5.7.6-6.1c0 0 .9-1.1 1.9-5.1 0 0 .6-1.6.9-1.9-.4.3-2.8 2.8-3.1 5.8z"/>
      <path class="st19" d="M776.9 416.9v.7c0 .8.1 1.4.1 1.4 0-.5-.1-1.3-.1-2.1z"/>
    </g>
    <g id="XMLID_45_">
      <path class="st19" d="M774.9 388.9c-.2-.3-.5-.5-.8-.8 0 0 1.6 2.9 2.9 6.6l.1-.1c-1.1-3.2-2.1-5.6-2.2-5.7zM777.1 394.8c.7 2 1.3 4.2 1.5 6.4l.8 3.4s.3.7.5 1.5v-.1-.1-.1-.1c-.3-3.5-1.6-7.7-2.8-10.9z"/>
      <path class="st20" d="M774.9 388.9c0 .1 1.1 2.5 2.2 5.8 1.2 3.4 2.4 7.6 2.8 10.9-.2-2.1-1.2-10.6-5-16.7z"/>
      <path class="st19" d="M780 405.2s-1.1-11.9-5-16.4c3.7 6.1 4.8 14.6 5 16.7v.4c.1.4.2.9.3 1.2v-.5c-.2-.6-.3-1.1-.3-1.4z"/>
      <path class="st21" d="M779.8 406.2s.5 3.6.8 6.5c-.1-1.7-.3-3.9-.4-5.4l-.3-1.2c-.2-.8-.5-1.5-.5-1.5l.4 1.6z"/>
      <path class="st19" d="M780.8 396.7s-.4 1.6-.4 2.2c0 0-.4 7.1.2 11.5v3.3c.1.9.1 1.6.1 2.1 0 0 .3-3 0-5.8l-.2-6s0-5.7.6-6.1c0 0 .9-1.1 1.9-5.1 0 0 .6-1.6.9-1.8-.3.2-2.8 2.7-3.1 5.7z"/>
      <path class="st19" d="M780.7 413.6v.7c0 .8.1 1.4.1 1.4 0-.4 0-1.2-.1-2.1z"/>
    </g>
  </g>
  <g>
    <g id="XMLID_44_">
      <path class="st19" d="M797.4 385.5c.3-.2.6-.5.9-.7 0 0-2 2.6-3.5 5.8l-.1-.1c1.4-2.7 2.7-4.9 2.7-5zM794.8 390.7c-.9 1.8-1.6 3.7-1.9 5.6l-1 3s-.4.7-.6 1.4v-.1-.1-.1-.1c.5-3 2-6.7 3.5-9.6z"/>
      <path class="st20" d="M797.4 385.5c0 .1-1.3 2.2-2.7 5.1-1.4 2.9-2.9 6.6-3.4 9.5.3-1.8 1.6-9.2 6.1-14.6z"/>
      <path class="st19" d="M791.3 400s1.3-10.5 6.1-14.4c-4.5 5.3-5.8 12.7-6.1 14.6v.4c-.2.4-.3.8-.4 1.1 0-.1 0-.3.1-.4.1-.7.2-1.2.3-1.3z"/>
      <path class="st21" d="M790.5 406.5c.1-1.5.3-3.4.5-4.8.1-.3.2-.7.4-1.1.3-.7.6-1.3.6-1.4l-.5 1.5c0 .1-.7 3.3-1 5.8z"/>
      <path class="st19" d="M790.2 392.4s.5 1.4.4 1.9c0 0 .5 6.3-.2 10.1l-.1 2.9c-.1.8-.1 1.4-.1 1.8 0 0-.4-2.6 0-5.1l.3-5.3s0-5-.7-5.3c0 0-1.1-1-2.3-4.5 0 0-.8-1.4-1-1.6.4.3 3.4 2.5 3.7 5.1z"/>
      <path class="st19" d="M790.4 407.4v.6c-.1.7-.1 1.2-.1 1.2-.1-.4 0-1.1.1-1.8z"/>
    </g>
    <g id="XMLID_43_">
      <path class="st19" d="M781.8 383.3c-.3-.2-.6-.5-.9-.7 0 0 2 2.6 3.5 5.8l.1-.1c-1.4-2.8-2.7-5-2.7-5z"/>
      <path class="st19" d="M787.8 398c-.4-2.9-1.9-6.6-3.4-9.6l-.1.1c.9 1.8 1.6 3.7 1.9 5.6l1 3s.4.7.6 1.4v-.1-.1-.1-.2z"/>
      <path class="st20" d="M787.8 398c-.3-1.8-1.5-9.3-6.1-14.7 0 .1 1.3 2.2 2.7 5.1 1.5 3 3 6.7 3.4 9.6z"/>
      <path class="st19" d="M787.8 398.2s0 .1 0 0v.2c.2.4.3.8.4 1.1 0-.1 0-.3-.1-.4-.1-.7-.2-1.2-.3-1.4 0 0-1.3-10.5-6.1-14.4 4.5 5.4 5.8 12.9 6.1 14.7v.2z"/>
      <path class="st21" d="M787.8 398.4c-.3-.7-.6-1.3-.6-1.4l.5 1.5s.7 3.2 1 5.8c-.1-1.5-.3-3.4-.5-4.8-.1-.4-.2-.7-.4-1.1z"/>
      <path class="st19" d="M788.9 390.1s-.5 1.4-.4 1.9c0 0-.5 6.3.2 10.1l.1 2.9c.1.8.1 1.4.1 1.8 0 0 .4-2.6 0-5.1l-.3-5.3s0-5 .7-5.3c0 0 1.1-1 2.3-4.5 0 0 .8-1.4 1-1.6-.3.3-3.3 2.5-3.7 5.1z"/>
      <path class="st19" d="M788.8 405.1v.6c.1.7.1 1.2.1 1.2 0-.4 0-1-.1-1.8z"/>
    </g>
    <g id="XMLID_42_">
      <path class="st19" d="M786.5 380.4c-.3-.2-.6-.5-.9-.7 0 0 2 2.6 3.5 5.8l.1-.1c-1.4-2.7-2.7-4.9-2.7-5zM789.1 385.6c.9 1.8 1.6 3.7 1.9 5.6l1 3s.4.7.6 1.4v-.1-.1-.1-.1c-.5-3-2-6.7-3.5-9.6z"/>
      <path class="st20" d="M789.1 385.6c1.4 3 3 6.7 3.4 9.6-.3-1.8-1.5-9.3-6.1-14.7.1 0 1.4 2.2 2.7 5.1z"/>
      <path class="st19" d="M792.6 394.9s-1.3-10.5-6.1-14.4c4.5 5.4 5.8 12.9 6.1 14.7v.4c.2.4.3.8.4 1.1 0-.1 0-.3-.1-.4-.1-.7-.2-1.2-.3-1.4z"/>
      <path class="st21" d="M792.5 395.6c-.3-.7-.6-1.3-.6-1.4l.5 1.5s.7 3.2 1 5.8c-.1-1.5-.3-3.4-.5-4.8-.1-.4-.2-.8-.4-1.1z"/>
      <path class="st19" d="M793.6 387.3s-.5 1.4-.4 1.9c0 0-.5 6.3.2 10.1l.1 2.9c.1.8.1 1.4.1 1.8 0 0 .4-2.6 0-5.1l-.3-5.3s0-5 .7-5.3c0 0 1.1-1 2.3-4.5 0 0 .8-1.4 1-1.6-.3.3-3.3 2.5-3.7 5.1z"/>
      <path class="st19" d="M793.5 402.3v.6c.1.7.1 1.2.1 1.2 0-.4 0-1-.1-1.8z"/>
    </g>
  </g>
  <g>
    <g id="XMLID_41_">
      <path class="st19" d="M779.4 373.7c.3-.2.6-.5.9-.7 0 0-2 2.6-3.5 5.8l-.1-.1c1.3-2.7 2.6-4.9 2.7-5zM773.3 388.4c.4-2.9 1.9-6.6 3.4-9.5l.1.1c-.9 1.8-1.6 3.7-1.9 5.6l-1 3s-.4.7-.6 1.4v-.1-.1-.1-.3z"/>
      <path class="st20" d="M776.7 378.8c-1.4 2.9-2.9 6.6-3.4 9.5.3-1.9 1.6-9.3 6.1-14.6-.1.1-1.4 2.3-2.7 5.1z"/>
      <path class="st19" d="M773.3 388.7v.1c-.2.4-.3.8-.4 1.1 0-.1 0-.3.1-.4.1-.7.2-1.2.3-1.4 0 0 1.3-10.5 6.1-14.4-4.5 5.3-5.8 12.7-6.1 14.6v.4c0-.1 0-.1 0 0 0-.1 0-.1 0 0z"/>
      <path class="st21" d="M772.4 394.7c.1-1.5.3-3.4.5-4.8.1-.3.2-.7.4-1.1.3-.7.6-1.3.6-1.4l-.5 1.5s-.6 3.3-1 5.8z"/>
      <path class="st19" d="M772.2 380.6s.5 1.4.4 1.9c0 0 .5 6.3-.2 10.1l-.1 2.9c-.1.8-.1 1.4-.1 1.8 0 0-.4-2.6 0-5.1l.3-5.3s0-5-.7-5.3c0 0-1.1-1-2.3-4.5 0 0-.8-1.4-1-1.6.3.3 3.3 2.5 3.7 5.1z"/>
      <path class="st19" d="M772.3 395.5v.6c-.1.7-.1 1.2-.1 1.2 0-.3 0-1 .1-1.8z"/>
    </g>
    <g id="XMLID_40_">
      <path class="st19" d="M763.7 371.4c-.3-.2-.6-.5-.9-.7 0 0 2 2.6 3.5 5.8l.1-.1c-1.4-2.7-2.7-4.9-2.7-5zM769.7 386.1c-.4-2.9-1.9-6.6-3.4-9.6l-.1.1c.9 1.8 1.6 3.7 1.9 5.6l1 3s.4.7.6 1.4v-.1-.1-.1c.1-.1.1-.1 0-.2z"/>
      <path class="st20" d="M769.7 386.1c-.3-1.8-1.5-9.3-6.1-14.7 0 .1 1.3 2.2 2.7 5.1 1.5 3 3 6.7 3.4 9.6z"/>
      <path class="st19" d="M763.7 371.5c4.5 5.4 5.8 12.9 6.1 14.7v.4c.2.4.3.8.4 1.1 0-.1 0-.3-.1-.4-.1-.7-.2-1.2-.3-1.4 0 0-1.3-10.5-6.1-14.4 0-.1 0-.1 0 0z"/>
      <path class="st21" d="M770.6 392.5c-.1-1.5-.3-3.4-.5-4.8-.1-.3-.2-.7-.4-1.1-.3-.7-.6-1.3-.6-1.4l.5 1.5s.7 3.2 1 5.8z"/>
      <path class="st19" d="M770.9 378.3s-.5 1.4-.4 1.9c0 0-.5 6.3.2 10.1l.1 2.9c.1.8.1 1.4.1 1.8 0 0 .4-2.6 0-5.1l-.3-5.3s0-5 .7-5.3c0 0 1.1-1 2.3-4.5 0 0 .8-1.4 1-1.6-.4.3-3.4 2.5-3.7 5.1z"/>
      <path class="st19" d="M770.7 393.3v.6c.1.7.1 1.2.1 1.2.1-.4 0-1-.1-1.8z"/>
    </g>
    <g id="XMLID_2_">
      <path class="st19" d="M768.4 368.6c-.3-.2-.6-.5-.9-.7 0 0 2 2.6 3.5 5.8l.1-.1c-1.4-2.7-2.7-4.9-2.7-5zM774.5 383.3c-.4-2.9-1.9-6.6-3.4-9.6l-.1.1c.9 1.8 1.6 3.7 1.9 5.6l1 3s.4.7.6 1.4v-.1-.1-.1-.2z"/>
      <path class="st20" d="M774.5 383.3c-.3-1.8-1.5-9.3-6.1-14.7 0 .1 1.3 2.2 2.7 5.1 1.4 3 2.9 6.7 3.4 9.6z"/>
      <path class="st19" d="M768.4 368.6c4.5 5.4 5.8 12.9 6.1 14.7v.4c.2.4.3.8.4 1.1 0-.1 0-.3-.1-.4-.1-.7-.2-1.2-.3-1.4 0 0-1.3-10.4-6.1-14.4z"/>
      <path class="st21" d="M774.3 383.9s.7 3.2 1 5.8c-.1-1.5-.3-3.4-.5-4.8-.1-.3-.2-.7-.4-1.1-.3-.7-.6-1.3-.6-1.4l.5 1.5z"/>
      <path class="st19" d="M775.6 375.5s-.5 1.4-.4 1.9c0 0-.5 6.3.2 10.1l.1 2.9c.1.8.1 1.4.1 1.8 0 0 .4-2.6 0-5.1l-.3-5.3s0-5 .7-5.3c0 0 1.1-1 2.3-4.5 0 0 .8-1.4 1-1.6-.4.3-3.4 2.5-3.7 5.1z"/>
      <path class="st19" d="M775.4 390.5v.6c.1.7.1 1.2.1 1.2.1-.4 0-1.1-.1-1.8z"/>
    </g>
  </g>
  <g>
    <g id="XMLID_39_">
      <path class="st19" d="M815.7 462.7c.5-.4 1-.7 1.5-1.1 0 0-3.1 4.1-5.6 9.3l-.1-.1c2.1-4.5 4.1-8 4.2-8.1zM811.5 470.9c-1.4 2.8-2.6 6-3 8.9l-1.5 4.7s-.6 1-1 2.2v-.1-.1-.1-.1-.1-.2c.7-4.6 3.1-10.5 5.4-15.2l.1.1z"/>
      <path class="st20" d="M815.7 462.7c-.1.1-2.1 3.6-4.3 8.1-2.3 4.7-4.7 10.6-5.4 15.2.4-2.8 2.5-14.7 9.7-23.3z"/>
      <path class="st19" d="M806 486.4c0 .1 0 .1 0 0v.2c-.2.6-.5 1.2-.6 1.7 0-.2.1-.4.1-.7.2-1.1.3-1.9.4-2.2 0 0 2.1-16.6 9.7-22.9-7.2 8.6-9.2 20.5-9.6 23.4v.5z"/>
      <path class="st21" d="M806 486.8c.5-1.1 1-2.1 1-2.2l-.8 2.3s-1 5.1-1.6 9.2c.2-2.4.5-5.5.8-7.6.1-.5.3-1.2.6-1.7z"/>
      <path class="st19" d="M804.2 473.6s.8 2.3.7 3.1c0 0 .8 9.9-.4 16.1l-.1 4.6c-.1 1.2-.2 2.3-.2 2.9 0 0-.6-4.1 0-8.1l.5-8.4s0-8-1.2-8.5c0 0-1.7-1.6-3.6-7.2 0 0-1.2-2.2-1.7-2.6.7.5 5.5 4 6 8.1z"/>
      <path class="st19" d="M804.5 497.4v1c-.1 1.2-.1 1.9-.1 1.9-.2-.6-.1-1.6.1-2.9z"/>
    </g>
    <g id="XMLID_38_">
      <path class="st19" d="M790.7 459.1c-.5-.4-1-.7-1.5-1.1 0 0 3.1 4.1 5.6 9.3l.1-.1c-2.1-4.5-4.1-8-4.2-8.1zM794.9 467.4c1.4 2.8 2.6 6 3 8.9l1.5 4.7s.6 1 1 2.2v-.1-.1-.1-.1-.1-.2c-.7-4.6-3.1-10.5-5.4-15.2l-.1.1z"/>
      <path class="st20" d="M800.4 482.5c-.4-2.9-2.4-14.8-9.6-23.4.1.1 2.1 3.6 4.3 8.1 2.2 4.8 4.6 10.7 5.3 15.3z"/>
      <path class="st19" d="M800.5 482.1s-2.1-16.6-9.7-22.9c7.2 8.6 9.2 20.5 9.6 23.4v.7c.2.6.5 1.2.6 1.7 0-.2-.1-.4-.1-.7-.1-1.1-.3-1.9-.4-2.2z"/>
      <path class="st21" d="M800.2 483.4s1.1 5.1 1.6 9.2c-.2-2.4-.5-5.5-.8-7.7-.1-.5-.3-1.1-.6-1.7-.5-1.1-1-2.1-1-2.2l.8 2.4z"/>
      <path class="st19" d="M802.2 470s-.8 2.3-.7 3.1c0 0-.8 9.9.4 16.1l.1 4.7c.1 1.2.2 2.3.2 2.9 0 0 .6-4.1 0-8.1l-.5-8.4s0-8 1.2-8.5c0 0 1.7-1.6 3.6-7.2 0 0 1.2-2.2 1.7-2.6-.7.4-5.5 3.9-6 8z"/>
      <path class="st19" d="M801.9 493.9v1c.1 1.2.1 1.9.1 1.9.2-.7.1-1.7-.1-2.9z"/>
    </g>
    <g id="XMLID_37_">
      <path class="st19" d="M798.2 454.6c-.5-.4-1-.7-1.5-1.1 0 0 3.1 4.1 5.6 9.3l.1-.1c-2.1-4.5-4.1-8-4.2-8.1zM807.9 478c-.7-4.6-3.1-10.5-5.4-15.2l-.1.1c1.4 2.8 2.6 6 3 8.9l1.5 4.7s.6 1 1 2.2v-.1-.1-.1-.1-.1-.2z"/>
      <path class="st20" d="M802.5 462.8c2.3 4.7 4.7 10.6 5.4 15.2-.4-2.9-2.4-14.8-9.6-23.4 0 .1 2 3.6 4.2 8.2z"/>
      <path class="st19" d="M808.4 479.7c-.2-1.1-.3-1.9-.4-2.2 0 0-2.1-16.6-9.7-22.9 7.2 8.6 9.2 20.5 9.6 23.4v.7c.2.6.5 1.2.6 1.7 0-.2-.1-.5-.1-.7z"/>
      <path class="st21" d="M806.9 476.5l.8 2.3s1.1 5.1 1.6 9.2c-.2-2.4-.5-5.5-.8-7.7-.1-.5-.3-1.1-.6-1.7-.5-1-1-2-1-2.1z"/>
      <path class="st19" d="M809.6 465.5s-.8 2.3-.7 3.1c0 0-.8 9.9.4 16.1l.1 4.7c.1 1.2.2 2.3.2 2.9 0 0 .6-4.1 0-8.1l-.5-8.4s0-8 1.2-8.5c0 0 1.7-1.6 3.6-7.2 0 0 1.2-2.2 1.7-2.6-.6.4-5.4 3.9-6 8z"/>
      <path class="st19" d="M809.4 489.4v1c.1 1.2.1 1.9.1 1.9.1-.7.1-1.7-.1-2.9z"/>
    </g>
  </g>
  <g id="XMLID_3_">
    <path class="st16" d="M764.7 403.4s2.3 1.4 7.4-.5c0 0-1.5 5.1-8.6 3.3l-1.5-.4c-1.2-1-2.3-1.2-3.2-1.1 0-.1-.6-3 5.9-1.3z"/>
    <path class="st16" d="M769 416.1c-2.2-.4-7.2-2.2-9-8.4 0 0-1.9-2.7-3.3-2.1.1-.1.9-.8 2.2-1 .9-.1 2.1.1 3.2 1.1.7.6 1.5 1.6 2.2 3.1-.2 0 2.1 6.2 4.7 7.3z"/>
    <path class="st17" d="M755.7 408.3c-1.5 3.1.8 16.3.8 16.3-.9 1-2.2 1.1-3.3.9.5-.4.8-.6.8-.6-2.7-1-3-13.5-3-13.5-.1.3-.2.5-.4.8-.1-.6-.2-1.1-.2-1.6 0-.1.1-.1.1-.2 0 0-.1-.2-.2-.5-.1-.5-.1-.8-.2-.9 1.1 1.6 5.6-.7 5.6-.7zM754.2 394.9c-.6 1.7 1.1 12.3 1.1 12.3-3.2 2-5.1 1.1-5.1 1.1.9-.6-.6-13.4-.7-14.3.2 1.4 4.7.9 4.7.9z"/>
    <path class="st18" d="M751 424.6c1-2.1.3-8.6-.3-12.5.1-.2.3-.5.4-.8 0 0 .3 12.5 3 13.5 0 0-.3.3-.8.6-1.3-.2-2.3-.8-2.3-.8z"/>
    <path class="st18" d="M750.7 412.1c.6 3.9 1.4 10.4.3 12.5 0 0 1 .6 2.3.9-1.2.9-3.4 2.3-4.6 1.8 0 0-.1-.3-.1-.7.2-.1.3-.1.3-.1-.1-.1-.2-.2-.3-.4-.1-1.1-.2-2.9-.5-4.8.2-2.8.8-6 1.2-7.6.5-.3 1-.8 1.4-1.6zM748.4 405.4c.4 3.2.8 6.1.8 6.1-1.4 1.5-2.9 1.7-4.1 1.6.1-1.2-.6-3.8-1.4-6.5 0-3.3-.3-7-.4-9 .6-.3 1.2-.6 1.6-.9h.6c.2 1.5 1.6 5.4 2.9 8.7z"/>
    <path class="st18" d="M749.2 413.7c-.4 1.6-1 4.8-1.2 7.6-.4-2.8-1.1-5.8-2.3-6.8 0 .1 1.9.3 3.5-.8z"/>
    <path class="st17" d="M748.3 396.2c-.6.9-.3 5.3.1 9.2-1.3-3.2-2.7-7.1-2.8-8.7 1.4-.1 2.7-.5 2.7-.5zM747.3 378.6c-1.5 3.1.8 16.3.8 16.3-.7.8-1.5 1-2.4 1-.5 0-.9-.1-1.4-.2.9-.6 1.5-1.1 1.5-1.1-2.7-1-3-13.5-3-13.5-.2.5-.4.9-.7 1.2-.3-1.7-.5-2.9-.5-3 1.2 1.7 5.7-.7 5.7-.7z"/>
    <path class="st18" d="M750.5 410.6c-2 3.7-5.3 2.9-5.3 2.9 0-.1.1-.2.1-.4 1.1.1 2.6-.1 4.1-1.6 0 0-.4-2.8-.8-6.1.8 2 1.6 3.7 1.9 4.5-.1.2-.1.4 0 .7z"/>
    <path class="st17" d="M749.2 413.7c-1.6 1.1-3.5.8-3.5.8 1.2 1 1.9 4 2.3 6.8-.1 2-.1 3.9.5 4.8v.5c-1 .3-4.3 1.4-5.5.3-.2-.2 2.3-10.3.4-13.2 0 0 3.6 1.9 5.9-1.1.2 0 .1.5-.1 1.1zM745.7 365.3c-.6 1.7 1.1 12.3 1.1 12.3-3.2 2-5.1 1.1-5.1 1.1.9-.6-.6-13.4-.7-14.3.2 1.3 4.7.9 4.7.9zM743.8 406.5c.8 2.7 1.4 5.3 1.4 6.5-1.1-.1-1.9-.7-1.9-.7.4-.6.6-3 .5-5.8z"/>
    <path class="st18" d="M744.4 395.7l-.9.6c-.1 0-.1-.1-.2-.1v.2c-1 .6-2.1 1-2.8.7-.3-.1-.4-10.7-3-12.8 0 0 2.9.4 4.7-1.9.6 3.9 1.4 10.5.3 12.6 0-.1.8.4 1.9.7zM743.4 397.6c.1 2 .4 5.7.4 9-1.2-4.1-2.8-8.5-2.8-8.5.7.1 1.6-.2 2.4-.5z"/>
    <path class="st18" d="M742.5 394.9c1.1-2.1.3-8.7-.3-12.6.3-.4.5-.8.7-1.2 0 0 .3 12.5 3 13.5 0 0-.6.6-1.5 1.1-1.1-.3-1.9-.8-1.9-.8z"/>
    <path class="st16" d="M740.3 364.2s-.6 4.9-3.7 7.2c0 0-2 4-1 7.6-.6-2-2.7-11.1 2.9-14.8h1.8z"/>
    <path class="st16" d="M740.3 364.2h-1.8c-2.8-2-5.8 8.5-5.8 8.5-.3-7.1 3.1-10.1 3.1-10.1 3.2 0 4.4 1.5 4.5 1.6z"/>
  </g>
  <g id="XMLID_5_">
    <path class="st16" d="M752.6 403.5s2.3 1.4 7.4-.5c0 0-1.5 5.1-8.6 3.3l-1.5-.4c-1.2-1-2.3-1.2-3.2-1.1 0-.1-.6-3 5.9-1.3z"/>
    <path class="st16" d="M756.8 416.3c-2.2-.4-7.2-2.2-9-8.4 0 0-1.9-2.7-3.3-2.1.1-.1.9-.8 2.2-1 .9-.1 2.1.1 3.2 1.1.7.6 1.5 1.6 2.2 3.1-.1-.1 2.2 6.1 4.7 7.3z"/>
    <path class="st17" d="M743.6 408.4c-1.5 3.1.8 16.3.8 16.3-.9 1-2.2 1.1-3.3.9.5-.4.8-.6.8-.6-2.7-1-3-13.5-3-13.5-.1.3-.2.5-.4.8-.1-.6-.2-1.1-.2-1.6 0-.1.1-.1.1-.2 0 0-.1-.2-.2-.5-.1-.5-.1-.8-.2-.9 1.1 1.7 5.6-.7 5.6-.7zM742.1 395.1c-.6 1.7 1.1 12.3 1.1 12.3-3.2 2-5.1 1.1-5.1 1.1.9-.6-.6-13.4-.7-14.3.2 1.4 4.7.9 4.7.9z"/>
    <path class="st18" d="M739 411.5s.3 12.5 3 13.5c0 0-.3.3-.8.6-1.2-.3-2.3-.9-2.3-.9 1-2.1.3-8.6-.3-12.5.1-.2.3-.4.4-.7z"/>
    <path class="st18" d="M738.6 412.3c.6 3.9 1.4 10.4.3 12.5 0 0 1 .6 2.3.9-1.2.9-3.4 2.3-4.6 1.8 0 0-.1-.3-.1-.7.2-.1.3-.1.3-.1-.1-.1-.2-.2-.3-.4-.1-1.1-.2-2.9-.5-4.8.2-2.8.8-6 1.2-7.6.5-.4 1-.9 1.4-1.6zM736.3 405.5c.4 3.2.8 6.1.8 6.1-1.4 1.5-2.9 1.7-4.1 1.6.1-1.2-.6-3.8-1.4-6.5 0-3.3-.3-7-.4-9 .6-.3 1.2-.6 1.6-.9h.6c.2 1.6 1.6 5.5 2.9 8.7z"/>
    <path class="st18" d="M737.1 413.9c-.4 1.6-1 4.8-1.2 7.6-.4-2.8-1.1-5.8-2.3-6.8 0 0 1.9.2 3.5-.8z"/>
    <path class="st17" d="M736.2 396.3c-.6.9-.3 5.3.1 9.2-1.3-3.2-2.7-7.1-2.8-8.7 1.4-.1 2.7-.5 2.7-.5zM735.2 378.8c-1.5 3.1.8 16.3.8 16.3-.7.8-1.5 1-2.4 1-.5 0-.9-.1-1.4-.2.9-.6 1.5-1.1 1.5-1.1-2.7-1-3-13.5-3-13.5-.2.5-.4.9-.7 1.2-.3-1.7-.5-2.9-.5-3 1.2 1.6 5.7-.7 5.7-.7z"/>
    <path class="st18" d="M733.1 413.2c1.1.1 2.6-.1 4.1-1.6 0 0-.4-2.8-.8-6.1.8 2 1.6 3.7 1.9 4.5 0 .2.1.4.1.7-2 3.7-5.3 2.9-5.3 2.9-.1-.1 0-.2 0-.4z"/>
    <path class="st17" d="M737.1 413.9c-1.6 1.1-3.5.8-3.5.8 1.2 1 1.9 4 2.3 6.8-.1 2-.1 3.9.5 4.8v.5c-1 .3-4.3 1.4-5.5.3-.2-.2 2.3-10.3.4-13.2 0 0 3.6 1.9 5.9-1.1.1 0 0 .4-.1 1.1zM733.6 365.4c-.6 1.7 1.1 12.3 1.1 12.3-3.2 2-5.1 1.1-5.1 1.1.9-.6-.6-13.4-.7-14.3.2 1.4 4.7.9 4.7.9zM731.7 406.7c.8 2.7 1.4 5.3 1.4 6.5-1.1-.1-1.9-.7-1.9-.7.4-.6.5-3.1.5-5.8z"/>
    <path class="st18" d="M732.3 395.8l-.9.6c-.1 0-.1-.1-.2-.1v.2c-1 .6-2.1 1-2.8.7-.3-.1-.4-10.7-3-12.8 0 0 2.9.4 4.7-1.9.6 3.9 1.4 10.5.3 12.6 0 0 .8.5 1.9.7zM731.3 397.7c.1 2 .4 5.7.4 9-1.2-4.1-2.8-8.5-2.8-8.5.7.1 1.6-.1 2.4-.5z"/>
    <path class="st18" d="M730.8 381.2s.3 12.5 3 13.5c0 0-.6.6-1.5 1.1-1-.3-1.8-.8-1.8-.8 1.1-2.1.3-8.7-.3-12.6.2-.3.4-.7.6-1.2z"/>
    <path class="st16" d="M728.2 364.3s-.6 4.9-3.7 7.2c0 0-2 4-1 7.6-.6-2-2.7-11.1 2.9-14.8h1.8z"/>
    <path class="st16" d="M728.2 364.3h-1.8c-2.8-2-5.8 8.5-5.8 8.5-.3-7.1 3.1-10.1 3.1-10.1 3.2 0 4.4 1.5 4.5 1.6z"/>
  </g>
  <path class="st22" d="M571.9 631.2c-2.2 4.8-4.1 9.6-5.8 14.2-15 41.6-24.5 75.5-26.7 75.3-4.8-.4-537.8-.6-537.8-.6L125.3 606M173.8 561l41.6-86.1 120.7 55.5 257.3-158s-34.6 115.7-53.5 193.7"/>
  <path class="st23" d="M0 198.4l21.1 47.8 98.7 5.7v255.3L0 664.3z"/>
  <path class="st24" d="M164.5 260.3l-3.1 214.4 136.4-138.6 70.7-.3-35-84.8z"/>
  <g>
    <path class="st4" d="M57.9 434.9s3 41.4 0 49c0 0 4.4-6.3 7.1-4.5 0 0-7.7-40.8-3.6-51l-3.5 6.5z"/>
    <path class="st20" d="M59.5 425.4s-16.4 15.2-12.6 24.4c0 0-7.4-25.7 12.6-24.4z"/>
    <path class="st25" d="M61.4 424.6s20.5 1 16.2 12.9c0 .1 9.3-23.4-16.2-12.9z"/>
    <path class="st20" d="M59.2 423.5s-12.6-12.1-20.3-.9c0-.1 9-23 20.3.9zM61.1 423.2s14.6-18.4 22.3-9.2c-.1-.1-12.7-17.9-22.3 9.2z"/>
    <path class="st26" d="M59.7 418.4s-6.3-16.9 4.1-15c0 0-5.4 9.3-4.1 15z"/>
    <g>
      <path class="st4" d="M42.3 474.6s3 41.4 0 49c0 0 4.4-6.3 7.1-4.5 0 0-7.7-40.8-3.6-51l-3.5 6.5z"/>
      <path class="st25" d="M43.9 465.1s-16.4 15.2-12.6 24.4c0 0-7.4-25.7 12.6-24.4z"/>
      <path class="st19" d="M45.8 464.3s20.5 1 16.2 12.9c0 0 9.3-23.4-16.2-12.9z"/>
      <path class="st25" d="M43.5 463.1s-12.6-12.1-20.3-.9c.1 0 9.1-23 20.3.9zM45.4 462.8s14.6-18.4 22.3-9.2c0 0-12.7-17.9-22.3 9.2z"/>
    </g>
  </g>
  <g>
    <path class="st4" d="M36.7 383.9s1.9 26.7 0 31.7c0 0 2.8-4.1 4.6-2.9 0 0-5-26.3-2.3-33l-2.3 4.2z"/>
    <path class="st20" d="M37.7 377.7s-10.6 9.8-8.1 15.8c0 0-4.8-16.6 8.1-15.8z"/>
    <path class="st25" d="M39 377.2s13.3.6 10.4 8.4c0 0 6-15.2-10.4-8.4z"/>
    <path class="st20" d="M37.5 376.5s-8.1-7.8-13.1-.6c0 0 5.9-14.9 13.1.6zM38.7 376.3s9.4-11.9 14.4-6c0 0-8.2-11.5-14.4 6z"/>
    <path class="st26" d="M37.9 373.2s-4.1-10.9 2.6-9.7c0 0-3.5 6-2.6 9.7z"/>
    <g>
      <path class="st4" d="M26.6 409.5s1.9 26.7 0 31.7c0 0 2.8-4.1 4.6-2.9 0 0-5-26.3-2.3-33l-2.3 4.2z"/>
      <path class="st25" d="M27.6 403.3s-10.6 9.8-8.1 15.8c0 0-4.8-16.6 8.1-15.8z"/>
      <path class="st19" d="M28.9 402.8s13.3.6 10.4 8.4c0 0 6-15.2-10.4-8.4z"/>
      <path class="st25" d="M27.4 402.1s-8.1-7.8-13.1-.6c0 0 5.9-14.9 13.1.6zM28.6 401.9s9.4-11.9 14.4-6c0 0-8.2-11.5-14.4 6z"/>
    </g>
  </g>
  <g>
    <path class="st4" d="M70.6 336.8s2 27.1 0 32.1c0 0 2.9-4.1 4.7-3 0 0-5-26.7-2.3-33.4l-2.4 4.3z"/>
    <path class="st20" d="M71.7 330.5s-10.7 9.9-8.2 16c-.1 0-4.9-16.8 8.2-16z"/>
    <path class="st25" d="M72.9 330s13.4.6 10.6 8.5c0 0 6.1-15.4-10.6-8.5z"/>
    <path class="st20" d="M71.4 329.2s-8.2-7.9-13.3-.6c.1 0 6-15 13.3.6zM72.7 329.1s9.6-12 14.6-6c0-.1-8.3-11.8-14.6 6z"/>
    <path class="st26" d="M71.8 325.9s-4.1-11.1 2.7-9.8c0 0-3.5 6.1-2.7 9.8z"/>
    <g>
      <path class="st4" d="M60.4 362.7s2 27.1 0 32.1c0 0 2.9-4.1 4.7-3 0 0-5-26.7-2.3-33.4l-2.4 4.3z"/>
      <path class="st25" d="M61.4 356.5s-10.7 9.9-8.2 16c0-.1-4.8-16.9 8.2-16z"/>
      <path class="st19" d="M62.7 356s13.4.6 10.6 8.5c0-.1 6.1-15.4-10.6-8.5z"/>
      <path class="st25" d="M61.2 355.2s-8.2-7.9-13.3-.6c0 0 6-15.1 13.3.6zM62.5 355s9.6-12 14.6-6c-.1 0-8.4-11.7-14.6 6z"/>
    </g>
  </g>
  <g>
    <path class="st4" d="M29.5 311s1.5 21.3 0 25.2c0 0 2.3-3.2 3.7-2.3 0 0-3.9-21-1.8-26.3l-1.9 3.4z"/>
    <path class="st20" d="M30.3 306.1s-8.5 7.8-6.5 12.6c.1 0-3.8-13.2 6.5-12.6z"/>
    <path class="st25" d="M31.3 305.7s10.6.5 8.3 6.7c0 0 4.8-12.1-8.3-6.7z"/>
    <path class="st20" d="M30.1 305.1s-6.5-6.2-10.4-.5c0 0 4.7-11.8 10.4.5zM31.1 305s7.5-9.5 11.5-4.8c0 0-6.5-9.2-11.5 4.8z"/>
    <path class="st26" d="M30.4 302.5s-3.3-8.7 2.1-7.7c0 0-2.7 4.8-2.1 7.7z"/>
    <g>
      <path class="st4" d="M21.4 331.4s1.5 21.3 0 25.2c0 0 2.3-3.2 3.7-2.3 0 0-3.9-21-1.8-26.3l-1.9 3.4z"/>
      <path class="st25" d="M22.3 326.5s-8.5 7.8-6.5 12.6c0 0-3.8-13.2 6.5-12.6z"/>
      <path class="st19" d="M23.3 326.1s10.6.5 8.3 6.7c0 0 4.8-12.1-8.3-6.7z"/>
      <path class="st25" d="M22.1 325.5s-6.5-6.2-10.4-.5c0 0 4.6-11.8 10.4.5zM23.1 325.4s7.5-9.5 11.5-4.8c-.1 0-6.6-9.2-11.5 4.8z"/>
    </g>
  </g>
  <path class="st19" d="M32 531.7l-9.5-13.5 7 6.5 5.2-14.6 2.2 10.7 9.8-3.7-5.4 6.6 5.4 3.4s-12.2 6.7-12.1 6.6c.1 0-2.6-2-2.6-2zM64.1 497.7l-9.5-13.5 7 6.5 5.2-14.6 2.2 10.7 9.8-3.7-5.4 6.6 5.4 3.4s-12.2 6.7-12.1 6.6c.1 0-2.6-2-2.6-2z"/>
  <path class="st19" d="M80.8 498.3l-9.5-13.5 7 6.5 5.2-14.6 2.2 10.7 9.8-3.7-5.4 6.6 5.4 3.4s-12.2 6.7-12.1 6.6c.1-.1-2.6-2-2.6-2zM82 447.4l-9.5-13.5 7 6.5 5.2-14.6 2.2 10.7 9.8-3.7-5.4 6.6 5.4 3.4s-12.2 6.7-12.1 6.6c.1-.1-2.6-2-2.6-2zM19.5 365.7l-6.2-8.8 4.6 4.3 3.4-9.5 1.4 7 6.4-2.4-3.5 4.3 3.5 2.2s-8 4.4-7.9 4.3-1.7-1.4-1.7-1.4z"/>
  <path class="st27" d="M180.7 391.6l-9.5-13.5 7 6.5 5.2-14.6 2.2 10.7 9.8-3.7-5.4 6.6 5.4 3.4s-12.2 6.7-12.1 6.6c.1-.1-2.6-2-2.6-2zM212.9 357.5l-9.5-13.5 7 6.5 5.2-14.6 2.2 10.7 9.8-3.7-5.4 6.6 5.4 3.4s-12.2 6.7-12.1 6.6c.1 0-2.6-2-2.6-2z"/>
  <path class="st27" d="M229.5 358.1l-9.5-13.5 7 6.5 5.2-14.6 2.2 10.7 9.8-3.7-5.4 6.6 5.4 3.4s-12.2 6.7-12.1 6.6c.1 0-2.6-2-2.6-2zM230.8 307.2l-9.5-13.5 7 6.5 5.2-14.6 2.2 10.7 9.8-3.7-5.4 6.6 5.4 3.4s-12.2 6.7-12.1 6.6c.1 0-2.6-2-2.6-2zM273.4 289.2l-9.5-13.5 7 6.5 5.2-14.6 2.2 10.7 9.8-3.7-5.4 6.6 5.4 3.4s-12.2 6.7-12.1 6.6-2.6-2-2.6-2zM263.3 335.3l-9.5-13.5 7 6.5 5.2-14.6 2.2 10.7 9.8-3.7-5.4 6.6 5.4 3.4s-12.2 6.7-12.1 6.6-2.6-2-2.6-2zM192.1 304.5l-6.8-9.7 5.1 4.7 3.7-10.5 1.6 7.7 7-2.7-3.9 4.8 3.9 2.5s-8.8 4.8-8.7 4.7c0-.1-1.9-1.5-1.9-1.5z"/>
  <path class="st19" d="M51.3 324.7l-6.8-9.7 5.1 4.7 3.7-10.5 1.6 7.7 7-2.7L58 319l3.9 2.5s-8.8 4.8-8.7 4.7c0-.1-1.9-1.5-1.9-1.5z"/>
  <g>
    <path class="st12" d="M429.6 669.4s2.5-14.9 22.4-5.3c.2.1.3.2.5.2 20.3 10.1-.3-.2-.3-.2s16.3-6.4 16.9 7.8c0 0 .8 3.6-8 1.7 0 0-5.2 1.5-4.5 4.3l-32.5-1.5s-6.1-7.3 2.3-7.1c0 .2 2.9 1.3 3.2.1z"/>
    <path class="st4" d="M447.9 704.5c-.2-.4.1-10.2-1.9-13.3 0 0 1.7-9.1-.8-12.1 0 0-5.6 1.2-9.1 0l-1.8-2.6 2.7 1.7 7.5-.1 2.6.4.7 12 .5 1.4v-4.4l3.4-4.9v-3l-3.2-.6 2.2-.2 1.8.4 1.5-2.6-1 3.2-.4 2.3 2.1-2.3 1-.7 1.1-2.5-.8 3.9-6.8 7.6 1.4 15.9-2.7.5z"/>
    <path class="st28" d="M431.8 670.3s2.5-14.9 22.4-5.3c.2.1.3.2.5.2 20.3 10.1-.3-.2-.3-.2s16.3-6.4 16.9 7.8c0 0 .8 3.6-8 1.7 0 0-5.2 1.5-4.5 4.3l-32.5-1.5s-6.1-7.3 2.3-7.1c0 .1 2.9 1.2 3.2.1z"/>
  </g>
  <g>
    <path class="st12" d="M267.1 678.7s-2.3-13.3-20-4.7c-.1.1-.3.1-.4.2-18.1 9 .3-.1.3-.1s-14.5-5.7-15.1 6.9c0 0-.7 3.2 7.1 1.5 0 0 4.6 1.3 4 3.8l29-1.3s5.4-6.5-2-6.3c-.1 0-2.6 1-2.9 0z"/>
    <path class="st4" d="M250.9 709.9c.2-.3-.1-9.1 1.7-11.8 0 0-1.5-8.1.7-10.7 0 0 5 1.1 8.1 0l1.6-2.3-2.4 1.5-6.7-.1-2.3.3-.6 10.7-.5 1.3v-3.9l-3-4.4v-2.6l2.8-.5-1.9-.2-1.6.3-1.4-2.3.9 2.9.4 2.1-1.8-2.1-.9-.7-1-2.2.7 3.5 6.1 6.8-1.3 14.1 2.4.3z"/>
    <path class="st28" d="M265.2 679.4s-2.3-13.3-20-4.7c-.1.1-.3.1-.4.2-18.1 9 .3-.1.3-.1s-14.5-5.7-15.1 6.9c0 0-.7 3.2 7.1 1.5 0 0 4.6 1.3 4 3.8l28.9-1.3s5.4-6.5-2-6.3c0 .1-2.5 1-2.8 0z"/>
  </g>
  <g>
    <path class="st12" d="M104.8 677.2s-2.3-13.3-20-4.7c-.1.1-.3.1-.4.2-18.1 9 .3-.1.3-.1s-14.5-5.7-15.1 6.9c0 0-.7 3.2 7.1 1.5 0 0 4.6 1.3 4 3.8l28.9-1.3s5.4-6.5-2-6.3c.1 0-2.5 1-2.8 0z"/>
    <path class="st4" d="M88.6 708.4c.2-.3-.1-9.1 1.7-11.8 0 0-1.5-8.1.7-10.7 0 0 5 1.1 8.1 0l1.6-2.3-2.4 1.5-6.7-.1-2.3.3-.7 10.7-.5 1.3v-3.9l-3-4.4v-2.6l2.8-.5-1.9-.2-1.6.3-1.4-2.3.9 2.9.4 2.1-1.8-2.1-.9-.7-1-2.2.7 3.5 6.1 6.8-1.3 14 2.5.4z"/>
    <path class="st28" d="M102.9 677.9s-2.3-13.3-20-4.7c-.1.1-.3.1-.4.2-18.1 9 .3-.1.3-.1s-14.5-5.7-15.1 6.9c0 0-.7 3.2 7.1 1.5 0 0 4.6 1.3 4 3.8l28.9-1.3s5.4-6.5-2-6.3c.1.1-2.5 1.1-2.8 0z"/>
  </g>
  <g>
    <path class="st4" d="M412.8 665.1V647l-2.7-4.1-7.2-4h2.6l.7-1.5 2.3 2.7 4.3 3.9-1.2-6.6-3.8-1.3 5 1.3 1.8-1.3-1.1 3.6 1.1 6.2 4.2-5.1-2.4-4.7 3.9 3.6 5.6-2.3-6.2 4.4-4.4 5.2.7 18.1z"/>
    <path class="st12" d="M407.3 628.7s-5.7-.8-8 3.2c0 0-6.6-.4-6 5.5 0 0 2.8.2 5-1.3 0 0-4.3 4.2 11.7 2.8 0 0 6.7-4 7.5 1.5 0 0 13.8 6.1 20.8 0 0 0-1.8-11-13.5-10.8-.1-.1-15-12.1-17.5-.9z"/>
  </g>
  <g>
    <path class="st12" d="M502.1 519.4s2.5-14.9 22.4-5.3c.2.1.3.2.5.2 20.3 10.1-.3-.2-.3-.2s16.3-6.4 16.9 7.8c0 0 .8 3.6-8 1.7 0 0-5.2 1.5-4.5 4.3l-32.5-1.5s-6.1-7.3 2.3-7.1c0 .2 2.9 1.3 3.2.1z"/>
    <path class="st4" d="M520.4 554.6c-.2-.4.1-10.2-1.9-13.3 0 0 1.7-9.1-.8-12.1 0 0-5.6 1.2-9.1 0l-1.8-2.6 2.7 1.7 7.5-.1 2.6.4.7 12 .5 1.4v-4.4l3.4-4.9v-3l-3.2-.6 2.2-.2 1.8.4 1.5-2.6-1 3.2-.4 2.3 2.1-2.3 1-.7 1.1-2.5-.8 3.9-6.8 7.6 1.4 15.9-2.7.5z"/>
    <path class="st28" d="M504.3 520.3s2.5-14.9 22.4-5.3c.2.1.3.2.5.2 20.3 10.1-.3-.2-.3-.2s16.3-6.4 16.9 7.8c0 0 .8 3.6-8 1.7 0 0-5.2 1.5-4.5 4.3l-32.5-1.5s-6.1-7.3 2.3-7.1c0 .1 2.9 1.2 3.2.1z"/>
  </g>
  <g>
    <path class="st4" d="M485.3 515.1V497l-2.7-4.1-7.2-4h2.6l.7-1.5 2.3 2.7 4.3 3.9-1.2-6.6-3.8-1.3 5 1.3 1.8-1.3-1.1 3.6 1.1 6.2 4.2-5.1-2.4-4.7 3.9 3.6 5.6-2.3-6.2 4.4-4.4 5.2.7 18.1z"/>
    <path class="st12" d="M479.8 478.7s-5.7-.8-8 3.2c0 0-6.6-.4-6 5.5 0 0 2.8.2 5-1.3 0 0-4.3 4.2 11.7 2.8 0 0 6.7-4 7.5 1.5 0 0 13.8 6.1 20.8 0 0 0-1.8-11-13.5-10.8-.1 0-15-12.1-17.5-.9z"/>
  </g>
  <g>
    <path class="st4" d="M211.2 692.6v-26.3l-3.8-6.1-10.6-5.8h3.8l1.1-2.2 3.3 4 6.2 5.6-1.8-9.6-5.4-1.8 7.2 1.8 2.6-1.8-1.5 5.2 1.5 9 6.2-7.4-3.6-6.8 5.7 5.2 8.3-3.4-9.1 6.5-6.4 7.6 1 26.3z"/>
    <path class="st12" d="M203.2 639.6s-8.3-1.2-11.6 4.6c0 0-9.6-.6-8.8 8 0 0 4.1.3 7.2-1.9 0 0-6.2 6.2 17.1 4 0 0 9.8-5.9 10.9 2.2 0 0 20.2 8.9 30.2 0 0 0-2.6-16-19.6-15.7 0 0-21.7-17.6-25.4-1.2z"/>
  </g>
  <g>
    <path class="st12" d="M418.4 484.5s4.4-25.6 38.6-9.1c.3.1.5.3.8.4 35 17.4-.6-.3-.6-.3s28.1-11 29.1 13.4c0 0 1.4 6.1-13.7 3 0 0-8.9 2.5-7.8 7.4l-55.9-2.5s-10.5-12.5 3.9-12.2c.1-.1 5.1 1.8 5.6-.1z"/>
    <path class="st4" d="M449.8 544.8c-.4-.6.2-17.6-3.2-22.9 0 0 2.8-15.7-1.4-20.8 0 0-9.6 2.1-15.6 0l-3-4.4 4.6 3 13-.2 4.4.6 1.2 20.7.9 2.4v-7.6l5.9-8.5V502l-5.6-1 3.7-.4 3 .6 2.7-4.4-1.8 5.5-.7 4 3.6-4 1.8-1.3 2-4.2-1.4 6.8-11.7 13.1 2.5 27.3-4.9.8z"/>
    <path class="st28" d="M422.1 485.9s4.4-25.6 38.6-9.1c.3.1.5.3.8.4 35 17.4-.6-.3-.6-.3s28.1-11 29.1 13.4c0 0 1.4 6.1-13.7 3 0 0-8.9 2.5-7.8 7.4l-55.9-2.5s-10.5-12.5 3.9-12.2c.1 0 5.1 1.9 5.6-.1z"/>
  </g>
  <path class="st24" d="M388 711.2l30.4 1-3.5-8s.7 5.7 0 5.3c-.7-.5-2.9-6.8-2.9-6.8v6.6l-1.6-11-2.6 10.3-1.7-6.5-2 5-2.1-3.9-.5 5-.8-6.5-4.5 8.5-.5-6.1-1.9 4.7-4-6.6v7.1l-2.5-2.3.7 4.2zM390.5 671.2l30.4 1-3.5-8s.7 5.7 0 5.3c-.7-.5-2.9-6.8-2.9-6.8v6.6l-1.6-11-2.6 10.3-1.7-6.5-2 5-2.1-3.9-.5 5-.8-6.5-4.5 8.5-.5-6.1-1.9 4.7-4-6.6v7.1l-2.5-2.3.7 4.2zM250.1 658.2l30.4 1-3.5-8s.7 5.7 0 5.3c-.7-.5-2.9-6.8-2.9-6.8v6.6l-1.6-11-2.6 10.3-1.7-6.5-2 5-2.1-3.9-.5 5-.8-6.5-4.5 8.5-.5-6.1-1.9 4.7-4-6.6v7.1l-2.5-2.3.7 4.2zM154.8 704.2l30.4 1-3.5-8s.7 5.7 0 5.3c-.7-.5-2.9-6.8-2.9-6.8v6.6l-1.6-11-2.6 10.3-1.6-6.6-2 5-2.1-3.9-.5 5-.8-6.5-4.5 8.5-.5-6.1-1.9 4.7-4-6.6v7.1l-2.5-2.3.6 4.3zM151.4 668.1l30.4 1-3.5-8s.7 5.7 0 5.3c-.7-.5-2.9-6.8-2.9-6.8v6.6l-1.6-11-2.6 10.3-1.7-6.5-2 5-2.1-3.9-.5 5-.8-6.5-4.5 8.5-.5-6.1-1.9 4.7-4-6.6v7.1l-2.5-2.3.7 4.2z"/>
  <path class="st24" d="M174.6 674.8l30.4 1-3.5-8s.7 5.7 0 5.3c-.7-.5-2.9-6.8-2.9-6.8v6.6l-1.6-11-2.6 10.3-1.7-6.5-2 5-2.1-3.9-.5 5-.8-6.5-4.5 8.5-.5-6.1-1.9 4.7-4-6.6v7.1l-2.5-2.3.7 4.2zM382.9 552.1l30.4 1-3.5-8s.7 5.7 0 5.3-2.9-6.8-2.9-6.8v6.6l-1.6-11-2.6 10.3-1.7-6.5-2 5-2.1-3.9-.5 5-.8-6.5-4.5 8.5-.5-6.1-1.9 4.7-4-6.6v7.1l-2.5-2.3.7 4.2zM460.5 535l30.4 1-3.5-8s.7 5.7 0 5.3c-.7-.5-2.9-6.8-2.9-6.8v6.6l-1.6-11-2.6 10.3-1.7-6.5-2 5-2.1-3.9-.5 5-.8-6.5-4.5 8.5-.5-6.1-1.9 4.7-4-6.6v7.1l-2.5-2.3.7 4.2z"/>
  <path class="st24" d="M471.6 545.1l30.4 1-3.5-8s.7 5.7 0 5.3-2.9-6.8-2.9-6.8v6.6l-1.6-11-2.6 10.3-1.7-6.5-2 5-2.1-3.9-.5 5-.8-6.5-4.5 8.5-.5-6.1-1.9 4.7-4-6.6v7.1l-2.5-2.3.7 4.2zM526.2 489.5l30.4 1-3.5-8s.7 5.7 0 5.3c-.7-.5-2.9-6.8-2.9-6.8v6.6l-1.6-11-2.6 10.3-1.7-6.5-2 5-2.1-3.9-.5 5-.8-6.5-4.5 8.5-.5-6.1-1.9 4.6-4-6.6v7.1l-2.5-2.3.7 4.3zM481.8 468.5l30.4 1-3.5-8s.7 5.7 0 5.3-2.9-6.8-2.9-6.8v6.6l-1.6-11-2.6 10.3-1.7-6.5-2 5-2.1-3.9-.5 5-.8-6.5-4.5 8.5-.5-6.1-1.9 4.7-4-6.6v7.1l-2.5-2.3.7 4.2zM234.5 546.4l30.4 1-3.5-8s.7 5.7 0 5.3c-.7-.5-2.9-6.8-2.9-6.8v6.6l-1.6-11-2.6 10.3-1.7-6.5-2 5-2.1-3.9-.5 5-.8-6.5-4.5 8.5-.5-6.1-1.9 4.7-4-6.6v7.1l-2.5-2.3.7 4.2zM221.5 529.7l30.4 1-3.5-8s.7 5.7 0 5.3c-.7-.5-2.9-6.8-2.9-6.8v6.6l-1.6-11-2.6 10.3-1.7-6.5-2 5-2.1-3.9-.5 5-.8-6.5-4.5 8.5-.5-6.1-1.9 4.7-4-6.6v7.1l-2.5-2.3.7 4.2z"/>
  <path class="st29" d="M647.9 587.8H184c-23.5 0-42.6-22.8-42.6-50.8V275.5c0-28.1 19.1-50.8 42.6-50.8h463.9c23.5 0 42.6 22.8 42.6 50.8V537c0 28-19 50.8-42.6 50.8z"/>
  <g>
    <path class="st30" d="M208.6 375H89.1c-6.6 0-12-5.4-12-12v-30c0-6.6 5.4-12 12-12h119.5c6.6 0 12 5.4 12 12v30c0 6.6-5.4 12-12 12z"/>
    <path class="st31" d="M205.9 372.3H88.4c-6.6 0-12-5.4-12-12V333c0-6.6 5.4-12 12-12h117.5c6.6 0 12 5.4 12 12v27.3c0 6.6-5.4 12-12 12z"/>
  </g>
  <g>
    <path class="st30" d="M658.6 114H539.1c-6.6 0-12-5.4-12-12V72c0-6.6 5.4-12 12-12h119.5c6.6 0 12 5.4 12 12v30c0 6.6-5.4 12-12 12z"/>
    <path class="st31" d="M655.9 111.3H538.4c-6.6 0-12-5.4-12-12V72c0-6.6 5.4-12 12-12h117.5c6.6 0 12 5.4 12 12v27.3c0 6.6-5.4 12-12 12z"/>
  </g>
  <g>
    <path class="st30" d="M973.6 500H854.1c-6.6 0-12-5.4-12-12v-30c0-6.6 5.4-12 12-12h119.5c6.6 0 12 5.4 12 12v30c0 6.6-5.4 12-12 12z"/>
    <path class="st31" d="M970.9 497.3H853.4c-6.6 0-12-5.4-12-12V458c0-6.6 5.4-12 12-12h117.5c6.6 0 12 5.4 12 12v27.3c0 6.6-5.4 12-12 12z"/>
  </g>
  <text transform="translate(542.598 89.616)" class="st32 st33">
    NORTH AMERICA
  </text>
  <text transform="translate(896.598 477.616)" class="st32 st33">
    ASIA
  </text>
  <text transform="matrix(.9854 0 0 1 108.598 343.35)">
    <tspan x="0" y="0" class="st32 st34">AUSTRALIA</tspan><tspan x="0" y="14.6" class="st32 st34">S. AMERICA</tspan>
  </text>
  <g>
    <path class="st12" d="M280.8 610.7s4.4-25.6 38.6-9.1c.3.1.5.3.8.4 35 17.4-.6-.3-.6-.3s28.1-11 29.1 13.4c0 0 1.4 6.1-13.7 3 0 0-8.9 2.5-7.8 7.4l-55.9-2.5s-10.5-12.5 3.9-12.2c.1 0 5 1.9 5.6-.1z"/>
    <path class="st4" d="M312.1 671.1c-.4-.6.2-17.6-3.2-22.9 0 0 2.8-15.7-1.4-20.8 0 0-9.6 2.1-15.6 0l-3-4.4 4.6 3 13-.2 4.4.6 1.2 20.7.9 2.4v-7.6l5.9-8.5v-5.1l-5.5-1.1 3.7-.4 3 .6 2.7-4.4-1.8 5.5-.7 4 3.6-4 1.8-1.3 2-4.2-1.4 6.8-11.7 13.1 2.5 27.3-5 .9z"/>
    <path class="st28" d="M284.4 612.2s4.4-25.6 38.6-9.1c.3.1.5.3.8.4 35 17.4-.6-.3-.6-.3s28.1-11 29.1 13.4c0 0 1.4 6.1-13.7 3 0 0-8.9 2.5-7.8 7.4l-55.9-2.5s-10.5-12.5 3.9-12.2c.1 0 5.1 1.8 5.6-.1z"/>
  </g>
  <path class="st24" d="M354.6 704.2l30.4 1-3.5-8s.7 5.7 0 5.3c-.7-.5-2.9-6.8-2.9-6.8v6.6l-1.6-11-2.6 10.3-1.7-6.5-2 5-2.1-3.9-.5 5-.8-6.5-4.5 8.5-.5-6.1-1.9 4.7-4-6.6v7.1l-2.5-2.3.7 4.2z"/>
  <g>
    <path class="st30" d="M380.6 703H261.1c-6.6 0-12-5.4-12-12v-30c0-6.6 5.4-12 12-12h119.5c6.6 0 12 5.4 12 12v30c0 6.6-5.4 12-12 12z"/>
    <path class="st31" d="M377.9 700.3H260.4c-6.6 0-12-5.4-12-12V661c0-6.6 5.4-12 12-12h117.5c6.6 0 12 5.4 12 12v27.3c0 6.6-5.4 12-12 12z"/>
  </g>
  <text transform="translate(261.598 677.616)" class="st32 st33">
    AFRICAN SAVANNA
  </text>
</svg>
