<svg id="Layer_1" data-name="Layer 1" xmlns="http://www.w3.org/2000/svg" width="1024" height="768" viewBox="0 0 1024 768"><defs><style>.cls-1{fill:#b6d7bb;}.cls-2{fill:#f1eedb;}.cls-3{fill:#d6d7b4;}.cls-4{fill:#e8e8d4;}.cls-5{fill:#7a6c53;}.cls-6{fill:#aab5b8;}.cls-7{fill:#d6cab9;}.cls-8{fill:#8b9da1;}.cls-9{fill:#ecf0f9;}.cls-10{fill:#5b6b6a;}.cls-11{fill:#959686;}.cls-12{fill:#6b7e72;}.cls-13{fill:#485755;}.cls-14{fill:#404f4d;}.cls-15{fill:#617270;}.cls-16{fill:#697b79;}.cls-17{fill:#8a9618;}.cls-18{fill:#a6a660;}.cls-19{fill:#c7c796;}.cls-20{fill:#7fa643;}.cls-21{fill:#517820;}.cls-22{fill:#868704;}.cls-23{fill:#f2e3a5;}.cls-24{fill:#a2cda9;}.cls-25{fill:#fec465;}.cls-26{fill:#669060;}.cls-27{fill:#709d2f;}.cls-28{fill:#f5e6c1;}.cls-29{fill:#657008;}.cls-30{fill:none;stroke:#d6cab9;stroke-miterlimit:10;stroke-width:34.91px;}.cls-31{fill:#29abe2;}.cls-32{fill:#9cd8f2;}.cls-33{isolation:isolate;}</style></defs><title>map-ipad-01</title><path class="cls-1" d="M.9,194l21.2,47.8,98.7,5.7V502.8L.9,659.8Zm164.5,61.9-3.1,214.4L298.7,331.6l70.7-.3-35-84.8Z"/><path class="cls-2" d="M565.3,634.4c-15,41.6-24.5,75.5-26.7,75.3-4.8-.4-537.8-.6-537.8-.6l116.9-110m48.6-50.9,43.5-93.8,125.5,55.5L598,358.2s-37.8,129.8-53.9,214"/><path class="cls-3" d="M579.1,720.6,616,615s90,.8,101.1-27.2V510.3l-8.5-183.2-7.4-66.7S774.1,419,1016.4,418.8V720.7H579.1Z"/><path class="cls-4" d="M585.4,720.6,622.2,615s90,.8,101.1-27.2V510.3l-8.5-183.2-7.4-66.7S780.3,419,1022.6,418.8V720.7H585.4Z"/><g id="_Group_" data-name="&lt;Group&gt;"><path class="cls-5" d="M913.4,653.5l2.7.2.1-.6Zm2.7.2-1.7,49.5,19.5-48.7Z"/><path class="cls-5" d="M916.2,653.1l-.1.6,17.8.8,1.7-4.1Zm19.1,1.4-16.2,59.6,22.8-59.3Z"/><path class="cls-5" d="M935.6,650.4l-1.7,4.1h1.4l1.2-4.3Z"/><path class="cls-5" d="M936.5,650.2l-1.2,4.3,6.6.3,2.1-5.6Z"/><path class="cls-6" d="M935.6,650.4l.9-.2,1.9-6.8Z"/><path class="cls-7" d="M936.5,650.2l7.5-1,7-18.2-8,1-4.6,11.4Z"/><path class="cls-7" d="M938.4,643.4,943,632l-1.6.2Z"/><path class="cls-7" d="M941.4,632.2l1.6-.2,4.8-12,3.7-.5-4.5-7.7Z"/><path class="cls-7" d="M947.8,620,943,632l8-1,2.9-7.4-2.4-4.1Z"/><path class="cls-6" d="M944,649.2l9.9-1.4L970,628.6,951,631Z"/><path class="cls-5" d="M1090.5,719.6,1056,660l-114.1-5.2-22.8,59.3,16.2-59.6h-1.4l-19.5,48.7,1.7-49.5-2.7-.2,2.8-.4.5-15.9-45,82.4Z"/><path class="cls-6" d="M970,628.6l48-6-28.8-16.8Z"/><path class="cls-6" d="M1047.7,640,1018,622.6l-48,6-16.1,19.2-9.9,1.4-2.1,5.6L1056,660l-4.6-7.9,5.3-6.9Z"/><path class="cls-8" d="M1012.5,575.8l-12.4-32.2-5.9,14.9Z"/><path class="cls-9" d="M1012.5,575.8l-18.3-17.4,6-14.9,12.3,32.3Zm-13.9,10.7,20.3-9.8,20.5,24.6-23.2-43.4-32.1-55.8-23.2,68.8-31.2,62.7,11.8-1.5,5.6-20.4,4.5,7.7,5-.7L976.2,555l22.4,31.5Z"/><path class="cls-6" d="M1033.5,620.7l-15.5,1.9,29.7,17.4,1.1-3.4Z"/><path class="cls-7" d="M1018,589.5l-.9-5.8-13.8,5.8,30.2,31.2,4.5-.6Z"/><path class="cls-6" d="M1003.3,589.5l13.8-5.8.9,5.8,20,30.6,10.8-1.3v-.1l-9.3-17.4L1019,576.7l-20.4,9.8-22.5-31.4-19.6,63.7-5,.7,2.4,4.1L951,631l19-2.4,19.2-22.8,28.8,16.8,15.5-1.9Z"/></g><path class="cls-10" d="M1026.7,390.7S766.3,364.8,711.2,205.8l-115.8-3.7L36.4,201S21.3,100.6,4.1,77.8V36.5H1026.7Z"/><path class="cls-6" d="M1024.2,385.2S763.8,359.3,708.7,200.3l-115.8-3.7-559-1.1S18.8,95.1,1.6,72.3V31H1024.2Z"/><path class="cls-3" d="M661.8,266.1V510.2s2,51.5-47.7,51.5H571.4Z"/><path class="cls-4" d="M665.6,268V512.1s2,51.5-47.7,51.5H575.2Z"/><g id="_Group_2" data-name="&lt;Group&gt;"><path class="cls-11" d="M242.3,123.8l11.1,22.7-17.3-23.4Z"/><path class="cls-11" d="M237.2,113.1l5.1,10.7-6.2-.7-2.9-3.9Z"/><path class="cls-12" d="M184,117.4l52.1,5.7,17.3,23.4-11.1-22.7,4.9.5,8.9,16.6,9.3-2,26.2,23.2h-152l28.7-42.3,5.1,6.1,4.6-9.1,4.2.5L178,126l6-8.6Zm-31.5,33.9,24-17.5-6.9-7.9Z"/><path class="cls-12" d="M236.7,104.6l10.6,19.7-5-.5-5.1-10.7-4,6.1,2.9,3.9L184,117.4,204.4,89l-8-3-.5,3-13.7,28.2-4.3-.5,3.5-6.9,13.9-27.4,11.8,5.1,13.1-16.1,11.4,45.3Z"/><path class="cls-8" d="M206.3,65.5l3.4,7.6L199.1,82Z"/><path class="cls-11" d="M204.4,89,184,117.4l-1.8-.2L195.9,89l.5-3Z"/><path class="cls-11" d="M184,117.4l-6.1,8.5,4.3-8.7Z"/><path class="cls-9" d="M177.9,116.7l19-43.9,18.7-28.6,13.5,35.3,18.2,44.9-10.6-19.7-5.1,12.1L220.2,71.4,207.1,87.5l-11.8-5-13.9,27.4-3.5,6.8Zm31.8-43.6-3.5-7.6L199.1,82Z"/><path class="cls-11" d="M176.4,133.8l-23.9,17.5,17-25.4Z"/></g><g id="_Group_3" data-name="&lt;Group&gt;"><path class="cls-5" d="M980,672.5l-2.4.1v-.4Zm-.8,38.7-17.3-38,15.7-.6Z"/><path class="cls-5" d="M977.6,672.2v.4l-15.7.6-1.5-3.2Zm-17,1.1L975,719.7l-20.1-46.2Z"/><path class="cls-5" d="M960.4,670l1.5,3.2-1.3.1-1-3.4Z"/><path class="cls-5" d="M960.6,673.3l-5.7.2-2-4.4,6.7.8Z"/><path class="cls-6" d="M958,664.6l2.4,5.4-.8-.1Z"/><path class="cls-7" d="M958,664.6l1.6,5.3-6.7-.8-6.2-14.2,7.2.8Z"/><path class="cls-7" d="M958,664.6l-4.1-8.9,1.3.1Zm-7.7-24.7,4.9,15.9-1.3-.1-4.3-9.4-3.3-.4Z"/><path class="cls-7" d="M949.6,646.3l4.3,9.4-7.2-.8-2.5-5.8,2.1-3.2Z"/><path class="cls-9" d="M938,608l27.6,48.9-10.4-1.2-4.9-15.9-4,6-4.4-.5-17.4-49.7-19.9,24.5-18-7.7-18.1,19.2,20.6-33.8,28.4-43.5Zm-29.5-9.7-5.3-11.6-10.9,25.2,16.2-13.6Z"/><path class="cls-6" d="M929.9,653l16.8,1.9,6.2,14.2-8.7-1.1Z"/><path class="cls-6" d="M929.9,653l-17-17.7-25.4,13.1-13.7-1.5,26.6-24.4L888.3,618l-.8,4.5-17.8,23.9-9.5-1,8.3-13.7,18.1-19.2,18,7.7,19.9-24.5,17.4,49.7,4.4.5-2.1,3.2,2.5,5.8Z"/><path class="cls-6" d="M912.9,635.3l17,17.7-42.4-4.6Z"/><path class="cls-6" d="M887.5,648.4l42.4,4.6,14.3,15,8.7,1.1,2,4.4-101.1,4,4.1-6.2-4.7-5.3,7.9-4.1Z"/><path class="cls-8" d="M903.3,586.7l5.2,11.6-16.2,13.6Z"/><path class="cls-7" d="M900.4,622.5l-26.6,24.4-4.1-.5,17.8-23.9.8-4.5Z"/><path class="cls-6" d="M887.5,648.4l-26.4,13.5-.9-2.6,13.6-12.4Z"/><path class="cls-5" d="M853.8,677.5l101.1-4L975,719.7l-14.4-46.4,1.3-.1,17.3,38-1.6-38.6,2.4-.1-2.4-.3-.5-12.5,39.9,64.4H823.3Z"/><path class="cls-7" d="M873.8,646.9l-13.6,12.4,9.5-12.9Z"/><path class="cls-6" d="M869.7,646.4l-9.5,12.9.9,2.6-7.9,4.1-5.9-6.7-4.6,12.1-13.9,7.1,11.3-.4-17.6,46H793.6L845.5,650l7.7,9.2,7-13.8Zm-1.2-14.7-8.3,13.7,5.3-10.6Z"/><path class="cls-5" d="M857.9,671.3l-4.1,6.2-13.7.6,2.6-6.7,10.5-5.4Zm-4.1,6.2-30.5,46.6h-.8l17.6-46Z"/><path class="cls-6" d="M853.2,666l-10.5,5.4,4.6-12.1Zm-10.5,5.4-2.6,6.7-11.3.4Z"/><path class="cls-5" d="M823.3,724.1l-1.9,2.9,1.1-2.9Z"/></g><path class="cls-13" d="M304,82.2c4.1,2.9,12.8-9.8,12.8-9.8s2.9,9.7,8.7,10.3"/><path class="cls-13" d="M302.5,88.8c4.7,3.4,14.6-11.3,14.6-11.3s3.3,11.1,9.9,11.8"/><path class="cls-13" d="M298.6,99.1c6.1,4.4,18.9-14.6,18.9-14.6s4.3,14.4,12.8,15.2"/><path class="cls-14" d="M304.3,101.9c4.1,2.9,12.8-9.8,12.8-9.8s2.9,9.7,8.7,10.3"/><path class="cls-14" d="M302.8,108.5c4.7,3.4,14.6-11.3,14.6-11.3s3.3,11.1,9.9,11.8"/><path class="cls-14" d="M298.9,118.9c6.1,4.4,18.9-14.6,18.9-14.6s4.3,14.4,12.8,15.2"/><path class="cls-13" d="M280.3,77.2c4.1,2.9,12.8-9.8,12.8-9.8s2.9,9.7,8.7,10.3"/><path class="cls-13" d="M278.8,83.8c4.7,3.4,14.6-11.3,14.6-11.3s3.3,11.1,9.9,11.8"/><path class="cls-13" d="M274.9,94.2c6.1,4.4,18.9-14.6,18.9-14.6s4.3,14.4,12.8,15.2"/><path class="cls-14" d="M276.7,116.7c4.1,2.9,12.8-9.8,12.8-9.8s2.9,9.7,8.7,10.3"/><path class="cls-14" d="M275.2,123.2c4.7,3.4,14.6-11.3,14.6-11.3s3.3,11.1,9.9,11.8"/><path class="cls-14" d="M271.3,133.6c6.1,4.4,18.9-14.6,18.9-14.6s4.3,14.4,12.8,15.2"/><path class="cls-13" d="M328.4,94.4c4.1,2.9,12.8-9.8,12.8-9.8s2.9,9.7,8.7,10.3"/><path class="cls-13" d="M326.9,100.9c4.7,3.4,14.6-11.3,14.6-11.3s3.3,11.1,9.9,11.8"/><path class="cls-13" d="M323,111.3c6.1,4.4,18.9-14.6,18.9-14.6s4.3,14.4,12.8,15.2"/><path class="cls-14" d="M359.1,90.9c4.1,2.9,12.8-9.8,12.8-9.8s2.9,9.7,8.7,10.3"/><path class="cls-14" d="M357.6,97.5c4.7,3.4,14.6-11.3,14.6-11.3s3.3,11.1,9.9,11.8"/><path class="cls-14" d="M353.7,107.9c6.1,4.4,18.9-14.6,18.9-14.6s4.3,14.4,12.8,15.2"/><path class="cls-13" d="M336.9,96.7c4.1,2.9,12.8-9.8,12.8-9.8s2.9,9.7,8.7,10.3"/><path class="cls-13" d="M335.4,103.3C340.1,106.7,350,92,350,92s3.3,11.1,9.9,11.8"/><path class="cls-13" d="M331.4,113.7c6.1,4.4,18.9-14.6,18.9-14.6s4.3,14.4,12.8,15.2"/><path class="cls-14" d="M389.8,105.2c4.1,2.9,12.8-9.8,12.8-9.8s2.9,9.7,8.7,10.3"/><path class="cls-14" d="M388.3,111.7c4.7,3.4,14.6-11.3,14.6-11.3s3.3,11.1,9.9,11.8"/><path class="cls-14" d="M384.4,122.1c6.1,4.4,18.9-14.6,18.9-14.6s4.3,14.4,12.8,15.2"/><path class="cls-13" d="M350.4,99.1c4.1,2.9,12.8-9.8,12.8-9.8s2.9,9.7,8.7,10.3"/><path class="cls-13" d="M348.9,105.6c4.7,3.4,14.6-11.3,14.6-11.3s3.3,11.1,9.9,11.8"/><path class="cls-13" d="M344.9,116c6.1,4.4,18.9-14.6,18.9-14.6s4.3,14.4,12.8,15.2"/><path class="cls-14" d="M390,86.9c4.1,2.9,12.8-9.8,12.8-9.8s2.9,9.7,8.7,10.3"/><path class="cls-14" d="M388.5,93.5c4.7,3.4,14.6-11.3,14.6-11.3S406.4,93.3,413,94"/><path class="cls-14" d="M384.6,103.8c6.1,4.4,18.9-14.6,18.9-14.6s4.3,14.4,12.8,15.2"/><path class="cls-13" d="M371.1,95.8c4.1,2.9,12.8-9.8,12.8-9.8s2.9,9.7,8.7,10.3"/><path class="cls-13" d="M369.6,102.4c4.7,3.4,14.6-11.3,14.6-11.3s3.3,11.1,9.9,11.8"/><path class="cls-13" d="M365.6,112.8c6.1,4.4,18.9-14.6,18.9-14.6s4.3,14.4,12.8,15.2"/><path class="cls-14" d="M410.5,80.7c4.1,2.9,12.8-9.8,12.8-9.8s2.9,9.7,8.7,10.3"/><path class="cls-14" d="M409,87.2c4.7,3.4,14.6-11.3,14.6-11.3s3.3,11.1,9.9,11.8"/><path class="cls-14" d="M405.1,97.6C411.2,102,424,83,424,83s4.3,14.4,12.8,15.2"/><path class="cls-15" d="M390,157.3c5.1,3.6,15.8-12.2,15.8-12.2s3.6,12,10.7,12.7"/><path class="cls-15" d="M388.1,165.4c5.8,4.2,18.1-13.9,18.1-13.9s4.1,13.8,12.3,14.6"/><path class="cls-15" d="M383.2,178.2c7.6,5.4,23.4-18,23.4-18s5.3,17.8,15.9,18.8"/><path class="cls-16" d="M362.4,174.2c5.1,3.6,15.8-12.2,15.8-12.2s3.6,12,10.7,12.7"/><path class="cls-16" d="M360.5,182.4c5.8,4.2,18.1-13.9,18.1-13.9s4.1,13.8,12.3,14.6"/><path class="cls-16" d="M355.7,195.2c7.6,5.4,23.4-18,23.4-18S384.4,195,395,196m-19.8-31.2c5.1,3.6,15.8-12.2,15.8-12.2s3.6,12,10.7,12.7"/><path class="cls-16" d="M373.3,172.9c5.8,4.2,18.1-13.9,18.1-13.9s4.1,13.8,12.3,14.6"/><path class="cls-16" d="M368.5,185.8c7.6,5.4,23.4-18,23.4-18s5.3,17.8,15.9,18.8m-85.4-21.8c5.1,3.6,15.8-12.2,15.8-12.2s3.6,12,10.7,12.7"/><path class="cls-16" d="M320.6,172.9c5.8,4.2,18.1-13.9,18.1-13.9s4.1,13.8,12.3,14.6"/><path class="cls-16" d="M315.7,185.8c7.6,5.4,23.4-18,23.4-18s5.3,17.8,15.9,18.8"/><path class="cls-10" d="M148.5,154c5.1,3.6,15.8-12.2,15.8-12.2s3.6,12,10.7,12.7"/><path class="cls-10" d="M146.6,162.1c5.8,4.2,18.1-13.9,18.1-13.9s4.1,13.8,12.3,14.6"/><path class="cls-10" d="M141.7,174.9c7.6,5.4,23.4-18,23.4-18s5.3,17.8,15.9,18.8"/><path class="cls-14" d="M196.8,146.7c5.1,3.6,15.8-12.2,15.8-12.2s3.6,12,10.7,12.7"/><path class="cls-14" d="M194.9,154.8c5.8,4.2,18.1-13.9,18.1-13.9s4.1,13.8,12.3,14.6"/><path class="cls-14" d="M190.1,167.6c7.6,5.4,23.4-18,23.4-18s5.3,17.8,15.9,18.8"/><g id="_Group_4" data-name="&lt;Group&gt;"><path class="cls-11" d="M861,122.7l11.1,22.7L854.8,122Zm-9.2-4.6,4-6,5.2,10.6-6.2-.7Z"/><path class="cls-12" d="M802.7,116.3l52.1,5.7,17.3,23.4L861,122.7l4.9.5,8.9,16.6,9.3-2L910.3,161H758.2l28.7-42.3,5.1,6.1,4.6-9.1,4.2.5-4.2,8.7,6.1-8.6Zm-31.5,33.9,24-17.5-6.9-7.9Z"/><path class="cls-12" d="M851.8,118.1l3,3.9-52.1-5.7,20.4-28.4-8-3-.5,3-13.8,28.2-4.2-.5,3.5-6.9L814,81.4l11.8,5,13.1-16.1,11.4,45.3,5.1-12.1,10.5,19.8-4.9-.6-5.2-10.6Z"/><path class="cls-8" d="M824.9,64.4l3.5,7.6-10.6,8.9Z"/><path class="cls-11" d="M823.1,87.9l-20.4,28.4-1.9-.2,13.8-28.2.5-3Z"/><path class="cls-11" d="M802.7,116.3l-6.1,8.5,4.2-8.7Z"/><path class="cls-9" d="M850.3,115.6,838.9,70.2,825.8,86.3l-11.8-5-13.9,27.4-3.5,6.9,19-43.9,18.7-28.6,13.5,35.3L866,123.3l-10.6-19.7-5.1,12ZM828.4,72l-3.5-7.6-7.2,16.5Z"/><path class="cls-11" d="M795.1,132.7l-23.9,17.5,17-25.4Z"/></g><path class="cls-16" d="M993.9,163.7c5.1,3.6,15.8-12.2,15.8-12.2s3.6,12,10.7,12.7"/><path class="cls-16" d="M992,171.9c5.8,4.2,18.1-13.9,18.1-13.9s4.1,13.8,12.3,14.6"/><path class="cls-16" d="M987.1,184.7c7.6,5.4,23.4-18,23.4-18s5.3,17.8,15.9,18.8m-85.3-21.8c5.1,3.6,15.8-12.2,15.8-12.2s3.6,12,10.7,12.7"/><path class="cls-16" d="M939.3,171.9c5.8,4.2,18.1-13.9,18.1-13.9s4.1,13.8,12.3,14.6"/><path class="cls-16" d="M934.4,184.7c7.6,5.4,23.4-18,23.4-18s5.3,17.8,15.9,18.8"/><path class="cls-10" d="M767.1,152.9c5.1,3.6,15.8-12.2,15.8-12.2s3.6,12,10.7,12.7"/><path class="cls-10" d="M765.3,161c5.8,4.2,18.1-13.9,18.1-13.9s4.1,13.8,12.3,14.6"/><path class="cls-10" d="M760.4,173.8c7.6,5.4,23.4-18,23.4-18s5.3,17.8,15.9,18.8"/><path class="cls-14" d="M815.5,145.6c5.1,3.6,15.8-12.2,15.8-12.2s3.6,12,10.7,12.7"/><path class="cls-14" d="M813.6,153.7c5.8,4.2,18.1-13.9,18.1-13.9s4.1,13.8,12.3,14.6"/><path class="cls-14" d="M808.8,166.6c7.6,5.4,23.4-18,23.4-18s5.3,17.8,15.9,18.8"/><path class="cls-7" d="M302.3,211.4s-3.1-10.1-7.4-10.1S304.2,193.8,302.3,211.4Z"/><path class="cls-7" d="M312.2,193.8s-9.5,1.1-9.9,17.6C302.3,211.4,309.3,192.4,312.2,193.8Zm-14.4,0s4.6,3.9,3.9,6S304.3,193.3,297.8,193.8ZM324.4,205s-3.1-10.1-7.4-10.1S326.3,187.4,324.4,205Z"/><path class="cls-7" d="M334.3,187.4s-9.5,1.1-9.9,17.6C324.4,205,331.4,186,334.3,187.4Zm-14.4,0s4.6,3.9,3.9,6S326.4,186.9,319.9,187.4Zm26.7,27s-3.1-10.1-7.4-10.1S348.5,196.8,346.6,214.4Z"/><path class="cls-7" d="M356.5,196.8s-9.5,1.1-9.9,17.6C346.6,214.4,353.6,195.4,356.5,196.8Zm-14.4,0s4.6,3.9,3.9,6S348.6,196.3,342.1,196.8Zm-57.9,12.9s-3.1-10.1-7.4-10.1S286.1,192.1,284.2,209.7Z"/><path class="cls-7" d="M294.1,192.1s-9.5,1.1-9.9,17.6C284.2,209.7,291.2,190.7,294.1,192.1Zm-14.4,0s4.6,3.9,3.9,6S286.2,191.6,279.7,192.1Zm26.6,11.2s-3.1-10.1-7.4-10.1C294.8,193.3,308.3,185.7,306.3,203.3Z"/><path class="cls-7" d="M316.2,185.7s-9.5,1.1-9.9,17.6C306.3,203.3,313.3,184.3,316.2,185.7Zm-14.3,0s4.6,3.9,3.9,6S308.4,185.2,301.9,185.7Zm26.6,27.1s-3.1-10.1-7.4-10.1C317,202.7,330.5,195.2,328.5,212.8Z"/><path class="cls-7" d="M338.4,195.2s-9.5,1.1-9.9,17.6C328.5,212.8,335.5,193.7,338.4,195.2Zm-14.3-.1s4.6,3.9,3.9,6S330.6,194.6,324.1,195.1Zm181.1-19.8S502,165,497.6,165,507.2,157.2,505.2,175.3Z"/><path class="cls-7" d="M515.4,157.2s-9.7,1.1-10.2,18.1C505.2,175.3,512.4,155.7,515.4,157.2Zm-14.8-.1s4.7,4,4,6.2S507.3,156.7,500.6,157.1Zm31.6,34.8s-3.2-10.3-7.6-10.3S534.1,173.8,532.2,191.9Z"/><path class="cls-7" d="M542.3,173.8s-9.7,1.1-10.2,18.1C532.2,191.9,539.4,172.3,542.3,173.8Zm-14.7-.1s4.7,4,4,6.2S534.2,173.3,527.6,173.7ZM555,201.6s-3.2-10.3-7.6-10.3S557,183.5,555,201.6Z"/><path class="cls-7" d="M565.2,183.5s-9.7,1.1-10.2,18.1C555,201.6,562.2,182,565.2,183.5Zm-14.8-.1s4.7,4,4,6.2S557.1,183,550.4,183.4Zm-63.8-9.8s-3.2-10.3-7.6-10.3S488.6,155.5,486.6,173.6Z"/><path class="cls-7" d="M496.8,155.5s-9.7,1.1-10.2,18.1C486.6,173.6,493.8,154,496.8,155.5Zm-14.8-.1s4.7,4,4,6.2S488.7,154.9,482,155.4ZM509.3,167s-3.2-10.3-7.6-10.3S511.3,148.9,509.3,167Z"/><path class="cls-7" d="M519.5,148.9s-9.7,1.1-10.2,18.1C509.3,167,516.6,147.4,519.5,148.9Zm-14.8-.1s4.7,4,4,6.2S511.4,148.4,504.7,148.8Zm31.7,51s-3.2-10.3-7.6-10.3S538.4,181.7,536.4,199.8Z"/><path class="cls-7" d="M546.6,181.7s-9.7,1.1-10.2,18.1C536.4,199.8,543.6,180.3,546.6,181.7Zm-14.8,0s4.7,4,4,6.2S538.5,181.2,531.8,181.7Zm29,3.6s-3.2-10.3-7.6-10.3S562.8,167.2,560.8,185.3Z"/><path class="cls-7" d="M571,167.2s-9.7,1.1-10.2,18.1C560.8,185.3,568.1,165.7,571,167.2Zm-14.7-.1s4.7,4,4,6.2S562.9,166.6,556.3,167.1Zm27.3,11.6s-3.2-10.3-7.6-10.3S585.6,160.6,583.6,178.7Z"/><path class="cls-7" d="M593.8,160.6s-9.7,1.1-10.2,18.1C583.6,178.7,590.8,159.1,593.8,160.6Zm-14.8-.1s4.7,4,4,6.2S585.7,160.1,579,160.5Zm27.4,27.9s-3.2-10.3-7.6-10.3S608.4,170.3,606.4,188.4Z"/><path class="cls-7" d="M616.6,170.3s-9.7,1.1-10.2,18.1C606.4,188.4,613.6,168.8,616.6,170.3Zm-14.8-.1s4.7,4,4,6.2S608.5,169.7,601.8,170.2Zm-59.5,13.3s-3.2-10.3-7.6-10.3S544.3,165.4,542.3,183.5Z"/><path class="cls-7" d="M552.5,165.4s-9.7,1.1-10.2,18.1C542.3,183.5,549.5,164,552.5,165.4Zm-14.8,0s4.7,4,4,6.2S544.3,164.9,537.7,165.4ZM565,177s-3.2-10.3-7.6-10.3S567,158.9,565,177Z"/><path class="cls-7" d="M575.2,158.9S565.5,160,565,177C565,177,572.2,157.4,575.2,158.9Zm-14.8-.1s4.7,4,4,6.2S567.1,158.3,560.4,158.8Zm27.4,27.8s-3.2-10.3-7.6-10.3S589.8,168.5,587.8,186.6Z"/><path class="cls-7" d="M598,168.5s-9.7,1.1-10.2,18.1C587.8,186.6,595,167.1,598,168.5Zm-14.8,0s4.7,4,4,6.2S589.9,168,583.2,168.5Zm38.8,2.6s-3.2-10.3-7.6-10.3S624,153,622,171.1Z"/><path class="cls-7" d="M632.2,153s-9.7,1.1-10.2,18.1C622,171.1,629.2,151.6,632.2,153Zm-14.8,0s4.7,4,4,6.2S624.1,152.5,617.4,153Zm-23.6,3.3s-3.2-10.3-7.6-10.3S595.7,138.2,593.8,156.3Z"/><path class="cls-7" d="M603.9,138.2s-9.7,1.1-10.2,18.1C593.8,156.3,601,136.8,603.9,138.2Zm-14.7,0s4.7,4,4,6.2S595.8,137.7,589.2,138.2Z"/><path class="cls-7" d="M637.6,210.4s-3.2-10.3-7.6-10.3S639.6,192.3,637.6,210.4Z"/><path class="cls-7" d="M647.8,192.3s-9.7,1.1-10.2,18.1C637.6,210.4,644.8,190.8,647.8,192.3Zm-14.8-.1s4.7,4,4,6.2S639.7,191.8,633,192.2Z"/><path class="cls-7" d="M603.1,169.6s-3.2-10.3-7.6-10.3S605,151.5,603.1,169.6Z"/><path class="cls-7" d="M613.2,151.5s-9.7,1.1-10.2,18.1C603.1,169.6,610.3,150.1,613.2,151.5Zm-14.7-.1s4.7,4,4,6.2S605.1,151,598.5,151.4Z"/><path class="cls-7" d="M656.2,169.2s-3.2-10.3-7.6-10.3S658.2,151.1,656.2,169.2Z"/><path class="cls-7" d="M666.4,151.1s-9.7,1.1-10.2,18.1C656.2,169.2,663.4,149.7,666.4,151.1Zm-14.8,0s4.7,4,4,6.2S658.3,150.6,651.6,151.1Z"/><path class="cls-7" d="M669.7,183.9s-3.2-10.3-7.6-10.3S671.7,165.8,669.7,183.9Z"/><path class="cls-7" d="M679.9,165.8s-9.7,1.1-10.2,18.1C669.7,183.9,676.9,164.3,679.9,165.8Zm-14.8-.1s4.7,4,4,6.2S671.8,165.3,665.1,165.7Z"/><path class="cls-7" d="M308.4,160.1S305.3,150,301,150,310.3,142.5,308.4,160.1Z"/><path class="cls-7" d="M318.3,142.5s-9.5,1.1-9.9,17.6C308.4,160.1,315.4,141.1,318.3,142.5Zm-14.4,0s4.6,3.9,3.9,6S310.4,142,303.9,142.5Z"/><path class="cls-7" d="M330.5,153.7s-3.1-10.1-7.4-10.1C319,143.7,332.5,136.1,330.5,153.7Z"/><path class="cls-7" d="M340.5,136.1s-9.5,1.1-9.9,17.6C330.5,153.7,337.6,134.7,340.5,136.1Zm-14.4,0s4.6,3.9,3.9,6S332.6,135.6,326.1,136.1Z"/><path class="cls-7" d="M352.7,163.1s-3.1-10.1-7.4-10.1C341.2,153.1,354.7,145.5,352.7,163.1Z"/><path class="cls-7" d="M362.7,145.5s-9.5,1.1-9.9,17.6C352.7,163.1,359.8,144.1,362.7,145.5Zm-14.4,0s4.6,3.9,3.9,6S354.8,145,348.3,145.5Z"/><path class="cls-7" d="M200.6,195.6s-3.1-10.1-7.4-10.1S202.5,178,200.6,195.6Z"/><path class="cls-7" d="M210.5,178s-9.5,1.1-9.9,17.6C200.6,195.6,207.6,176.5,210.5,178Zm-14.4-.1s4.6,3.9,3.9,6S202.6,177.5,196.1,177.9Z"/><path class="cls-7" d="M187.6,192.8s-3.1-10.1-7.4-10.1S189.5,175.2,187.6,192.8Z"/><path class="cls-7" d="M197.5,175.2s-9.5,1.1-9.9,17.6C187.6,192.8,194.6,173.7,197.5,175.2Zm-14.4-.1s4.6,3.9,3.9,6S189.6,174.7,183.1,175.1Z"/><path class="cls-7" d="M194.2,188.1s-3.1-10.1-7.4-10.1C182.7,178,196.2,170.5,194.2,188.1Z"/><path class="cls-7" d="M204.1,170.5s-9.5,1.1-9.9,17.6C194.2,188.1,201.3,169.1,204.1,170.5Zm-14.3-.1s4.6,3.9,3.9,6S196.3,170,189.8,170.4Z"/><path class="cls-7" d="M238.8,188.3s-3.1-10.1-7.4-10.1S240.7,170.7,238.8,188.3Z"/><path class="cls-7" d="M248.7,170.7s-9.5,1.1-9.9,17.6C238.8,188.3,245.8,169.3,248.7,170.7Zm-14.4-.1s4.6,3.9,3.9,6S240.8,170.2,234.3,170.6Z"/><path class="cls-7" d="M225.8,185.5s-3.1-10.1-7.4-10.1S227.7,167.9,225.8,185.5Z"/><path class="cls-7" d="M235.7,167.9s-9.5,1.1-9.9,17.6C225.8,185.5,232.8,166.5,235.7,167.9Zm-14.4-.1s4.6,3.9,3.9,6S227.8,167.4,221.3,167.8Z"/><path class="cls-7" d="M232.5,180.8s-3.1-10.1-7.4-10.1S234.4,163.2,232.5,180.8Z"/><path class="cls-7" d="M242.4,163.2s-9.5,1.1-9.9,17.6C232.5,180.8,239.5,161.8,242.4,163.2Zm-14.4-.1s4.6,3.9,3.9,6S234.5,162.7,228,163.1Z"/><g id="_Group_5" data-name="&lt;Group&gt;"><path class="cls-17" d="M799.2,520.3s2.5,2.1,8.3-.8c0,0-1.7,8-9.7,5.1l-1.7-.6c-1.3-1.6-2.6-1.9-3.6-1.7C792.5,522.2,791.8,517.6,799.2,520.3Z"/><path class="cls-17" d="M803.9,540.1c-2.4-.7-8.1-3.3-10.1-13.1,0,0-2.1-4.3-3.7-3.2a4.55,4.55,0,0,1,2.5-1.5c1-.2,2.3.1,3.6,1.7a16.19,16.19,0,0,1,2.4,4.8C798.5,528.7,801.1,538.3,803.9,540.1Z"/><path class="cls-18" d="M789.1,527.9c-1.7,4.8.9,25.3.9,25.3a3.15,3.15,0,0,1-3.7,1.4c.5-.6.9-1,.9-1-3-1.5-3.3-20.9-3.3-20.9-.1.4-.3.8-.4,1.2q-.15-1.35-.3-2.4c0-.1.1-.2.1-.3a7.35,7.35,0,0,1-.2-.8c-.1-.8-.2-1.3-.2-1.3C784,531.5,789.1,527.9,789.1,527.9Zm-1.8-20.7c-.7,2.7,1.3,19,1.3,19-3.6,3-5.8,1.7-5.8,1.7,1-.9-.7-20.7-.8-22.2C782.3,507.9,787.3,507.2,787.3,507.2Z"/><path class="cls-19" d="M783.8,532.7s.3,19.4,3.3,20.9a10.52,10.52,0,0,1-.9,1,7.13,7.13,0,0,1-2.5-1.4c1.2-3.2.3-13.3-.3-19.4A3.58,3.58,0,0,0,783.8,532.7Z"/><path class="cls-19" d="M783.4,533.9c.7,6.1,1.5,16.1.3,19.4a7.13,7.13,0,0,0,2.5,1.4c-1.3,1.4-3.8,3.6-5.1,2.8a5,5,0,0,1-.1-1.1,1.24,1.24,0,0,0,.3-.2,3.33,3.33,0,0,1-.3-.6c-.1-1.7-.3-4.6-.6-7.5a114,114,0,0,1,1.3-11.8,5,5,0,0,0,1.7-2.4Zm-2.5-10.5c.4,5,.9,9.5.9,9.5-1.6,2.3-3.3,2.7-4.5,2.5.1-1.9-.6-5.9-1.5-10.1,0-5.1-.3-10.9-.5-14a14.1,14.1,0,0,0,1.8-1.4h.7C777.8,512.3,779.4,518.3,780.9,523.4Z"/><path class="cls-19" d="M781.8,536.3c-.4,2.6-1.1,7.5-1.3,11.8-.4-4.4-1.2-9-2.6-10.5a4.82,4.82,0,0,0,3.9-1.3Z"/><path class="cls-18" d="M780.7,509.1c-.7,1.4-.3,8.3.1,14.3-1.5-5-3.1-11.1-3.1-13.6A10.19,10.19,0,0,0,780.7,509.1Zm-1.1-27.3c-1.7,4.8.9,25.3.9,25.3a2.82,2.82,0,0,1-2.6,1.5,4,4,0,0,1-1.5-.3,15.67,15.67,0,0,0,1.7-1.8c-3-1.5-3.3-20.9-3.3-20.9a6.78,6.78,0,0,1-.8,1.9c-.3-2.6-.5-4.5-.6-4.6,1.1,2.6,6.2-1.1,6.2-1.1Z"/><path class="cls-19" d="M783.2,531.5c-2.2,5.7-6,4.5-6,4.5,0-.2.1-.4.1-.6,1.3.2,2.9-.1,4.5-2.5,0,0-.5-4.4-.9-9.5.9,3.1,1.8,5.8,2.2,7a4.49,4.49,0,0,0,.1,1.1Z"/><path class="cls-18" d="M777.9,537.6c1.4,1.6,2.1,6.2,2.6,10.5-.2,3.2-.1,6,.6,7.5a1.48,1.48,0,0,0,.1.7c-1.1.5-4.8,2.2-6.1.4-.3-.4,2.6-16,.5-20.5a4.34,4.34,0,0,0,6.6-1.7q0,.15-.3,1.8a5.07,5.07,0,0,1-4,1.3Zm0-76.5c-.7,2.7,1.3,19,1.3,19-3.6,3-5.8,1.7-5.8,1.7,1-.9-.7-20.7-.8-22.2C772.8,461.8,777.9,461.1,777.9,461.1Zm-2.2,64.1c.9,4.2,1.6,8.3,1.5,10.1a4.08,4.08,0,0,1-2.1-1C775.6,533.2,775.8,529.5,775.7,525.2Z"/><path class="cls-19" d="M776.3,508.4c-.3.3-.7.6-1,.9-.1,0-.1-.1-.2-.2v.3c-1.1.9-2.3,1.5-3.1,1-.3-.2-.5-16.6-3.3-19.8a5.09,5.09,0,0,0,5.2-3c.7,6,1.6,16.3.4,19.6a11.28,11.28,0,0,0,2,1.2Zm-1,2.8c.2,3.1.4,8.9.5,14-1.4-6.4-3.2-13.3-3.2-13.3C773.3,512.2,774.3,511.8,775.3,511.2Z"/><path class="cls-19" d="M774.7,485.7s.3,19.4,3.3,20.9a15.67,15.67,0,0,1-1.7,1.8,6.76,6.76,0,0,1-2.1-1.2c1.2-3.3.3-13.5-.4-19.6a6.63,6.63,0,0,0,.9-1.9Z"/><path class="cls-17" d="M771.8,459.4s-.7,7.6-4.1,11.2c0,0-2.2,6.2-1.2,11.7-.6-3.2-3.1-17.2,3.2-23h2.1Z"/><path class="cls-17" d="M771.8,459.4h-2.1c-3.1-3-6.4,13.1-6.4,13.1-.3-11,3.5-15.6,3.5-15.6A5.84,5.84,0,0,1,771.8,459.4Z"/></g><g id="_Group_6" data-name="&lt;Group&gt;"><path class="cls-17" d="M668.7,449.5s2.3,1.4,7.4-.5c0,0-1.5,5.1-8.6,3.3l-1.5-.4a4.15,4.15,0,0,0-3.2-1.1c-.1,0-.7-3,5.9-1.3Z"/><path class="cls-17" d="M672.9,462.3a11.56,11.56,0,0,1-9-8.4s-1.9-2.7-3.3-2.1a4.3,4.3,0,0,1,2.2-1,4,4,0,0,1,3.2,1.1,9.16,9.16,0,0,1,2.2,3.1c-.1-.1,2.2,6.1,4.7,7.3Z"/><path class="cls-18" d="M659.7,454.4c-1.5,3.1.8,16.3.8,16.3a3.45,3.45,0,0,1-3.3.9c.5-.4.8-.6.8-.6-2.7-1-3-13.5-3-13.5a3,3,0,0,1-.4.8,10,10,0,0,1-.2-1.6c0-.1.1-.1.1-.2a4.21,4.21,0,0,1-.2-.5c-.1-.5-.1-.8-.2-.9,1.1,1.7,5.6-.7,5.6-.7Zm-1.5-13.3c-.6,1.7,1.1,12.3,1.1,12.3-3.2,2-5.1,1.1-5.1,1.1.9-.6-.6-13.4-.7-14.3C653.7,441.6,658.2,441.1,658.2,441.1Z"/><path class="cls-19" d="M655.1,457.5s.3,12.5,3,13.5a4.52,4.52,0,0,1-.8.6,11.13,11.13,0,0,1-2.3-.9c1-2.1.3-8.6-.3-12.5a5.73,5.73,0,0,1,.4-.7Z"/><path class="cls-19" d="M654.7,458.3c.6,3.9,1.4,10.4.3,12.5a8.83,8.83,0,0,0,2.3.9c-1.2.9-3.4,2.3-4.6,1.8a2.44,2.44,0,0,1-.1-.7.77.77,0,0,1,.3-.1,1.38,1.38,0,0,1-.3-.4c-.1-1.1-.2-2.9-.5-4.8a50.72,50.72,0,0,1,1.2-7.6,7.62,7.62,0,0,0,1.4-1.6Zm-2.3-6.8c.4,3.2.8,6.1.8,6.1a4.75,4.75,0,0,1-4.1,1.6c.1-1.2-.6-3.8-1.4-6.5,0-3.3-.3-7-.4-9a11.42,11.42,0,0,0,1.6-.9h.6a51,51,0,0,0,2.9,8.7Z"/><path class="cls-19" d="M653.2,459.9a50.72,50.72,0,0,0-1.2,7.6c-.4-2.8-1.1-5.8-2.3-6.8a6.14,6.14,0,0,0,3.5-.8Z"/><path class="cls-18" d="M652.3,442.3c-.6.9-.3,5.3.1,9.2-1.3-3.2-2.7-7.1-2.8-8.7A13.76,13.76,0,0,0,652.3,442.3Zm-1-17.5c-1.5,3.1.8,16.3.8,16.3a2.91,2.91,0,0,1-2.4,1,6.75,6.75,0,0,1-1.4-.2c.9-.6,1.5-1.1,1.5-1.1-2.7-1-3-13.5-3-13.5a3.46,3.46,0,0,1-.7,1.2c-.3-1.7-.5-2.9-.5-3,1.1,1.6,5.7-.7,5.7-.7Z"/><path class="cls-19" d="M649.2,459.2a4.94,4.94,0,0,0,4.1-1.6s-.4-2.8-.8-6.1c.8,2,1.6,3.7,1.9,4.5,0,.2.1.4.1.7-2,3.7-5.3,2.9-5.3,2.9S649.2,459.4,649.2,459.2Z"/><path class="cls-18" d="M647.5,459.8s3.6,1.9,5.9-1.1a10.22,10.22,0,0,1-.3,1.1,5.33,5.33,0,0,1-3.5.8c1.2,1,1.9,4,2.3,6.8-.1,2-.1,3.9.5,4.8v.5c-1,.3-4.3,1.4-5.5.3,0-.2,2.6-10.3.6-13.2Zm2.2-48.4c-.6,1.7,1.1,12.3,1.1,12.3-3.2,2-5.1,1.1-5.1,1.1.9-.6-.6-13.4-.7-14.3C645.2,411.9,649.7,411.4,649.7,411.4Zm-1.9,41.3a30.63,30.63,0,0,1,1.4,6.5,4.1,4.1,0,0,1-1.9-.7C647.7,457.9,647.8,455.4,647.8,452.7Z"/><path class="cls-19" d="M648.4,441.9l-.9.6c-.1,0-.1-.1-.2-.1v.2c-1,.6-2.1,1-2.8.7-.3-.1-.4-10.7-3-12.8a5.41,5.41,0,0,0,4.7-1.9c.6,3.9,1.4,10.5.3,12.6,0-.1.8.4,1.9.7Zm-1,1.8c.1,2,.4,5.7.4,9-1.2-4.1-2.8-8.5-2.8-8.5a4.34,4.34,0,0,0,2.4-.5Z"/><path class="cls-19" d="M646.9,427.2s.3,12.5,3,13.5a7.46,7.46,0,0,1-1.5,1.1,8.31,8.31,0,0,1-1.8-.8c1.1-2.1.3-8.7-.3-12.6A6.65,6.65,0,0,0,646.9,427.2Z"/><path class="cls-17" d="M644.3,410.3s-.6,4.9-3.7,7.2c0,0-2,4-1,7.6-.6-2-2.7-11.1,2.9-14.8h1.8Z"/><path class="cls-17" d="M644.3,410.3h-1.8c-2.8-2-5.8,8.5-5.8,8.5-.3-7.1,3.1-10.1,3.1-10.1C643,408.7,644.2,410.2,644.3,410.3Z"/></g><g id="_Group_7" data-name="&lt;Group&gt;"><path class="cls-20" d="M772.7,564.9c.5-.4,1-.7,1.5-1.1a61.35,61.35,0,0,0-5.6,9.3l-.1-.1c2.2-4.5,4.2-7.9,4.2-8.1h0Zm-4.1,8.3a30.19,30.19,0,0,0-3,8.9l-1.5,4.7a12.5,12.5,0,0,0-1,2.2v-.7c.7-4.6,3.1-10.5,5.4-15.2l.1.1Z"/><path class="cls-21" d="M772.7,565c-.1.1-2.1,3.6-4.3,8.1-2.3,4.7-4.7,10.6-5.4,15.2C763.5,585.4,765.5,573.5,772.7,565Z"/><path class="cls-20" d="M763,587.9s2.1-16.6,9.7-22.9c-7.2,8.6-9.2,20.5-9.6,23.4v.7a17.7,17.7,0,0,0-.6,1.7c0-.2.1-.4.1-.7a10.86,10.86,0,0,1,.4-2.2Z"/><path class="cls-22" d="M763.1,589c.5-1.1,1-2.1,1-2.2l-.8,2.3s-1,5.1-1.6,9.2c.2-2.4.5-5.5.8-7.6A7,7,0,0,1,763.1,589Z"/><path class="cls-20" d="M761.3,575.9a12,12,0,0,1,.7,3.1s.8,9.9-.4,16.1l-.1,4.6c-.1,1.2-.2,2.3-.2,2.9a31.6,31.6,0,0,1,0-8.1l.5-8.4s0-8-1.2-8.5c0,0-1.7-1.6-3.6-7.2a15.81,15.81,0,0,0-1.7-2.6c.7.4,5.5,3.9,6,8.1Z"/><path class="cls-20" d="M761.5,599.7v1c-.1,1.2-.1,1.9-.1,1.9A15.32,15.32,0,0,1,761.5,599.7Z"/></g><g id="_Group_8" data-name="&lt;Group&gt;"><path class="cls-20" d="M747.8,561.4c-.5-.4-1-.7-1.5-1.1a61.35,61.35,0,0,1,5.6,9.3l.1-.1a78.53,78.53,0,0,0-4.2-8.1Zm4.2,8.2a30.19,30.19,0,0,1,3,8.9l1.5,4.7a12.5,12.5,0,0,1,1,2.2v-.7c-.7-4.6-3.1-10.5-5.4-15.2l-.1.1Z"/><path class="cls-21" d="M757.5,584.7c-.4-2.9-2.4-14.8-9.6-23.4.1.1,2.1,3.6,4.3,8.1,2.2,4.8,4.6,10.7,5.3,15.3Z"/><path class="cls-20" d="M747.8,561.4c7.2,8.6,9.2,20.5,9.6,23.4v.7a17.7,17.7,0,0,1,.6,1.7c0-.2-.1-.4-.1-.7-.2-1.1-.3-1.9-.4-2.2,0,0-2.1-16.6-9.7-22.9Z"/><path class="cls-22" d="M756.5,583.3l.8,2.3s1.1,5.1,1.6,9.2c-.2-2.4-.5-5.5-.8-7.7a7,7,0,0,0-.6-1.7A13.89,13.89,0,0,0,756.5,583.3Z"/><path class="cls-20" d="M759.2,572.3a12,12,0,0,0-.7,3.1s-.8,9.9.4,16.1l.1,4.7c.1,1.2.2,2.3.2,2.9a31.6,31.6,0,0,0,0-8.1l-.5-8.4s0-8,1.2-8.5c0,0,1.7-1.6,3.6-7.2a15.81,15.81,0,0,1,1.7-2.6C764.6,564.6,759.8,568.1,759.2,572.3Z"/><path class="cls-20" d="M759,596.1v1c.1,1.2.1,1.9.1,1.9A9.86,9.86,0,0,0,759,596.1Z"/></g><g id="_Group_9" data-name="&lt;Group&gt;"><path class="cls-20" d="M755.3,556.9c-.5-.4-1-.7-1.5-1.1a61.35,61.35,0,0,1,5.6,9.3l.1-.1a78.53,78.53,0,0,0-4.2-8.1Z"/><path class="cls-20" d="M759.4,565.1a30.19,30.19,0,0,1,3,8.9l1.5,4.7a12.5,12.5,0,0,1,1,2.2v-.7c-.7-4.6-3.1-10.5-5.4-15.2l-.1.1Z"/><path class="cls-21" d="M764.9,580.2c-.4-2.9-2.4-14.8-9.6-23.4.1.1,2.1,3.6,4.3,8.1,2.2,4.8,4.7,10.7,5.3,15.3Z"/><path class="cls-20" d="M765,579.8s-2.1-16.6-9.7-22.9c7.2,8.6,9.2,20.5,9.6,23.4v.7a17.7,17.7,0,0,1,.6,1.7c0-.2-.1-.4-.1-.7a6.49,6.49,0,0,0-.4-2.2Z"/><path class="cls-22" d="M766.3,590.3c-.2-2.4-.5-5.5-.8-7.7a7,7,0,0,0-.6-1.7c-.5-1.1-1-2.1-1-2.2l.8,2.3c0,.1,1.1,5.2,1.6,9.3Z"/><path class="cls-20" d="M766.7,567.8a12,12,0,0,0-.7,3.1s-.8,9.9.4,16.1l.1,4.7c.1,1.2.2,2.3.2,2.9a31.6,31.6,0,0,0,0-8.1l-.5-8.4s0-8,1.2-8.5c0,0,1.7-1.6,3.6-7.2a15.81,15.81,0,0,1,1.7-2.6C772.1,560.1,767.3,563.6,766.7,567.8Z"/><path class="cls-20" d="M766.5,591.6v1c.1,1.2.1,1.9.1,1.9A9.86,9.86,0,0,0,766.5,591.6Z"/></g><g id="_Group_10" data-name="&lt;Group&gt;"><path class="cls-20" d="M822.1,525.5c.5-.4,1-.7,1.5-1.1a61.35,61.35,0,0,0-5.6,9.3l-.1-.1c2.1-4.5,4.1-8,4.2-8.1Zm-4.2,8.2a30.19,30.19,0,0,0-3,8.9l-1.5,4.7a12.5,12.5,0,0,0-1,2.2v-.7c.7-4.6,3.1-10.5,5.4-15.2l.1.1Z"/><path class="cls-21" d="M822.1,525.5c-.1.1-2.1,3.6-4.3,8.1-2.3,4.7-4.7,10.6-5.4,15.2C812.8,546,814.9,534.1,822.1,525.5Z"/><path class="cls-20" d="M812.4,549.2h0v.2a17.7,17.7,0,0,0-.6,1.7c0-.2.1-.4.1-.7.2-1.1.3-1.9.4-2.2,0,0,2.1-16.6,9.7-22.9-7.2,8.6-9.2,20.5-9.6,23.4v.5Z"/><path class="cls-22" d="M813.4,547.4l-.8,2.3s-1,5.1-1.6,9.2c.2-2.4.5-5.5.8-7.6a7,7,0,0,1,.6-1.7C812.9,548.5,813.4,547.5,813.4,547.4Z"/><path class="cls-20" d="M810.7,536.4a12,12,0,0,1,.7,3.1s.8,9.9-.4,16.1l-.1,4.6c-.1,1.2-.2,2.3-.2,2.9a31.6,31.6,0,0,1,0-8.1l.5-8.4s0-8-1.2-8.5c0,0-1.7-1.6-3.6-7.2a15.81,15.81,0,0,0-1.7-2.6c.6.5,5.4,4,6,8.1Z"/><path class="cls-20" d="M810.9,560.2v1c-.1,1.2-.1,1.9-.1,1.9A9.9,9.9,0,0,1,810.9,560.2Z"/></g><g id="_Group_11" data-name="&lt;Group&gt;"><path class="cls-20" d="M797.2,521.9c-.5-.4-1-.7-1.5-1.1a61.35,61.35,0,0,1,5.6,9.3l.1-.1c-2.2-4.5-4.2-8-4.2-8.1Zm4.1,8.3a30.19,30.19,0,0,1,3,8.9l1.5,4.7a12.5,12.5,0,0,1,1,2.2v-.7c-.7-4.6-3.1-10.5-5.4-15.2l-.1.1Z"/><path class="cls-21" d="M806.8,545.3c-.4-2.9-2.4-14.8-9.6-23.4.1.1,2.1,3.6,4.3,8.1,2.2,4.8,4.6,10.7,5.3,15.3Z"/><path class="cls-20" d="M797.2,521.9c7.2,8.6,9.2,20.5,9.6,23.4v.7a17.7,17.7,0,0,1,.6,1.7c0-.2-.1-.4-.1-.7-.2-1.1-.3-1.9-.4-2.2,0,.1-2.1-16.6-9.7-22.9Z"/><path class="cls-22" d="M806.8,546c-.5-1.1-1-2.1-1-2.2l.8,2.3s1.1,5.1,1.6,9.2c-.2-2.4-.5-5.5-.8-7.7A8.23,8.23,0,0,0,806.8,546Z"/><path class="cls-20" d="M808.6,532.8a12,12,0,0,0-.7,3.1s-.8,9.9.4,16.1l.1,4.7c.1,1.2.2,2.3.2,2.9a31.6,31.6,0,0,0,0-8.1L808,543s0-8,1.2-8.5c0,0,1.7-1.6,3.6-7.2a15.81,15.81,0,0,1,1.7-2.6C813.9,525.2,809.1,528.7,808.6,532.8Z"/><path class="cls-20" d="M808.4,556.7v1c.1,1.2.1,1.9.1,1.9A15.14,15.14,0,0,0,808.4,556.7Z"/></g><g id="_Group_12" data-name="&lt;Group&gt;"><path class="cls-20" d="M804.6,517.4c-.5-.4-1-.7-1.5-1.1a61.35,61.35,0,0,1,5.6,9.3l.1-.1c-2.1-4.5-4.1-8-4.2-8.1Zm4.2,8.3a30.19,30.19,0,0,1,3,8.9l1.5,4.7a12.5,12.5,0,0,1,1,2.2v-.7c-.7-4.6-3.1-10.5-5.4-15.2l-.1.1Z"/><path class="cls-21" d="M814.3,540.8c-.4-2.9-2.4-14.8-9.6-23.4.1.1,2.1,3.6,4.3,8.1,2.2,4.8,4.6,10.7,5.3,15.3Z"/><path class="cls-20" d="M814.4,540.4s-2.1-16.6-9.7-22.9c7.2,8.6,9.2,20.5,9.6,23.4v.7a17.7,17.7,0,0,1,.6,1.7c0-.2-.1-.4-.1-.7a10.86,10.86,0,0,0-.4-2.2Z"/><path class="cls-22" d="M815.7,550.8c-.2-2.4-.5-5.5-.8-7.7a7,7,0,0,0-.6-1.7c-.5-1.1-1-2.1-1-2.2l.8,2.3c0,.1,1,5.3,1.6,9.3Z"/><path class="cls-20" d="M816,528.3a12,12,0,0,0-.7,3.1s-.8,9.9.4,16.1l.1,4.7c.1,1.2.2,2.3.2,2.9a31.6,31.6,0,0,0,0-8.1l-.5-8.4s0-8,1.2-8.5c0,0,1.7-1.6,3.6-7.2a15.81,15.81,0,0,1,1.7-2.6C821.4,520.7,816.6,524.2,816,528.3Z"/><path class="cls-20" d="M815.8,552.2v1c.1,1.2.1,1.9.1,1.9A7.28,7.28,0,0,0,815.8,552.2Z"/></g><g id="_Group_13" data-name="&lt;Group&gt;"><path class="cls-20" d="M835.1,566.2c.5-.4,1-.7,1.5-1.1a61.35,61.35,0,0,0-5.6,9.3l-.1-.1a78.53,78.53,0,0,1,4.2-8.1Zm-4.2,8.2a30.19,30.19,0,0,0-3,8.9l-1.5,4.7a12.5,12.5,0,0,0-1,2.2v-.7c.7-4.6,3.1-10.5,5.4-15.2l.1.1Z"/><path class="cls-21" d="M835.1,566.2c-.1.1-2.1,3.6-4.3,8.1-2.3,4.7-4.7,10.6-5.4,15.2C825.8,586.6,827.9,574.7,835.1,566.2Z"/><path class="cls-20" d="M825.4,589.9v.2a17.7,17.7,0,0,0-.6,1.7c0-.2.1-.4.1-.7.2-1.1.3-1.9.4-2.2,0,0,2.1-16.6,9.7-22.9-7.2,8.6-9.2,20.5-9.6,23.4v.5Z"/><path class="cls-22" d="M826.4,588.1l-.8,2.3s-1,5.1-1.6,9.2c.2-2.4.5-5.5.8-7.6a7,7,0,0,1,.6-1.7A12.5,12.5,0,0,1,826.4,588.1Z"/><path class="cls-20" d="M823.6,577.1a12,12,0,0,1,.7,3.1s.8,9.9-.4,16.1l-.1,4.6c-.1,1.2-.2,2.3-.2,2.9a31.6,31.6,0,0,1,0-8.1l.5-8.4s0-8-1.2-8.5c0,0-1.7-1.6-3.6-7.2a15.81,15.81,0,0,0-1.7-2.6c.7.4,5.5,3.9,6,8.1Z"/><path class="cls-20" d="M823.9,600.9v1c-.1,1.2-.1,1.9-.1,1.9A7.29,7.29,0,0,1,823.9,600.9Z"/></g><g id="_Group_14" data-name="&lt;Group&gt;"><path class="cls-20" d="M810.1,562.6c-.5-.4-1-.7-1.5-1.1a61.35,61.35,0,0,1,5.6,9.3l.1-.1c-2.1-4.5-4.1-8-4.2-8.1Zm4.2,8.2a30.19,30.19,0,0,1,3,8.9l1.5,4.7a12.5,12.5,0,0,1,1,2.2v-.7c-.7-4.6-3.1-10.5-5.4-15.2l-.1.1Z"/><path class="cls-21" d="M819.8,585.9c-.4-2.9-2.4-14.8-9.6-23.4.1.1,2.1,3.6,4.3,8.1,2.2,4.8,4.6,10.7,5.3,15.3Z"/><path class="cls-20" d="M810.1,562.6c7.2,8.6,9.2,20.5,9.6,23.4v.7a17.7,17.7,0,0,1,.6,1.7c0-.2-.1-.4-.1-.7-.2-1.1-.3-1.9-.4-2.2.1,0-2.1-16.6-9.7-22.9Z"/><path class="cls-22" d="M819.8,586.6c-.5-1.1-1-2.1-1-2.2l.8,2.3s1.1,5.1,1.6,9.2c-.2-2.4-.5-5.5-.8-7.7A8.23,8.23,0,0,0,819.8,586.6Z"/><path class="cls-20" d="M821.5,573.5a12,12,0,0,0-.7,3.1s-.8,9.9.4,16.1l.1,4.7c.1,1.2.2,2.3.2,2.9a31.6,31.6,0,0,0,0-8.1l-.5-8.4s0-8,1.2-8.5c0,0,1.7-1.6,3.6-7.2a15.81,15.81,0,0,1,1.7-2.6C826.9,565.9,822.1,569.3,821.5,573.5Z"/><path class="cls-20" d="M821.3,597.3v1c.1,1.2.1,1.9.1,1.9A7.29,7.29,0,0,0,821.3,597.3Z"/></g><g id="_Group_15" data-name="&lt;Group&gt;"><path class="cls-20" d="M817.6,558.1c-.5-.4-1-.7-1.5-1.1a61.35,61.35,0,0,1,5.6,9.3l.1-.1c-2.1-4.5-4.1-8-4.2-8.1Zm4.2,8.2a30.19,30.19,0,0,1,3,8.9l1.5,4.7a12.5,12.5,0,0,1,1,2.2v-.7c-.7-4.6-3.1-10.5-5.4-15.2l-.1.1Z"/><path class="cls-21" d="M827.3,581.4c-.4-2.9-2.4-14.8-9.6-23.4.1.1,2.1,3.6,4.3,8.1,2.2,4.8,4.6,10.7,5.3,15.3Z"/><path class="cls-20" d="M827.3,581s-2.1-16.6-9.7-22.9c7.2,8.6,9.2,20.5,9.6,23.4v.7a17.7,17.7,0,0,1,.6,1.7c0-.2-.1-.4-.1-.7a6.49,6.49,0,0,0-.4-2.2Z"/><path class="cls-22" d="M828.7,591.5c-.2-2.4-.5-5.5-.8-7.7a7,7,0,0,0-.6-1.7c-.5-1.1-1-2.1-1-2.2l.8,2.3c-.1.1,1,5.2,1.6,9.3Z"/><path class="cls-20" d="M829,569a12,12,0,0,0-.7,3.1s-.8,9.9.4,16.1l.1,4.7c.1,1.2.2,2.3.2,2.9a31.6,31.6,0,0,0,0-8.1l-.5-8.4s0-8,1.2-8.5c0,0,1.7-1.6,3.6-7.2A15.81,15.81,0,0,1,835,561C834.4,561.4,829.6,564.8,829,569Z"/><path class="cls-20" d="M828.8,592.8v1c.1,1.2.1,1.9.1,1.9A9.9,9.9,0,0,0,828.8,592.8Z"/></g><g id="_Group_16" data-name="&lt;Group&gt;"><path class="cls-20" d="M651.2,671.2c.5-.4,1-.7,1.5-1.1a61.35,61.35,0,0,0-5.6,9.3l-.1-.1a78.53,78.53,0,0,1,4.2-8.1Zm-4.2,8.2a30.19,30.19,0,0,0-3,8.9l-1.5,4.7a12.5,12.5,0,0,0-1,2.2v-.7c.7-4.6,3.1-10.5,5.4-15.2l.1.1Z"/><path class="cls-21" d="M651.2,671.2c-.1.1-2.1,3.6-4.3,8.1-2.3,4.7-4.7,10.6-5.4,15.2C642,691.6,644,679.7,651.2,671.2Z"/><path class="cls-20" d="M641.5,694.9v.2a17.7,17.7,0,0,0-.6,1.7c0-.2.1-.4.1-.7.2-1.1.3-1.9.4-2.2,0,0,2.1-16.6,9.7-22.9-7.2,8.6-9.2,20.5-9.6,23.4v.5h0Z"/><path class="cls-22" d="M642.5,693.1l-.8,2.3s-1,5.1-1.6,9.2c.2-2.4.5-5.5.8-7.6a7,7,0,0,1,.6-1.7C642,694.1,642.5,693.1,642.5,693.1Z"/><path class="cls-20" d="M639.8,682.1a12,12,0,0,1,.7,3.1s.8,9.9-.4,16.1l-.1,4.6c-.1,1.2-.2,2.3-.2,2.9a31.6,31.6,0,0,1,0-8.1l.5-8.4s0-8-1.2-8.5c0,0-1.7-1.6-3.6-7.2a15.81,15.81,0,0,0-1.7-2.6c.6.4,5.4,3.9,6,8.1Z"/><path class="cls-20" d="M640,705.9v1c-.1,1.2-.1,1.9-.1,1.9A9.86,9.86,0,0,1,640,705.9Z"/></g><g id="_Group_17" data-name="&lt;Group&gt;"><path class="cls-20" d="M626.3,667.6c-.5-.4-1-.7-1.5-1.1a61.35,61.35,0,0,1,5.6,9.3l.1-.1c-2.1-4.6-4.2-8-4.2-8.1Z"/><path class="cls-20" d="M630.4,675.8a30.19,30.19,0,0,1,3,8.9l1.5,4.7a12.5,12.5,0,0,1,1,2.2v-.7c-.7-4.6-3.1-10.5-5.4-15.2l-.1.1Z"/><path class="cls-21" d="M635.9,690.9c-.4-2.9-2.4-14.8-9.6-23.4.1.1,2.1,3.6,4.3,8.1,2.2,4.8,4.6,10.7,5.3,15.3Z"/><path class="cls-20" d="M626.3,667.6c7.2,8.6,9.2,20.5,9.6,23.4v.7a17.7,17.7,0,0,1,.6,1.7c0-.2-.1-.4-.1-.7-.2-1.1-.3-1.9-.4-2.2,0,0-2.1-16.6-9.7-22.9Z"/><path class="cls-22" d="M635.9,691.6c-.5-1.1-1-2.1-1-2.2l.8,2.3s1.1,5.1,1.6,9.2c-.2-2.4-.5-5.5-.8-7.7A8.23,8.23,0,0,0,635.9,691.6Z"/><path class="cls-20" d="M637.7,678.5a12,12,0,0,0-.7,3.1s-.8,9.9.4,16.1l.1,4.7c.1,1.2.2,2.3.2,2.9a31.6,31.6,0,0,0,0-8.1l-.5-8.4s0-8,1.2-8.5c0,0,1.7-1.6,3.6-7.2a15.81,15.81,0,0,1,1.7-2.6C643,670.8,638.2,674.3,637.7,678.5Z"/><path class="cls-20" d="M637.5,702.3v1c.1,1.2.1,1.9.1,1.9A15.32,15.32,0,0,0,637.5,702.3Z"/></g><g id="_Group_18" data-name="&lt;Group&gt;"><path class="cls-20" d="M633.7,663.1c-.5-.4-1-.7-1.5-1.1a61.35,61.35,0,0,1,5.6,9.3l.1-.1a78.53,78.53,0,0,0-4.2-8.1Zm4.2,8.2a30.19,30.19,0,0,1,3,8.9l1.5,4.7a12.5,12.5,0,0,1,1,2.2v-.7c-.7-4.6-3.1-10.5-5.4-15.2l-.1.1Z"/><path class="cls-21" d="M643.4,686.4c-.4-2.9-2.4-14.8-9.6-23.4.1.1,2.1,3.6,4.3,8.1,2.2,4.8,4.6,10.7,5.3,15.3Z"/><path class="cls-20" d="M643.5,686s-2.1-16.6-9.7-22.9c7.2,8.6,9.2,20.5,9.6,23.4v.7a17.7,17.7,0,0,1,.6,1.7c0-.2-.1-.4-.1-.7a10.86,10.86,0,0,0-.4-2.2Z"/><path class="cls-22" d="M644.8,696.5c-.2-2.4-.5-5.5-.8-7.7a7,7,0,0,0-.6-1.7c-.5-1.1-1-2.1-1-2.2l.8,2.3c0,.1,1,5.2,1.6,9.3Z"/><path class="cls-20" d="M645.2,674a12,12,0,0,0-.7,3.1s-.8,9.9.4,16.1l.1,4.7c.1,1.2.2,2.3.2,2.9a31.6,31.6,0,0,0,0-8.1l-.5-8.4s0-8,1.2-8.5c0,0,1.7-1.6,3.6-7.2a15.81,15.81,0,0,1,1.7-2.6C650.5,666.3,645.7,669.8,645.2,674Z"/><path class="cls-20" d="M644.9,697.8v1c.1,1.2.1,1.9.1,1.9A7.29,7.29,0,0,0,644.9,697.8Z"/></g><g id="_Group_19" data-name="&lt;Group&gt;"><path class="cls-20" d="M733,647.8c.5-.4,1-.7,1.5-1.1a61.35,61.35,0,0,0-5.6,9.3l-.1-.1a78.53,78.53,0,0,1,4.2-8.1Z"/><path class="cls-20" d="M728.9,656a30.19,30.19,0,0,0-3,8.9l-1.5,4.7a12.5,12.5,0,0,0-1,2.2v-.7c.7-4.6,3.1-10.5,5.4-15.2l.1.1Z"/><path class="cls-21" d="M733,647.8c-.1.1-2.1,3.6-4.3,8.1-2.3,4.7-4.7,10.6-5.4,15.2C723.8,668.2,725.8,656.3,733,647.8Z"/><path class="cls-20" d="M723.3,671.5v.2a17.7,17.7,0,0,0-.6,1.7c0-.2.1-.4.1-.7.2-1.1.3-1.9.4-2.2,0,0,2.1-16.6,9.7-22.9-7.2,8.6-9.2,20.5-9.6,23.4v.5h0Z"/><path class="cls-22" d="M724.4,669.7l-.8,2.3s-1,5.1-1.6,9.2c.2-2.4.5-5.5.8-7.6a7,7,0,0,1,.6-1.7A7.53,7.53,0,0,1,724.4,669.7Z"/><path class="cls-20" d="M721.6,658.7a12,12,0,0,1,.7,3.1s.8,9.9-.4,16.1l-.1,4.6c-.1,1.2-.2,2.3-.2,2.9a31.6,31.6,0,0,1,0-8.1l.5-8.4s0-8-1.2-8.5c0,0-1.7-1.6-3.6-7.2a15.81,15.81,0,0,0-1.7-2.6c.7.4,5.4,3.9,6,8.1Z"/><path class="cls-20" d="M721.8,682.5v1c-.1,1.2-.1,1.9-.1,1.9A15.32,15.32,0,0,1,721.8,682.5Z"/></g><g id="_Group_20" data-name="&lt;Group&gt;"><path class="cls-20" d="M708.1,644.2c-.5-.4-1-.7-1.5-1.1a61.35,61.35,0,0,1,5.6,9.3l.1-.1a78.53,78.53,0,0,0-4.2-8.1Z"/><path class="cls-20" d="M712.2,652.4a30.19,30.19,0,0,1,3,8.9l1.5,4.7a12.5,12.5,0,0,1,1,2.2v-.7c-.7-4.6-3.1-10.5-5.4-15.2l-.1.1Z"/><path class="cls-21" d="M717.7,667.5c-.4-2.9-2.4-14.8-9.6-23.4.1.1,2.1,3.6,4.3,8.1,2.2,4.8,4.7,10.7,5.3,15.3Z"/><path class="cls-20" d="M708.1,644.2c7.2,8.6,9.2,20.5,9.6,23.4v.7a17.7,17.7,0,0,1,.6,1.7c0-.2-.1-.4-.1-.7-.2-1.1-.3-1.9-.4-2.2,0,0-2.1-16.6-9.7-22.9Z"/><path class="cls-22" d="M717.8,668.2c-.5-1.1-1-2.1-1-2.2l.8,2.3s1.1,5.1,1.6,9.2c-.2-2.4-.5-5.5-.8-7.7A13.77,13.77,0,0,1,717.8,668.2Z"/><path class="cls-20" d="M719.5,655.1a12,12,0,0,0-.7,3.1s-.8,9.9.4,16.1l.1,4.7c.1,1.2.2,2.3.2,2.9a31.6,31.6,0,0,0,0-8.1l-.5-8.4s0-8,1.2-8.5c0,0,1.7-1.6,3.6-7.2a15.81,15.81,0,0,1,1.7-2.6C724.8,647.4,720.1,650.9,719.5,655.1Z"/><path class="cls-20" d="M719.3,678.9v1c.1,1.2.1,1.9.1,1.9A15.32,15.32,0,0,0,719.3,678.9Z"/></g><g id="_Group_21" data-name="&lt;Group&gt;"><path class="cls-20" d="M715.6,639.7c-.5-.4-1-.7-1.5-1.1a61.35,61.35,0,0,1,5.6,9.3l.1-.1c-2.1-4.6-4.2-8-4.2-8.1Z"/><path class="cls-20" d="M719.7,647.9a30.19,30.19,0,0,1,3,8.9l1.5,4.7a12.5,12.5,0,0,1,1,2.2V663c-.7-4.6-3.1-10.5-5.4-15.2l-.1.1Z"/><path class="cls-21" d="M725.2,663c-.4-2.9-2.4-14.8-9.6-23.4.1.1,2.1,3.6,4.3,8.1,2.2,4.8,4.7,10.7,5.3,15.3Z"/><path class="cls-20" d="M725.3,662.6s-2.1-16.6-9.7-22.9c7.2,8.6,9.2,20.5,9.6,23.4v.7a17.7,17.7,0,0,1,.6,1.7c0-.2-.1-.4-.1-.7a10.86,10.86,0,0,0-.4-2.2Z"/><path class="cls-22" d="M726.6,673.1c-.2-2.4-.5-5.5-.8-7.7a7,7,0,0,0-.6-1.7c-.5-1.1-1-2.1-1-2.2l.8,2.3c0,.1,1,5.2,1.6,9.3Z"/><path class="cls-20" d="M727,650.6a12,12,0,0,0-.7,3.1s-.8,9.9.4,16.1l.1,4.7c.1,1.2.2,2.3.2,2.9a31.6,31.6,0,0,0,0-8.1l-.5-8.4s0-8,1.2-8.5c0,0,1.7-1.6,3.6-7.2a15.81,15.81,0,0,1,1.7-2.6C732.3,642.9,727.6,646.4,727,650.6Z"/><path class="cls-20" d="M726.8,674.4v1c.1,1.2.1,1.9.1,1.9A15.32,15.32,0,0,0,726.8,674.4Z"/></g><g id="_Group_22" data-name="&lt;Group&gt;"><path class="cls-20" d="M708.4,636.6l1.2-1.2a68.44,68.44,0,0,0-4.6,10.5l-.1-.1a84.88,84.88,0,0,1,3.5-9.2Zm-3.5,9.3a51.43,51.43,0,0,0-2.5,10.1l-1.3,5.3c0,.1-.5,1.2-.9,2.4v-.8c.5-5.2,2.6-11.9,4.4-17.3l.3.3Z"/><path class="cls-21" d="M708.4,636.6c-.1.1-1.7,4-3.5,9.2s-3.9,12-4.4,17.3C700.7,659.8,702.4,646.3,708.4,636.6Z"/><path class="cls-20" d="M700.4,663.5v.4a19.44,19.44,0,0,0-.5,2,1.48,1.48,0,0,1,.1-.7,16,16,0,0,1,.4-2.5s1.7-18.8,8-26c-5.9,9.7-7.6,23.2-8,26.5v.3Z"/><path class="cls-22" d="M699.9,665.8a19.44,19.44,0,0,1,.5-2,10.65,10.65,0,0,1,.9-2.4l-.6,2.7s-.9,5.8-1.3,10.4c0-2.8.3-6.2.5-8.7Z"/><path class="cls-20" d="M698.9,648.9a26.7,26.7,0,0,1,.6,3.5s.6,11.3-.3,18.3l-.1,5.3a19.84,19.84,0,0,0-.1,3.3,49,49,0,0,1,0-9.2l.4-9.5s0-9.1-1-9.6c0,0-1.4-1.8-3-8.2a18.3,18.3,0,0,0-1.4-2.9c.5.4,4.5,4.3,4.9,9Z"/><path class="cls-20" d="M699.1,675.9V677c-.1,1.3-.1,2.2-.1,2.2A19.85,19.85,0,0,1,699.1,675.9Z"/></g><g id="_Group_23" data-name="&lt;Group&gt;"><path class="cls-20" d="M687.8,632.5l-1.2-1.2a68.44,68.44,0,0,1,4.6,10.5l.1-.1c-1.8-5.2-3.5-9.1-3.5-9.2Z"/><path class="cls-20" d="M691.2,641.8a51.43,51.43,0,0,1,2.5,10.1l1.3,5.3c0,.1.5,1.2.9,2.4v-.8c-.5-5.2-2.6-11.9-4.4-17.3l-.3.3Z"/><path class="cls-21" d="M687.8,632.5c.1.1,1.7,4,3.5,9.2s3.9,12,4.4,17.3C695.4,655.7,693.7,642.2,687.8,632.5Z"/><path class="cls-20" d="M695.8,658.5s-1.7-18.8-8-26c5.9,9.7,7.6,23.2,7.9,26.5v.8a19.44,19.44,0,0,1,.5,2,1.48,1.48,0,0,0-.1-.7,9.21,9.21,0,0,0-.3-2.6Z"/><path class="cls-22" d="M695.8,659.8a13.61,13.61,0,0,0-.9-2.4l.6,2.7s.9,5.8,1.3,10.4c-.2-2.8-.4-6.2-.6-8.7a6.46,6.46,0,0,0-.4-2Z"/><path class="cls-20" d="M697.2,644.9a26.7,26.7,0,0,0-.6,3.5s-.6,11.3.3,18.3l.1,5.3a19.84,19.84,0,0,1,.1,3.3,49,49,0,0,0,0-9.2l-.4-9.5s0-9.1,1-9.6c0,0,1.4-1.8,3-8.2a18.3,18.3,0,0,1,1.4-2.9,15.38,15.38,0,0,0-4.9,9Z"/><path class="cls-20" d="M697,671.9V673c.1,1.3.1,2.2.1,2.2A12.71,12.71,0,0,0,697,671.9Z"/></g><g id="_Group_24" data-name="&lt;Group&gt;"><path class="cls-20" d="M694,627.4l-1.2-1.2a68.44,68.44,0,0,1,4.6,10.5l.1-.1c-1.8-5.2-3.5-9.1-3.5-9.2Z"/><path class="cls-20" d="M697.4,636.7a51.43,51.43,0,0,1,2.5,10.1l1.3,5.3c0,.1.5,1.2.9,2.4v-.8c-.5-5.2-2.6-11.9-4.4-17.3l-.3.3Z"/><path class="cls-21" d="M694,627.4c.1.1,1.7,4,3.5,9.2s3.9,12,4.4,17.3C701.6,650.6,699.9,637.1,694,627.4Z"/><path class="cls-20" d="M702,653.4s-1.7-18.8-8-26c5.9,9.7,7.6,23.2,7.9,26.5v.8a19.44,19.44,0,0,1,.5,2,1.48,1.48,0,0,0-.1-.7,16.36,16.36,0,0,0-.3-2.6Z"/><path class="cls-22" d="M703.1,665.3c-.2-2.8-.4-6.2-.6-8.7a19.44,19.44,0,0,0-.5-2,13.61,13.61,0,0,0-.9-2.4l.6,2.7S702.6,660.7,703.1,665.3Z"/><path class="cls-20" d="M703.4,639.8a26.7,26.7,0,0,0-.6,3.5s-.6,11.3.3,18.3l.1,5.3a19.84,19.84,0,0,1,.1,3.3,49,49,0,0,0,0-9.2l-.4-9.5s0-9.1,1-9.6c0,0,1.4-1.8,3-8.2a18.3,18.3,0,0,1,1.4-2.9,15.38,15.38,0,0,0-4.9,9Z"/><path class="cls-20" d="M703.2,666.8v1.1c.1,1.3.1,2.2.1,2.2A19.65,19.65,0,0,0,703.2,666.8Z"/></g><g id="_Group_25" data-name="&lt;Group&gt;"><path class="cls-20" d="M761,386.1c.3-.2.6-.5.9-.7a35.27,35.27,0,0,0-3.5,5.8l-.1-.1c1.4-2.8,2.7-4.9,2.7-5Zm-2.6,5.2a19.53,19.53,0,0,0-1.9,5.6l-1,3a7.37,7.37,0,0,0-.6,1.4v-.4a34.71,34.71,0,0,1,3.5-9.6Z"/><path class="cls-21" d="M758.3,391.2a40.19,40.19,0,0,0-3.4,9.5c.3-1.9,1.6-9.3,6.1-14.6,0,.1-1.3,2.2-2.7,5.1Z"/><path class="cls-20" d="M761,386.1c-4.5,5.3-5.8,12.7-6.1,14.6v.4a7.6,7.6,0,0,0-.4,1.1.6.6,0,0,1,.1-.4,6.12,6.12,0,0,1,.3-1.4c0,.1,1.3-10.3,6.1-14.3Z"/><path class="cls-22" d="M754.6,402.3a7.59,7.59,0,0,1,.4-1.1c.3-.7.6-1.3.6-1.4l-.5,1.5s-.7,3.2-1,5.8C754.2,405.6,754.4,403.7,754.6,402.3Z"/><path class="cls-20" d="M753.8,393a6.09,6.09,0,0,1,.4,1.9A50.23,50.23,0,0,1,754,405l-.1,2.9a13.57,13.57,0,0,0-.1,1.8,18.84,18.84,0,0,1,0-5.1l.3-5.3s0-5-.7-5.3c0,0-1.1-1-2.3-4.5a18.45,18.45,0,0,0-1-1.6c.4.3,3.4,2.4,3.7,5.1Z"/><path class="cls-20" d="M754,407.9v.6a9.4,9.4,0,0,0-.1,1.2,6.05,6.05,0,0,1,.1-1.8Z"/></g><g id="_Group_26" data-name="&lt;Group&gt;"><path class="cls-20" d="M745.4,383.8c-.3-.2-.6-.5-.9-.7a35.27,35.27,0,0,1,3.5,5.8l.1-.1c-1.4-2.7-2.7-4.9-2.7-5ZM748,389a19.53,19.53,0,0,1,1.9,5.6l1,3a7.37,7.37,0,0,1,.6,1.4v-.4A35.91,35.91,0,0,0,748,389Z"/><path class="cls-21" d="M745.4,383.8c0,.1,1.3,2.2,2.7,5.1s3,6.7,3.4,9.6c-.3-1.8-1.6-9.3-6.1-14.7Z"/><path class="cls-20" d="M751.4,399a7.6,7.6,0,0,1,.4,1.1.6.6,0,0,0-.1-.4,6.12,6.12,0,0,0-.3-1.4s-1.3-10.5-6.1-14.4c4.5,5.4,5.8,12.9,6.1,14.7v.3c.1,0,.1,0,0,.1h0Z"/><path class="cls-22" d="M752.3,404.9c-.1-1.5-.3-3.4-.5-4.8a7.59,7.59,0,0,0-.4-1.1c-.3-.7-.6-1.3-.6-1.4l.5,1.5S751.9,402.3,752.3,404.9Z"/><path class="cls-20" d="M752.5,390.7a6.09,6.09,0,0,0-.4,1.9,50.23,50.23,0,0,0,.2,10.1l.1,2.9a13.57,13.57,0,0,1,.1,1.8,18.84,18.84,0,0,0,0-5.1l-.3-5.3s0-5,.7-5.3c0,0,1.1-1,2.3-4.5a18.45,18.45,0,0,1,1-1.6c-.3.3-3.3,2.5-3.7,5.1Z"/><path class="cls-20" d="M752.4,405.7v.6a9.4,9.4,0,0,1,.1,1.2,13.57,13.57,0,0,0-.1-1.8Z"/></g><g id="_Group_27" data-name="&lt;Group&gt;"><path class="cls-20" d="M750.1,381c-.3-.2-.6-.5-.9-.7a35.27,35.27,0,0,1,3.5,5.8l.1-.1c-1.4-2.7-2.7-4.9-2.7-5Zm2.6,5.2a19.53,19.53,0,0,1,1.9,5.6l1,3a7.37,7.37,0,0,1,.6,1.4v-.4a35.91,35.91,0,0,0-3.5-9.6Z"/><path class="cls-21" d="M750.1,381c0,.1,1.3,2.2,2.7,5.1s3,6.7,3.4,9.6c-.3-1.8-1.6-9.3-6.1-14.7Z"/><path class="cls-20" d="M756.1,395.9h0v.2a7.6,7.6,0,0,1,.4,1.1.6.6,0,0,0-.1-.4,6.12,6.12,0,0,0-.3-1.4s-1.3-10.5-6.1-14.4c4.5,5.4,5.8,12.9,6.1,14.7v.2Z"/><path class="cls-22" d="M757,402c-.1-1.5-.3-3.4-.5-4.8a7.59,7.59,0,0,0-.4-1.1c-.3-.7-.6-1.3-.6-1.4l.5,1.5S756.6,399.5,757,402Z"/><path class="cls-20" d="M757.2,387.9a6.09,6.09,0,0,0-.4,1.9,50.23,50.23,0,0,0,.2,10.1l.1,2.9a13.57,13.57,0,0,1,.1,1.8,18.84,18.84,0,0,0,0-5.1l-.3-5.3s0-5,.7-5.3c0,0,1.1-1,2.3-4.5a18.45,18.45,0,0,1,1-1.6c-.3.3-3.3,2.5-3.7,5.1Z"/><path class="cls-20" d="M757.1,402.9v.6a9.4,9.4,0,0,1,.1,1.2,12.83,12.83,0,0,0-.1-1.8Z"/></g><g id="_Group_28" data-name="&lt;Group&gt;"><path class="cls-20" d="M779,391.6c.3-.2.6-.5.9-.7a35.27,35.27,0,0,0-3.5,5.8l-.1-.1c1.4-2.7,2.7-4.9,2.7-5Zm-6,14.7a32.94,32.94,0,0,1,3.4-9.5l.1.1a19.53,19.53,0,0,0-1.9,5.6l-1,3a7.37,7.37,0,0,0-.6,1.4v-.6Z"/><path class="cls-21" d="M773,406.3c.3-1.9,1.6-9.3,6.1-14.6,0,.1-1.3,2.2-2.7,5.1a32.94,32.94,0,0,0-3.4,9.5Z"/><path class="cls-20" d="M779,391.6c-4.5,5.3-5.8,12.7-6.1,14.6v.4a7.6,7.6,0,0,0-.4,1.1.6.6,0,0,1,.1-.4,6.12,6.12,0,0,1,.3-1.4c0,.1,1.4-10.3,6.1-14.3Z"/><path class="cls-22" d="M772.9,406.7c.3-.7.6-1.3.6-1.4l-.5,1.5s-.7,3.2-1,5.8c.1-1.5.3-3.4.5-4.8A3.58,3.58,0,0,0,772.9,406.7Z"/><path class="cls-20" d="M771.9,398.5a6.09,6.09,0,0,1,.4,1.9,50.23,50.23,0,0,1-.2,10.1l-.1,2.9a13.57,13.57,0,0,0-.1,1.8,18.84,18.84,0,0,1,0-5.1l.3-5.3s0-5-.7-5.3c0,0-1.1-1-2.3-4.5a18.45,18.45,0,0,0-1-1.6c.3.3,3.3,2.5,3.7,5.1Z"/><path class="cls-20" d="M772,413.5v.6a9.4,9.4,0,0,0-.1,1.2,12.83,12.83,0,0,1,.1-1.8Z"/></g><g id="_Group_29" data-name="&lt;Group&gt;"><path class="cls-20" d="M763.4,389.3c-.3-.2-.6-.5-.9-.7a35.27,35.27,0,0,1,3.5,5.8l.1-.1c-1.4-2.7-2.7-4.9-2.7-5Zm2.6,5.2a19.53,19.53,0,0,1,1.9,5.6l1,3a7.37,7.37,0,0,1,.6,1.4v-.4a35.91,35.91,0,0,0-3.5-9.6Z"/><path class="cls-21" d="M763.4,389.4c0,.1,1.3,2.2,2.7,5.1s3,6.7,3.4,9.6c-.3-1.9-1.6-9.4-6.1-14.7Z"/><path class="cls-20" d="M769.5,403.8s-1.3-10.5-6.1-14.4c4.5,5.4,5.8,12.9,6.1,14.7v.4a7.6,7.6,0,0,1,.4,1.1.6.6,0,0,0-.1-.4,6.12,6.12,0,0,0-.3-1.4Z"/><path class="cls-22" d="M770.3,410.4c-.1-1.5-.3-3.4-.5-4.8a7.59,7.59,0,0,0-.4-1.1c-.3-.7-.6-1.3-.6-1.4l.5,1.5S769.9,407.8,770.3,410.4Z"/><path class="cls-20" d="M770.5,396.2a6.09,6.09,0,0,0-.4,1.9,50.23,50.23,0,0,0,.2,10.1l.1,2.9a13.57,13.57,0,0,1,.1,1.8,18.84,18.84,0,0,0,0-5.1l-.3-5.3s0-5,.7-5.3c0,0,1.1-1,2.3-4.5a18.45,18.45,0,0,1,1-1.6c-.3.3-3.3,2.5-3.7,5.1Z"/><path class="cls-20" d="M770.4,411.2v.6a9.4,9.4,0,0,1,.1,1.2,13.57,13.57,0,0,0-.1-1.8Z"/></g><g id="_Group_30" data-name="&lt;Group&gt;"><path class="cls-20" d="M768.1,386.5c-.3-.2-.6-.5-.9-.7a35.27,35.27,0,0,1,3.5,5.8l.1-.1c-1.4-2.7-2.7-4.9-2.7-5Zm2.6,5.2a19.53,19.53,0,0,1,1.9,5.6l1,3a7.37,7.37,0,0,1,.6,1.4v-.4a35.91,35.91,0,0,0-3.5-9.6Z"/><path class="cls-21" d="M768.1,386.5c0,.1,1.3,2.2,2.7,5.1s3,6.7,3.4,9.6c-.3-1.8-1.6-9.3-6.1-14.7Z"/><path class="cls-20" d="M768.1,386.5c4.5,5.4,5.8,12.9,6.1,14.7v.4a7.6,7.6,0,0,1,.4,1.1.6.6,0,0,0-.1-.4,6.12,6.12,0,0,0-.3-1.4s-1.3-10.4-6.1-14.4Z"/><path class="cls-22" d="M775,407.5c-.1-1.5-.3-3.4-.5-4.8a7.59,7.59,0,0,0-.4-1.1c-.3-.7-.6-1.3-.6-1.4l.5,1.5C774,401.8,774.7,405,775,407.5Z"/><path class="cls-20" d="M775.2,393.4a6.09,6.09,0,0,0-.4,1.9,50.23,50.23,0,0,0,.2,10.1l.1,2.9a13.57,13.57,0,0,1,.1,1.8,18.84,18.84,0,0,0,0-5.1l-.3-5.3s0-5,.7-5.3c0,0,1.1-1,2.3-4.5a18.45,18.45,0,0,1,1-1.6c-.3.3-3.3,2.5-3.7,5.1Z"/><path class="cls-20" d="M775.1,408.4v.6a9.4,9.4,0,0,1,.1,1.2,5.86,5.86,0,0,0-.1-1.8Z"/></g><g id="_Group_31" data-name="&lt;Group&gt;"><path class="cls-20" d="M772.8,413.1c.3-.2.6-.5.9-.7a35.27,35.27,0,0,0-3.5,5.8l-.1-.1c1.4-2.7,2.7-4.9,2.7-5Zm-2.6,5.2a19.53,19.53,0,0,0-1.9,5.6l-1,3a7.37,7.37,0,0,0-.6,1.4v-.4a35.91,35.91,0,0,1,3.5-9.6Z"/><path class="cls-21" d="M772.8,413.1c0,.1-1.3,2.2-2.7,5.1a40.19,40.19,0,0,0-3.4,9.5c.3-1.8,1.6-9.2,6.1-14.6Z"/><path class="cls-20" d="M766.7,427.6s1.3-10.5,6.1-14.4c-4.5,5.3-5.8,12.7-6.1,14.6v.4a7.6,7.6,0,0,0-.4,1.1.6.6,0,0,1,.1-.4,6.3,6.3,0,0,1,.3-1.3Z"/><path class="cls-22" d="M766.7,428.3c.3-.7.6-1.3.6-1.4l-.5,1.5s-.7,3.2-1,5.8c.1-1.5.3-3.4.5-4.8C766.4,429,766.6,428.6,766.7,428.3Z"/><path class="cls-20" d="M765.6,420a6.09,6.09,0,0,1,.4,1.9,50.23,50.23,0,0,1-.2,10.1l-.1,2.9a13.57,13.57,0,0,0-.1,1.8,18.84,18.84,0,0,1,0-5.1l.3-5.3s0-5-.7-5.3c0,0-1.1-1-2.3-4.5a18.45,18.45,0,0,0-1-1.6c.4.3,3.4,2.5,3.7,5.1Z"/><path class="cls-20" d="M765.8,435v.6a9.4,9.4,0,0,0-.1,1.2,6,6,0,0,1,.1-1.8Z"/></g><g id="_Group_32" data-name="&lt;Group&gt;"><path class="cls-20" d="M757.1,410.9c-.3-.2-.6-.5-.9-.7a35.27,35.27,0,0,1,3.5,5.8l.1-.1a40.3,40.3,0,0,0-2.7-5Zm2.6,5.2a19.53,19.53,0,0,1,1.9,5.6l1,3a7.37,7.37,0,0,1,.6,1.4v-.4a30.16,30.16,0,0,0-3.5-9.6Z"/><path class="cls-21" d="M757.1,410.9c0,.1,1.3,2.2,2.7,5.1s3,6.7,3.4,9.6c-.3-1.9-1.5-9.3-6.1-14.7Z"/><path class="cls-20" d="M763.3,425.3s-1.3-10.5-6.1-14.4c4.5,5.4,5.8,12.9,6.1,14.7v.4a7.6,7.6,0,0,1,.4,1.1.6.6,0,0,0-.1-.4,7,7,0,0,1-.3-1.4Z"/><path class="cls-22" d="M764.1,431.9c-.1-1.5-.3-3.4-.5-4.8a7.59,7.59,0,0,0-.4-1.1c-.3-.7-.6-1.3-.6-1.4l.5,1.5S763.7,429.3,764.1,431.9Z"/><path class="cls-20" d="M764.3,417.7a6.09,6.09,0,0,0-.4,1.9,50.23,50.23,0,0,0,.2,10.1l.1,2.9a13.57,13.57,0,0,1,.1,1.8,18.84,18.84,0,0,0,0-5.1L764,424s0-5,.7-5.3c0,0,1.1-1,2.3-4.5a18.45,18.45,0,0,1,1-1.6c-.3.3-3.3,2.5-3.7,5.1Z"/><path class="cls-20" d="M764.2,432.7v.6a9.4,9.4,0,0,1,.1,1.2,14.38,14.38,0,0,0-.1-1.8Z"/></g><g id="_Group_33" data-name="&lt;Group&gt;"><path class="cls-20" d="M761.8,408.1c-.3-.2-.6-.5-.9-.7a35.27,35.27,0,0,1,3.5,5.8l.1-.1a33,33,0,0,0-2.7-5Z"/><path class="cls-20" d="M767.9,422.7a34.6,34.6,0,0,0-3.4-9.6l-.1.1a19.53,19.53,0,0,1,1.9,5.6l1,3a7.37,7.37,0,0,1,.6,1.4v-.5h0Z"/><path class="cls-21" d="M767.9,422.7c-.3-1.8-1.5-9.3-6.1-14.7,0,.1,1.3,2.2,2.7,5.1a34.6,34.6,0,0,1,3.4,9.6Z"/><path class="cls-20" d="M761.8,408.1c4.5,5.4,5.8,12.9,6.1,14.7v.4a7.6,7.6,0,0,1,.4,1.1.6.6,0,0,0-.1-.4,6.12,6.12,0,0,0-.3-1.4c.1,0-1.3-10.5-6.1-14.4Z"/><path class="cls-22" d="M767.9,423.2c-.3-.7-.6-1.3-.6-1.4l.5,1.5s.7,3.2,1,5.8c-.1-1.5-.3-3.4-.5-4.8A3.58,3.58,0,0,0,767.9,423.2Z"/><path class="cls-20" d="M769,414.9a6.09,6.09,0,0,0-.4,1.9,50.23,50.23,0,0,0,.2,10.1l.1,2.9a13.57,13.57,0,0,1,.1,1.8,18.84,18.84,0,0,0,0-5.1l-.3-5.3s0-5,.7-5.3c0,0,1.1-1,2.3-4.5a18.45,18.45,0,0,1,1-1.6c-.3.3-3.3,2.5-3.7,5.1Z"/><path class="cls-20" d="M768.9,429.9v.6a9.4,9.4,0,0,1,.1,1.2,13.57,13.57,0,0,0-.1-1.8Z"/></g><g id="_Group_34" data-name="&lt;Group&gt;"><path class="cls-20" d="M797.9,423.5c.3-.2.6-.5.9-.7a35.27,35.27,0,0,0-3.5,5.8l-.1-.1a51.46,51.46,0,0,1,2.7-5Zm-2.6,5.2a19.53,19.53,0,0,0-1.9,5.6l-1,3a7.37,7.37,0,0,0-.6,1.4v-.4a32.78,32.78,0,0,1,3.5-9.6Z"/><path class="cls-21" d="M797.9,423.5c0,.1-1.3,2.2-2.7,5.1a40.19,40.19,0,0,0-3.4,9.5c.3-1.8,1.6-9.2,6.1-14.6Z"/><path class="cls-20" d="M791.7,438s1.3-10.5,6.1-14.4c-4.5,5.3-5.8,12.7-6.1,14.6v.4a7.6,7.6,0,0,0-.4,1.1.6.6,0,0,1,.1-.4,5.34,5.34,0,0,0,.3-1.3Z"/><path class="cls-22" d="M791.8,438.7c.3-.7.6-1.3.6-1.4l-.5,1.5s-.7,3.2-1,5.8c.1-1.5.3-3.4.5-4.8A3.58,3.58,0,0,1,791.8,438.7Z"/><path class="cls-20" d="M790.7,430.4a6.09,6.09,0,0,1,.4,1.9,50.23,50.23,0,0,1-.2,10.1l-.1,2.9a13.57,13.57,0,0,0-.1,1.8,18.84,18.84,0,0,1,0-5.1l.3-5.3s0-5-.7-5.3c0,0-1.1-1-2.3-4.5a18.45,18.45,0,0,0-1-1.6c.3.3,3.3,2.5,3.7,5.1Z"/><path class="cls-20" d="M790.8,445.4v.6a9.4,9.4,0,0,0-.1,1.2,13.57,13.57,0,0,1,.1-1.8Z"/></g><g id="_Group_35" data-name="&lt;Group&gt;"><path class="cls-20" d="M782.2,421.3c-.3-.2-.6-.5-.9-.7a35.27,35.27,0,0,1,3.5,5.8l.1-.1c-1.4-2.8-2.7-4.9-2.7-5Zm2.6,5.2a19.53,19.53,0,0,1,1.9,5.6l1,3a7.37,7.37,0,0,1,.6,1.4v-.4a35.91,35.91,0,0,0-3.5-9.6Z"/><path class="cls-21" d="M782.2,421.3c0,.1,1.3,2.2,2.7,5.1s3,6.7,3.4,9.6c-.3-1.9-1.6-9.3-6.1-14.7Z"/><path class="cls-20" d="M788.3,435.7s-1.3-10.5-6.1-14.4c4.5,5.4,5.8,12.9,6.1,14.7v.4a7.6,7.6,0,0,1,.4,1.1.6.6,0,0,0-.1-.4,6.12,6.12,0,0,0-.3-1.4Z"/><path class="cls-22" d="M788.3,436.4c-.3-.7-.6-1.3-.6-1.4l.5,1.5s.7,3.2,1,5.8c-.1-1.5-.3-3.4-.5-4.8C788.6,437.2,788.4,436.8,788.3,436.4Z"/><path class="cls-20" d="M789.4,428.1a6.09,6.09,0,0,0-.4,1.9,50.23,50.23,0,0,0,.2,10.1l.1,2.9a13.57,13.57,0,0,1,.1,1.8,18.84,18.84,0,0,0,0-5.1l-.3-5.3s0-5,.7-5.3c0,0,1.1-1,2.3-4.5a18.45,18.45,0,0,1,1-1.6c-.4.3-3.4,2.5-3.7,5.1Z"/><path class="cls-20" d="M789.2,443.1v.6a9.4,9.4,0,0,1,.1,1.2,6,6,0,0,0-.1-1.8Z"/></g><g id="_Group_36" data-name="&lt;Group&gt;"><path class="cls-20" d="M786.9,418.5c-.3-.2-.6-.5-.9-.7a35.27,35.27,0,0,1,3.5,5.8l.1-.1c-1.4-2.8-2.7-5-2.7-5Z"/><path class="cls-20" d="M789.5,423.6a19.53,19.53,0,0,1,1.9,5.6l1,3a7.37,7.37,0,0,1,.6,1.4v-.4a35.91,35.91,0,0,0-3.5-9.6Z"/><path class="cls-21" d="M786.9,418.5c0,.1,1.3,2.2,2.7,5.1s3,6.7,3.4,9.6c-.3-1.9-1.6-9.4-6.1-14.7Z"/><path class="cls-20" d="M793,432.9s-1.3-10.5-6.1-14.4c4.5,5.4,5.8,12.9,6.1,14.7v.4a7.6,7.6,0,0,1,.4,1.1.6.6,0,0,0-.1-.4,6.12,6.12,0,0,0-.3-1.4Z"/><path class="cls-22" d="M793,433.6c-.3-.7-.6-1.3-.6-1.4l.5,1.5s.7,3.2,1,5.8c-.1-1.5-.3-3.4-.5-4.8C793.3,434.3,793.1,433.9,793,433.6Z"/><path class="cls-20" d="M794.1,425.3a6.09,6.09,0,0,0-.4,1.9,50.23,50.23,0,0,0,.2,10.1l.1,2.9a13.57,13.57,0,0,1,.1,1.8,18.84,18.84,0,0,0,0-5.1l-.3-5.3s0-5,.7-5.3c0,0,1.1-1,2.3-4.5a18.45,18.45,0,0,1,1-1.6c-.4.3-3.4,2.5-3.7,5.1Zm-.2,15v.6a9.4,9.4,0,0,1,.1,1.2,6,6,0,0,0-.1-1.8Z"/></g><g id="_Group_37" data-name="&lt;Group&gt;"><path class="cls-20" d="M784,394.7a6,6,0,0,1,.8-.8,48.56,48.56,0,0,0-2.9,6.6l-.1-.1A47.21,47.21,0,0,1,784,394.7Zm-2.2,5.8a27.15,27.15,0,0,0-1.5,6.4l-.8,3.4a11.19,11.19,0,0,0-.5,1.5v-.4a47.25,47.25,0,0,1,2.8-10.9Z"/><path class="cls-21" d="M779,411.3c.2-2.1,1.3-10.6,5-16.7,0,.1-1.1,2.5-2.2,5.8a50,50,0,0,0-2.8,10.9Z"/><path class="cls-20" d="M778.9,411s1.1-11.8,5-16.4c-3.7,6.1-4.8,14.6-5,16.7v.4c-.1.4-.2.9-.3,1.2v-.5a5.82,5.82,0,0,0,.3-1.4Z"/><path class="cls-22" d="M778.2,418.5c.1-1.7.3-3.9.4-5.5l.3-1.2a11.19,11.19,0,0,1,.5-1.5L779,412C779.1,411.9,778.5,415.6,778.2,418.5Z"/><path class="cls-20" d="M778,402.4a14.94,14.94,0,0,1,.4,2.2,77.4,77.4,0,0,1-.2,11.5v3.3a17.86,17.86,0,0,0-.1,2.1,32.55,32.55,0,0,1,0-5.8l.2-6s0-5.7-.6-6.1c0,0-.9-1.1-1.9-5.1a10.14,10.14,0,0,0-.9-1.9C775.3,397,777.8,399.5,778,402.4Z"/><path class="cls-20" d="M778.2,419.4v.7a9.44,9.44,0,0,1-.1,1.4A8,8,0,0,1,778.2,419.4Z"/></g><g id="_Group_38" data-name="&lt;Group&gt;"><path class="cls-20" d="M771,392.1a6,6,0,0,0-.8-.8,48.56,48.56,0,0,1,2.9,6.6l.1-.1A57.09,57.09,0,0,0,771,392.1Zm2.2,5.9a27.15,27.15,0,0,1,1.5,6.4l.8,3.4a11.19,11.19,0,0,1,.5,1.5v-.4a47.25,47.25,0,0,0-2.8-10.9Z"/><path class="cls-21" d="M771,392.1c0,.1,1.1,2.5,2.2,5.8a56.41,56.41,0,0,1,2.8,10.9c-.2-2.1-1.2-10.6-5-16.7Z"/><path class="cls-20" d="M776.1,409v.2c.1.4.2.9.3,1.2v-.5c-.1-.8-.2-1.3-.2-1.6,0,0-1.1-11.9-5-16.4,3.7,6.1,4.8,14.6,5,16.7v.1c-.1.2-.1.2-.1.3Z"/><path class="cls-22" d="M775.5,407.7l.4,1.7s.5,3.6.8,6.5c-.1-1.7-.3-3.9-.4-5.4l-.3-1.2A10.06,10.06,0,0,0,775.5,407.7Z"/><path class="cls-20" d="M777,399.9a14.94,14.94,0,0,0-.4,2.2,77.4,77.4,0,0,0,.2,11.5v3.3a17.86,17.86,0,0,1,.1,2.1,32.55,32.55,0,0,0,0-5.8l-.2-6s0-5.7.6-6.1c0,0,.9-1.1,1.9-5.1a10.14,10.14,0,0,1,.9-1.9A10.14,10.14,0,0,0,777,399.9Z"/><path class="cls-20" d="M776.9,416.9v.7a9.44,9.44,0,0,0,.1,1.4C777,418.5,776.9,417.7,776.9,416.9Z"/></g><g id="_Group_39" data-name="&lt;Group&gt;"><path class="cls-20" d="M774.9,388.9a6,6,0,0,0-.8-.8,48.56,48.56,0,0,1,2.9,6.6l.1-.1A57.09,57.09,0,0,0,774.9,388.9Zm2.2,5.9a27.15,27.15,0,0,1,1.5,6.4l.8,3.4a11.19,11.19,0,0,1,.5,1.5v-.4a44.79,44.79,0,0,0-2.8-10.9Z"/><path class="cls-21" d="M774.9,388.9c0,.1,1.1,2.5,2.2,5.8a56.41,56.41,0,0,1,2.8,10.9c-.2-2.1-1.2-10.6-5-16.7Z"/><path class="cls-20" d="M780,405.2s-1.1-11.9-5-16.4c3.7,6.1,4.8,14.6,5,16.7v.4c.1.4.2.9.3,1.2v-.5a5,5,0,0,1-.3-1.4Z"/><path class="cls-22" d="M779.8,406.2s.5,3.6.8,6.5c-.1-1.7-.3-3.9-.4-5.4l-.3-1.2a11.19,11.19,0,0,0-.5-1.5Z"/><path class="cls-20" d="M780.8,396.7a14.94,14.94,0,0,0-.4,2.2,77.4,77.4,0,0,0,.2,11.5v3.3a17.86,17.86,0,0,1,.1,2.1,32.55,32.55,0,0,0,0-5.8l-.2-6s0-5.7.6-6.1c0,0,.9-1.1,1.9-5.1a7.48,7.48,0,0,1,.9-1.8,9.94,9.94,0,0,0-3.1,5.7Z"/><path class="cls-20" d="M780.7,413.6v.7a9.44,9.44,0,0,0,.1,1.4A18.75,18.75,0,0,0,780.7,413.6Z"/></g><g id="_Group_40" data-name="&lt;Group&gt;"><path class="cls-20" d="M797.4,385.5c.3-.2.6-.5.9-.7a35.27,35.27,0,0,0-3.5,5.8l-.1-.1c1.4-2.7,2.7-4.9,2.7-5Zm-2.6,5.2a19.53,19.53,0,0,0-1.9,5.6l-1,3a7.37,7.37,0,0,0-.6,1.4v-.4a35.91,35.91,0,0,1,3.5-9.6Z"/><path class="cls-21" d="M797.4,385.5c0,.1-1.3,2.2-2.7,5.1a40.19,40.19,0,0,0-3.4,9.5c.3-1.8,1.6-9.2,6.1-14.6Z"/><path class="cls-20" d="M791.3,400s1.3-10.5,6.1-14.4c-4.5,5.3-5.8,12.7-6.1,14.6v.4a7.6,7.6,0,0,0-.4,1.1.6.6,0,0,1,.1-.4,4,4,0,0,1,.3-1.3Z"/><path class="cls-22" d="M790.5,406.5c.1-1.5.3-3.4.5-4.8a7.59,7.59,0,0,1,.4-1.1c.3-.7.6-1.3.6-1.4l-.5,1.5C791.5,400.8,790.8,404,790.5,406.5Z"/><path class="cls-20" d="M790.2,392.4a6.09,6.09,0,0,1,.4,1.9,50.23,50.23,0,0,1-.2,10.1l-.1,2.9a13.57,13.57,0,0,0-.1,1.8,18.84,18.84,0,0,1,0-5.1l.3-5.3s0-5-.7-5.3c0,0-1.1-1-2.3-4.5a18.45,18.45,0,0,0-1-1.6c.4.3,3.4,2.5,3.7,5.1Z"/><path class="cls-20" d="M790.4,407.4v.6a9.4,9.4,0,0,0-.1,1.2,5.86,5.86,0,0,1,.1-1.8Z"/></g><g id="_Group_41" data-name="&lt;Group&gt;"><path class="cls-20" d="M781.8,383.3c-.3-.2-.6-.5-.9-.7a35.27,35.27,0,0,1,3.5,5.8l.1-.1c-1.4-2.8-2.7-5-2.7-5Z"/><path class="cls-20" d="M787.8,398a34.6,34.6,0,0,0-3.4-9.6l-.1.1a19.53,19.53,0,0,1,1.9,5.6l1,3a7.37,7.37,0,0,1,.6,1.4V398Z"/><path class="cls-21" d="M787.8,398c-.3-1.8-1.5-9.3-6.1-14.7,0,.1,1.3,2.2,2.7,5.1a34.6,34.6,0,0,1,3.4,9.6Z"/><path class="cls-20" d="M787.8,398.2h0v.2a7.6,7.6,0,0,1,.4,1.1.6.6,0,0,0-.1-.4,6.12,6.12,0,0,0-.3-1.4s-1.3-10.5-6.1-14.4c4.5,5.4,5.8,12.9,6.1,14.7v.2Z"/><path class="cls-22" d="M787.8,398.4c-.3-.7-.6-1.3-.6-1.4l.5,1.5s.7,3.2,1,5.8c-.1-1.5-.3-3.4-.5-4.8A4.87,4.87,0,0,0,787.8,398.4Z"/><path class="cls-20" d="M788.9,390.1a6.09,6.09,0,0,0-.4,1.9,50.23,50.23,0,0,0,.2,10.1l.1,2.9a13.57,13.57,0,0,1,.1,1.8,18.84,18.84,0,0,0,0-5.1l-.3-5.3s0-5,.7-5.3c0,0,1.1-1,2.3-4.5a18.45,18.45,0,0,1,1-1.6c-.3.3-3.3,2.5-3.7,5.1Z"/><path class="cls-20" d="M788.8,405.1v.6a9.4,9.4,0,0,1,.1,1.2,13.57,13.57,0,0,0-.1-1.8Z"/></g><g id="_Group_42" data-name="&lt;Group&gt;"><path class="cls-20" d="M786.5,380.4c-.3-.2-.6-.5-.9-.7a35.27,35.27,0,0,1,3.5,5.8l.1-.1c-1.4-2.7-2.7-4.9-2.7-5Zm2.6,5.2a19.53,19.53,0,0,1,1.9,5.6l1,3a7.37,7.37,0,0,1,.6,1.4v-.4a35.91,35.91,0,0,0-3.5-9.6Z"/><path class="cls-21" d="M789.1,385.6c1.4,3,3,6.7,3.4,9.6-.3-1.8-1.5-9.3-6.1-14.7a31.36,31.36,0,0,1,2.7,5.1Z"/><path class="cls-20" d="M792.6,394.9s-1.3-10.5-6.1-14.4c4.5,5.4,5.8,12.9,6.1,14.7v.4a7.6,7.6,0,0,1,.4,1.1.6.6,0,0,0-.1-.4,6.12,6.12,0,0,0-.3-1.4Z"/><path class="cls-22" d="M792.5,395.6c-.3-.7-.6-1.3-.6-1.4l.5,1.5s.7,3.2,1,5.8c-.1-1.5-.3-3.4-.5-4.8A3.58,3.58,0,0,0,792.5,395.6Z"/><path class="cls-20" d="M793.6,387.3a6.09,6.09,0,0,0-.4,1.9,50.23,50.23,0,0,0,.2,10.1l.1,2.9a13.57,13.57,0,0,1,.1,1.8,18.84,18.84,0,0,0,0-5.1l-.3-5.3s0-5,.7-5.3c0,0,1.1-1,2.3-4.5a18.45,18.45,0,0,1,1-1.6c-.3.3-3.3,2.5-3.7,5.1Z"/><path class="cls-20" d="M793.5,402.3v.6a9.4,9.4,0,0,1,.1,1.2,13.57,13.57,0,0,0-.1-1.8Z"/></g><g id="_Group_43" data-name="&lt;Group&gt;"><path class="cls-20" d="M779.4,373.7c.3-.2.6-.5.9-.7a35.27,35.27,0,0,0-3.5,5.8l-.1-.1a51.46,51.46,0,0,1,2.7-5Zm-6.1,14.7a32.94,32.94,0,0,1,3.4-9.5l.1.1a19.53,19.53,0,0,0-1.9,5.6l-1,3a7.37,7.37,0,0,0-.6,1.4v-.6Z"/><path class="cls-21" d="M776.7,378.8a40.19,40.19,0,0,0-3.4,9.5c.3-1.9,1.6-9.3,6.1-14.6a46.76,46.76,0,0,0-2.7,5.1Z"/><path class="cls-20" d="M773.3,388.7v.1a7.6,7.6,0,0,0-.4,1.1.6.6,0,0,1,.1-.4,6.12,6.12,0,0,1,.3-1.4s1.3-10.5,6.1-14.4c-4.5,5.3-5.8,12.7-6.1,14.6v.4h0Z"/><path class="cls-22" d="M772.4,394.7c.1-1.5.3-3.4.5-4.8a7.59,7.59,0,0,1,.4-1.1c.3-.7.6-1.3.6-1.4l-.5,1.5S772.8,392.2,772.4,394.7Z"/><path class="cls-20" d="M772.2,380.6a6.09,6.09,0,0,1,.4,1.9,50.23,50.23,0,0,1-.2,10.1l-.1,2.9a13.57,13.57,0,0,0-.1,1.8,18.84,18.84,0,0,1,0-5.1l.3-5.3s0-5-.7-5.3c0,0-1.1-1-2.3-4.5a18.45,18.45,0,0,0-1-1.6c.3.3,3.3,2.5,3.7,5.1Z"/><path class="cls-20" d="M772.3,395.5v.6a9.4,9.4,0,0,0-.1,1.2,14.38,14.38,0,0,1,.1-1.8Z"/></g><g id="_Group_44" data-name="&lt;Group&gt;"><path class="cls-20" d="M763.7,371.4c-.3-.2-.6-.5-.9-.7a35.27,35.27,0,0,1,3.5,5.8l.1-.1c-1.4-2.7-2.7-4.9-2.7-5Zm6,14.7a34.6,34.6,0,0,0-3.4-9.6l-.1.1a19.53,19.53,0,0,1,1.9,5.6l1,3a7.37,7.37,0,0,1,.6,1.4v-.3c.1-.1.1-.1,0-.2Z"/><path class="cls-21" d="M769.7,386.1c-.3-1.8-1.5-9.3-6.1-14.7,0,.1,1.3,2.2,2.7,5.1a34.6,34.6,0,0,1,3.4,9.6Z"/><path class="cls-20" d="M763.7,371.5c4.5,5.4,5.8,12.9,6.1,14.7v.4a7.6,7.6,0,0,1,.4,1.1.6.6,0,0,0-.1-.4,6.12,6.12,0,0,0-.3-1.4s-1.3-10.5-6.1-14.4h0Z"/><path class="cls-22" d="M770.6,392.5c-.1-1.5-.3-3.4-.5-4.8a7.59,7.59,0,0,0-.4-1.1c-.3-.7-.6-1.3-.6-1.4l.5,1.5S770.3,389.9,770.6,392.5Z"/><path class="cls-20" d="M770.9,378.3a6.09,6.09,0,0,0-.4,1.9,50.23,50.23,0,0,0,.2,10.1l.1,2.9a13.57,13.57,0,0,1,.1,1.8,18.84,18.84,0,0,0,0-5.1l-.3-5.3s0-5,.7-5.3c0,0,1.1-1,2.3-4.5a18.45,18.45,0,0,1,1-1.6c-.4.3-3.4,2.5-3.7,5.1Z"/><path class="cls-20" d="M770.7,393.3v.6a9.4,9.4,0,0,1,.1,1.2,6,6,0,0,0-.1-1.8Z"/></g><g id="_Group_45" data-name="&lt;Group&gt;"><path class="cls-20" d="M768.4,368.6c-.3-.2-.6-.5-.9-.7a35.27,35.27,0,0,1,3.5,5.8l.1-.1c-1.4-2.7-2.7-4.9-2.7-5Zm6.1,14.7a34.6,34.6,0,0,0-3.4-9.6l-.1.1a19.53,19.53,0,0,1,1.9,5.6l1,3a7.37,7.37,0,0,1,.6,1.4v-.5Z"/><path class="cls-21" d="M774.5,383.3c-.3-1.8-1.5-9.3-6.1-14.7,0,.1,1.3,2.2,2.7,5.1a42.54,42.54,0,0,1,3.4,9.6Z"/><path class="cls-20" d="M768.4,368.6c4.5,5.4,5.8,12.9,6.1,14.7v.4a7.6,7.6,0,0,1,.4,1.1.6.6,0,0,0-.1-.4,6.12,6.12,0,0,0-.3-1.4s-1.3-10.4-6.1-14.4Z"/><path class="cls-22" d="M774.3,383.9s.7,3.2,1,5.8c-.1-1.5-.3-3.4-.5-4.8a7.59,7.59,0,0,0-.4-1.1c-.3-.7-.6-1.3-.6-1.4Z"/><path class="cls-20" d="M775.6,375.5a6.09,6.09,0,0,0-.4,1.9,50.23,50.23,0,0,0,.2,10.1l.1,2.9a13.57,13.57,0,0,1,.1,1.8,18.84,18.84,0,0,0,0-5.1l-.3-5.3s0-5,.7-5.3c0,0,1.1-1,2.3-4.5a18.45,18.45,0,0,1,1-1.6c-.4.3-3.4,2.5-3.7,5.1Z"/><path class="cls-20" d="M775.4,390.5v.6a9.4,9.4,0,0,1,.1,1.2,5.86,5.86,0,0,0-.1-1.8Z"/></g><g id="_Group_46" data-name="&lt;Group&gt;"><path class="cls-20" d="M815.7,462.7c.5-.4,1-.7,1.5-1.1a61.35,61.35,0,0,0-5.6,9.3l-.1-.1c2.1-4.5,4.1-8,4.2-8.1Zm-4.2,8.2a30.19,30.19,0,0,0-3,8.9l-1.5,4.7a12.5,12.5,0,0,0-1,2.2V486c.7-4.6,3.1-10.5,5.4-15.2l.1.1Z"/><path class="cls-21" d="M815.7,462.7c-.1.1-2.1,3.6-4.3,8.1-2.3,4.7-4.7,10.6-5.4,15.2.4-2.8,2.5-14.7,9.7-23.3Z"/><path class="cls-20" d="M806,486.4h0v.2a17.71,17.71,0,0,0-.6,1.7c0-.2.1-.4.1-.7.2-1.1.3-1.9.4-2.2,0,0,2.1-16.6,9.7-22.9-7.2,8.6-9.2,20.5-9.6,23.4v.5Z"/><path class="cls-22" d="M806,486.8c.5-1.1,1-2.1,1-2.2l-.8,2.3s-1,5.1-1.6,9.2c.2-2.4.5-5.5.8-7.6a5.77,5.77,0,0,1,.6-1.7Z"/><path class="cls-20" d="M804.2,473.6a12,12,0,0,1,.7,3.1s.8,9.9-.4,16.1l-.1,4.6c-.1,1.2-.2,2.3-.2,2.9a31.6,31.6,0,0,1,0-8.1l.5-8.4s0-8-1.2-8.5c0,0-1.7-1.6-3.6-7.2a15.81,15.81,0,0,0-1.7-2.6C798.9,466,803.7,469.5,804.2,473.6Z"/><path class="cls-20" d="M804.5,497.4v1c-.1,1.2-.1,1.9-.1,1.9A7.29,7.29,0,0,1,804.5,497.4Z"/></g><g id="_Group_47" data-name="&lt;Group&gt;"><path class="cls-20" d="M790.7,459.1c-.5-.4-1-.7-1.5-1.1a61.35,61.35,0,0,1,5.6,9.3l.1-.1c-2.1-4.5-4.1-8-4.2-8.1Zm4.2,8.3a30.19,30.19,0,0,1,3,8.9l1.5,4.7a12.5,12.5,0,0,1,1,2.2v-.7c-.7-4.6-3.1-10.5-5.4-15.2l-.1.1Z"/><path class="cls-21" d="M800.4,482.5c-.4-2.9-2.4-14.8-9.6-23.4.1.1,2.1,3.6,4.3,8.1C797.3,472,799.7,477.9,800.4,482.5Z"/><path class="cls-20" d="M800.5,482.1s-2.1-16.6-9.7-22.9c7.2,8.6,9.2,20.5,9.6,23.4v.7a17.71,17.71,0,0,1,.6,1.7c0-.2-.1-.4-.1-.7a10.86,10.86,0,0,0-.4-2.2Z"/><path class="cls-22" d="M800.2,483.4s1.1,5.1,1.6,9.2c-.2-2.4-.5-5.5-.8-7.7a7,7,0,0,0-.6-1.7c-.5-1.1-1-2.1-1-2.2l.8,2.4Z"/><path class="cls-20" d="M802.2,470a12,12,0,0,0-.7,3.1s-.8,9.9.4,16.1l.1,4.7c.1,1.2.2,2.3.2,2.9a31.6,31.6,0,0,0,0-8.1l-.5-8.4s0-8,1.2-8.5c0,0,1.7-1.6,3.6-7.2a15.81,15.81,0,0,1,1.7-2.6C807.5,462.4,802.7,465.9,802.2,470Z"/><path class="cls-20" d="M801.9,493.9v1c.1,1.2.1,1.9.1,1.9A7.28,7.28,0,0,0,801.9,493.9Z"/></g><g id="_Group_48" data-name="&lt;Group&gt;"><path class="cls-20" d="M798.2,454.6c-.5-.4-1-.7-1.5-1.1a61.35,61.35,0,0,1,5.6,9.3l.1-.1c-2.1-4.5-4.1-8-4.2-8.1Zm9.7,23.4c-.7-4.6-3.1-10.5-5.4-15.2l-.1.1a30.19,30.19,0,0,1,3,8.9l1.5,4.7a12.5,12.5,0,0,1,1,2.2V478Z"/><path class="cls-21" d="M802.5,462.8c2.3,4.7,4.7,10.6,5.4,15.2-.4-2.9-2.4-14.8-9.6-23.4,0,.1,2,3.6,4.2,8.2Z"/><path class="cls-20" d="M808.4,479.7c-.2-1.1-.3-1.9-.4-2.2,0,0-2.1-16.6-9.7-22.9,7.2,8.6,9.2,20.5,9.6,23.4v.7a17.71,17.71,0,0,1,.6,1.7c0-.2-.1-.5-.1-.7Z"/><path class="cls-22" d="M806.9,476.5l.8,2.3s1.1,5.1,1.6,9.2c-.2-2.4-.5-5.5-.8-7.7a7,7,0,0,0-.6-1.7c-.5-1-1-2-1-2.1Z"/><path class="cls-20" d="M809.6,465.5a12,12,0,0,0-.7,3.1s-.8,9.9.4,16.1l.1,4.7c.1,1.2.2,2.3.2,2.9a31.6,31.6,0,0,0,0-8.1l-.5-8.4s0-8,1.2-8.5c0,0,1.7-1.6,3.6-7.2a15.81,15.81,0,0,1,1.7-2.6C815,457.9,810.2,461.4,809.6,465.5Z"/><path class="cls-20" d="M809.4,489.4v1c.1,1.2.1,1.9.1,1.9A9.82,9.82,0,0,0,809.4,489.4Z"/></g><g id="_Group_49" data-name="&lt;Group&gt;"><path class="cls-17" d="M764.7,403.4s2.3,1.4,7.4-.5c0,0-1.5,5.1-8.6,3.3l-1.5-.4a4.15,4.15,0,0,0-3.2-1.1c0-.1-.6-3,5.9-1.3Z"/><path class="cls-17" d="M769,416.1a11.56,11.56,0,0,1-9-8.4s-1.9-2.7-3.3-2.1a4.3,4.3,0,0,1,2.2-1,4,4,0,0,1,3.2,1.1,9.16,9.16,0,0,1,2.2,3.1c-.2,0,2.1,6.2,4.7,7.3Z"/><path class="cls-18" d="M755.7,408.3c-1.5,3.1.8,16.3.8,16.3a3.45,3.45,0,0,1-3.3.9c.5-.4.8-.6.8-.6-2.7-1-3-13.5-3-13.5a3,3,0,0,1-.4.8,10,10,0,0,1-.2-1.6c0-.1.1-.1.1-.2a4.21,4.21,0,0,1-.2-.5c-.1-.5-.1-.8-.2-.9,1.1,1.6,5.6-.7,5.6-.7Zm-1.5-13.4c-.6,1.7,1.1,12.3,1.1,12.3-3.2,2-5.1,1.1-5.1,1.1.9-.6-.6-13.4-.7-14.3C749.7,395.4,754.2,394.9,754.2,394.9Z"/><path class="cls-19" d="M751,424.6c1-2.1.3-8.6-.3-12.5a6,6,0,0,0,.4-.8s.3,12.5,3,13.5a4.52,4.52,0,0,1-.8.6,7,7,0,0,1-2.3-.8Z"/><path class="cls-19" d="M750.7,412.1c.6,3.9,1.4,10.4.3,12.5a8.83,8.83,0,0,0,2.3.9c-1.2.9-3.4,2.3-4.6,1.8a2.44,2.44,0,0,1-.1-.7.77.77,0,0,1,.3-.1,1.38,1.38,0,0,1-.3-.4c-.1-1.1-.2-2.9-.5-4.8a50.72,50.72,0,0,1,1.2-7.6,3.76,3.76,0,0,0,1.4-1.6Zm-2.3-6.7c.4,3.2.8,6.1.8,6.1a4.75,4.75,0,0,1-4.1,1.6c.1-1.2-.6-3.8-1.4-6.5,0-3.3-.3-7-.4-9a11.42,11.42,0,0,0,1.6-.9h.6a57.52,57.52,0,0,0,2.9,8.7Z"/><path class="cls-19" d="M749.2,413.7a50.72,50.72,0,0,0-1.2,7.6c-.4-2.8-1.1-5.8-2.3-6.8a4.72,4.72,0,0,0,3.5-.8Z"/><path class="cls-18" d="M748.3,396.2c-.6.9-.3,5.3.1,9.2-1.3-3.2-2.7-7.1-2.8-8.7A13.76,13.76,0,0,0,748.3,396.2Zm-1-17.6c-1.5,3.1.8,16.3.8,16.3a2.91,2.91,0,0,1-2.4,1,6.75,6.75,0,0,1-1.4-.2c.9-.6,1.5-1.1,1.5-1.1-2.7-1-3-13.5-3-13.5a3.46,3.46,0,0,1-.7,1.2c-.3-1.7-.5-2.9-.5-3,1.2,1.7,5.7-.7,5.7-.7Z"/><path class="cls-19" d="M750.5,410.6c-2,3.7-5.3,2.9-5.3,2.9s.1-.2.1-.4a4.94,4.94,0,0,0,4.1-1.6s-.4-2.8-.8-6.1c.8,2,1.6,3.7,1.9,4.5A.85.85,0,0,0,750.5,410.6Z"/><path class="cls-18" d="M749.2,413.7a5.33,5.33,0,0,1-3.5.8c1.2,1,1.9,4,2.3,6.8-.1,2-.1,3.9.5,4.8v.5c-1,.3-4.3,1.4-5.5.3-.2-.2,2.3-10.3.4-13.2,0,0,3.6,1.9,5.9-1.1.2,0,.1.5-.1,1.1Zm-3.5-48.4c-.6,1.7,1.1,12.3,1.1,12.3-3.2,2-5.1,1.1-5.1,1.1.9-.6-.6-13.4-.7-14.3C741.2,365.7,745.7,365.3,745.7,365.3Zm-1.9,41.2a30.63,30.63,0,0,1,1.4,6.5,4.1,4.1,0,0,1-1.9-.7C743.7,411.7,743.9,409.3,743.8,406.5Z"/><path class="cls-19" d="M744.4,395.7l-.9.6c-.1,0-.1-.1-.2-.1v.2c-1,.6-2.1,1-2.8.7-.3-.1-.4-10.7-3-12.8a5.41,5.41,0,0,0,4.7-1.9c.6,3.9,1.4,10.5.3,12.6,0-.1.8.4,1.9.7Zm-1,1.9c.1,2,.4,5.7.4,9-1.2-4.1-2.8-8.5-2.8-8.5a5.45,5.45,0,0,0,2.4-.5Z"/><path class="cls-19" d="M742.5,394.9c1.1-2.1.3-8.7-.3-12.6a7.46,7.46,0,0,0,.7-1.2s.3,12.5,3,13.5a7.46,7.46,0,0,1-1.5,1.1A7.87,7.87,0,0,1,742.5,394.9Z"/><path class="cls-17" d="M740.3,364.2s-.6,4.9-3.7,7.2c0,0-2,4-1,7.6-.6-2-2.7-11.1,2.9-14.8h1.8Z"/><path class="cls-17" d="M740.3,364.2h-1.8c-2.8-2-5.8,8.5-5.8,8.5-.3-7.1,3.1-10.1,3.1-10.1C739,362.6,740.2,364.1,740.3,364.2Z"/></g><g id="_Group_50" data-name="&lt;Group&gt;"><path class="cls-17" d="M752.6,403.5s2.3,1.4,7.4-.5c0,0-1.5,5.1-8.6,3.3l-1.5-.4a4.15,4.15,0,0,0-3.2-1.1c0-.1-.6-3,5.9-1.3Z"/><path class="cls-17" d="M756.8,416.3a11.56,11.56,0,0,1-9-8.4s-1.9-2.7-3.3-2.1a4.3,4.3,0,0,1,2.2-1,4,4,0,0,1,3.2,1.1,9.16,9.16,0,0,1,2.2,3.1c-.1-.1,2.2,6.1,4.7,7.3Z"/><path class="cls-18" d="M743.6,408.4c-1.5,3.1.8,16.3.8,16.3a3.45,3.45,0,0,1-3.3.9c.5-.4.8-.6.8-.6-2.7-1-3-13.5-3-13.5a3,3,0,0,1-.4.8,10,10,0,0,1-.2-1.6c0-.1.1-.1.1-.2a4.21,4.21,0,0,1-.2-.5c-.1-.5-.1-.8-.2-.9,1.1,1.7,5.6-.7,5.6-.7Zm-1.5-13.3c-.6,1.7,1.1,12.3,1.1,12.3-3.2,2-5.1,1.1-5.1,1.1.9-.6-.6-13.4-.7-14.3C737.6,395.6,742.1,395.1,742.1,395.1Z"/><path class="cls-19" d="M739,411.5s.3,12.5,3,13.5a4.52,4.52,0,0,1-.8.6,11.13,11.13,0,0,1-2.3-.9c1-2.1.3-8.6-.3-12.5a4.35,4.35,0,0,0,.4-.7Z"/><path class="cls-19" d="M738.6,412.3c.6,3.9,1.4,10.4.3,12.5a8.83,8.83,0,0,0,2.3.9c-1.2.9-3.4,2.3-4.6,1.8a2.44,2.44,0,0,1-.1-.7.77.77,0,0,1,.3-.1,1.38,1.38,0,0,1-.3-.4c-.1-1.1-.2-2.9-.5-4.8a50.72,50.72,0,0,1,1.2-7.6,5.56,5.56,0,0,0,1.4-1.6Zm-2.3-6.8c.4,3.2.8,6.1.8,6.1a4.75,4.75,0,0,1-4.1,1.6c.1-1.2-.6-3.8-1.4-6.5,0-3.3-.3-7-.4-9a11.42,11.42,0,0,0,1.6-.9h.6a51,51,0,0,0,2.9,8.7Z"/><path class="cls-19" d="M737.1,413.9a50.72,50.72,0,0,0-1.2,7.6c-.4-2.8-1.1-5.8-2.3-6.8a6.14,6.14,0,0,0,3.5-.8Z"/><path class="cls-18" d="M736.2,396.3c-.6.9-.3,5.3.1,9.2-1.3-3.2-2.7-7.1-2.8-8.7A13.76,13.76,0,0,0,736.2,396.3Zm-1-17.5c-1.5,3.1.8,16.3.8,16.3a2.91,2.91,0,0,1-2.4,1,6.75,6.75,0,0,1-1.4-.2c.9-.6,1.5-1.1,1.5-1.1-2.7-1-3-13.5-3-13.5a3.46,3.46,0,0,1-.7,1.2c-.3-1.7-.5-2.9-.5-3,1.2,1.6,5.7-.7,5.7-.7Z"/><path class="cls-19" d="M733.1,413.2a4.94,4.94,0,0,0,4.1-1.6s-.4-2.8-.8-6.1c.8,2,1.6,3.7,1.9,4.5,0,.2.1.4.1.7-2,3.7-5.3,2.9-5.3,2.9S733.1,413.4,733.1,413.2Z"/><path class="cls-18" d="M737.1,413.9a5.33,5.33,0,0,1-3.5.8c1.2,1,1.9,4,2.3,6.8-.1,2-.1,3.9.5,4.8v.5c-1,.3-4.3,1.4-5.5.3-.2-.2,2.3-10.3.4-13.2,0,0,3.6,1.9,5.9-1.1.1,0,0,.4-.1,1.1Zm-3.5-48.5c-.6,1.7,1.1,12.3,1.1,12.3-3.2,2-5.1,1.1-5.1,1.1.9-.6-.6-13.4-.7-14.3C729.1,365.9,733.6,365.4,733.6,365.4Zm-1.9,41.3a30.63,30.63,0,0,1,1.4,6.5,4.1,4.1,0,0,1-1.9-.7C731.6,411.9,731.7,409.4,731.7,406.7Z"/><path class="cls-19" d="M732.3,395.8l-.9.6c-.1,0-.1-.1-.2-.1v.2c-1,.6-2.1,1-2.8.7-.3-.1-.4-10.7-3-12.8a5.41,5.41,0,0,0,4.7-1.9c.6,3.9,1.4,10.5.3,12.6a6,6,0,0,0,1.9.7Zm-1,1.9c.1,2,.4,5.7.4,9-1.2-4.1-2.8-8.5-2.8-8.5a4.34,4.34,0,0,0,2.4-.5Z"/><path class="cls-19" d="M730.8,381.2s.3,12.5,3,13.5a7.46,7.46,0,0,1-1.5,1.1,8.31,8.31,0,0,1-1.8-.8c1.1-2.1.3-8.7-.3-12.6A6.65,6.65,0,0,0,730.8,381.2Z"/><path class="cls-17" d="M728.2,364.3s-.6,4.9-3.7,7.2c0,0-2,4-1,7.6-.6-2-2.7-11.1,2.9-14.8h1.8Z"/><path class="cls-17" d="M728.2,364.3h-1.8c-2.8-2-5.8,8.5-5.8,8.5-.3-7.1,3.1-10.1,3.1-10.1C726.9,362.7,728.1,364.2,728.2,364.3Z"/></g><path class="cls-23" d="M571.9,631.2c-2.2,4.8-4.1,9.6-5.8,14.2-15,41.6-24.5,75.5-26.7,75.3-4.8-.4-537.8-.6-537.8-.6L125.3,606m48.5-45,41.6-86.1,120.7,55.5,257.3-158s-34.6,115.7-53.5,193.7"/><path class="cls-24" d="M0,198.4l21.1,47.8,98.7,5.7V507.2L0,664.3Z"/><path class="cls-25" d="M164.5,260.3l-3.1,214.4L297.8,336.1l70.7-.3-35-84.8Z"/><path class="cls-5" d="M57.9,434.9s3,41.4,0,49c0,0,4.4-6.3,7.1-4.5,0,0-7.7-40.8-3.6-51Z"/><path class="cls-21" d="M59.5,425.4s-16.4,15.2-12.6,24.4C46.9,449.8,39.5,424.1,59.5,425.4Z"/><path class="cls-26" d="M61.4,424.6s20.5,1,16.2,12.9C77.6,437.6,86.9,414.1,61.4,424.6Z"/><path class="cls-21" d="M59.2,423.5s-12.6-12.1-20.3-.9C38.9,422.5,47.9,399.6,59.2,423.5Zm1.9-.3s14.6-18.4,22.3-9.2C83.3,413.9,70.7,396.1,61.1,423.2Z"/><path class="cls-27" d="M59.7,418.4s-6.3-16.9,4.1-15C63.8,403.4,58.4,412.7,59.7,418.4Z"/><path class="cls-5" d="M42.3,474.6s3,41.4,0,49c0,0,4.4-6.3,7.1-4.5,0,0-7.7-40.8-3.6-51l-3.5,6.5Z"/><path class="cls-26" d="M43.9,465.1s-16.4,15.2-12.6,24.4C31.3,489.5,23.9,463.8,43.9,465.1Z"/><path class="cls-20" d="M45.8,464.3s20.5,1,16.2,12.9C62,477.2,71.3,453.8,45.8,464.3Z"/><path class="cls-26" d="M43.5,463.1s-12.6-12.1-20.3-.9C23.3,462.2,32.3,439.2,43.5,463.1Zm1.9-.3s14.6-18.4,22.3-9.2C67.7,453.6,55,435.7,45.4,462.8Z"/><path class="cls-5" d="M36.7,383.9s1.9,26.7,0,31.7c0,0,2.8-4.1,4.6-2.9,0,0-5-26.3-2.3-33l-2.3,4.2Z"/><path class="cls-21" d="M37.7,377.7s-10.6,9.8-8.1,15.8C29.6,393.5,24.8,376.9,37.7,377.7Z"/><path class="cls-26" d="M39,377.2s13.3.6,10.4,8.4C49.4,385.6,55.4,370.4,39,377.2Z"/><path class="cls-21" d="M37.5,376.5s-8.1-7.8-13.1-.6C24.4,375.9,30.3,361,37.5,376.5Zm1.2-.2s9.4-11.9,14.4-6C53.1,370.3,44.9,358.8,38.7,376.3Z"/><path class="cls-27" d="M37.9,373.2s-4.1-10.9,2.6-9.7C40.5,363.5,37,369.5,37.9,373.2Z"/><path class="cls-5" d="M26.6,409.5s1.9,26.7,0,31.7c0,0,2.8-4.1,4.6-2.9,0,0-5-26.3-2.3-33l-2.3,4.2Z"/><path class="cls-26" d="M27.6,403.3s-10.6,9.8-8.1,15.8C19.5,419.1,14.7,402.5,27.6,403.3Z"/><path class="cls-20" d="M28.9,402.8s13.3.6,10.4,8.4C39.3,411.2,45.3,396,28.9,402.8Z"/><path class="cls-26" d="M27.4,402.1s-8.1-7.8-13.1-.6C14.3,401.5,20.2,386.6,27.4,402.1Zm1.2-.2S38,390,43,395.9C43,395.9,34.8,384.4,28.6,401.9Z"/><path class="cls-5" d="M70.6,336.8s2,27.1,0,32.1c0,0,2.9-4.1,4.7-3,0,0-5-26.7-2.3-33.4Z"/><path class="cls-21" d="M71.7,330.5s-10.7,9.9-8.2,16C63.4,346.5,58.6,329.7,71.7,330.5Z"/><path class="cls-26" d="M72.9,330s13.4.6,10.6,8.5C83.5,338.5,89.6,323.1,72.9,330Z"/><path class="cls-21" d="M71.4,329.2s-8.2-7.9-13.3-.6C58.2,328.6,64.1,313.6,71.4,329.2Zm1.3-.1s9.6-12,14.6-6C87.3,323,79,311.3,72.7,329.1Z"/><path class="cls-27" d="M71.8,325.9s-4.1-11.1,2.7-9.8C74.5,316.1,71,322.2,71.8,325.9Z"/><path class="cls-5" d="M60.4,362.7s2,27.1,0,32.1c0,0,2.9-4.1,4.7-3,0,0-5-26.7-2.3-33.4Z"/><path class="cls-26" d="M61.4,356.5s-10.7,9.9-8.2,16C53.2,372.4,48.4,355.6,61.4,356.5Z"/><path class="cls-20" d="M62.7,356s13.4.6,10.6,8.5C73.3,364.4,79.4,349.1,62.7,356Z"/><path class="cls-26" d="M61.2,355.2s-8.2-7.9-13.3-.6C47.9,354.6,53.9,339.5,61.2,355.2Zm1.3-.2s9.6-12,14.6-6C77,349,68.7,337.3,62.5,355Z"/><path class="cls-5" d="M29.5,311s1.5,21.3,0,25.2c0,0,2.3-3.2,3.7-2.3,0,0-3.9-21-1.8-26.3L29.5,311Z"/><path class="cls-21" d="M30.3,306.1s-8.5,7.8-6.5,12.6C23.9,318.7,20,305.5,30.3,306.1Z"/><path class="cls-26" d="M31.3,305.7s10.6.5,8.3,6.7C39.6,312.4,44.4,300.3,31.3,305.7Z"/><path class="cls-21" d="M30.1,305.1s-6.5-6.2-10.4-.5C19.7,304.6,24.4,292.8,30.1,305.1Zm1-.1s7.5-9.5,11.5-4.8C42.6,300.2,36.1,291,31.1,305Z"/><path class="cls-27" d="M30.4,302.5s-3.3-8.7,2.1-7.7C32.5,294.8,29.8,299.6,30.4,302.5Z"/><path class="cls-5" d="M21.4,331.4s1.5,21.3,0,25.2c0,0,2.3-3.2,3.7-2.3,0,0-3.9-21-1.8-26.3l-1.9,3.4Z"/><path class="cls-26" d="M22.3,326.5s-8.5,7.8-6.5,12.6C15.8,339.1,12,325.9,22.3,326.5Z"/><path class="cls-20" d="M23.3,326.1s10.6.5,8.3,6.7C31.6,332.8,36.4,320.7,23.3,326.1Z"/><path class="cls-26" d="M22.1,325.5s-6.5-6.2-10.4-.5C11.7,325,16.3,313.2,22.1,325.5Zm1-.1s7.5-9.5,11.5-4.8C34.5,320.6,28,311.4,23.1,325.4Z"/><path class="cls-20" d="M32,531.7l-9.5-13.5,7,6.5,5.2-14.6,2.2,10.7,9.8-3.7-5.4,6.6,5.4,3.4s-12.2,6.7-12.1,6.6-2.6-2-2.6-2Zm32.1-34-9.5-13.5,7,6.5,5.2-14.6L69,486.8l9.8-3.7-5.4,6.6,5.4,3.4s-12.2,6.7-12.1,6.6S64.1,497.7,64.1,497.7Z"/><path class="cls-20" d="M80.8,498.3l-9.5-13.5,7,6.5,5.2-14.6,2.2,10.7,9.8-3.7-5.4,6.6,5.4,3.4s-12.2,6.7-12.1,6.6A25.6,25.6,0,0,0,80.8,498.3ZM82,447.4l-9.5-13.5,7,6.5,5.2-14.6,2.2,10.7,9.8-3.7-5.4,6.6,5.4,3.4s-12.2,6.7-12.1,6.6A25.6,25.6,0,0,0,82,447.4ZM19.5,365.7l-6.2-8.8,4.6,4.3,3.4-9.5,1.4,7,6.4-2.4-3.5,4.3,3.5,2.2s-8,4.4-7.9,4.3S19.5,365.7,19.5,365.7Z"/><path class="cls-28" d="M180.7,391.6l-9.5-13.5,7,6.5,5.2-14.6,2.2,10.7,9.8-3.7-5.4,6.6,5.4,3.4s-12.2,6.7-12.1,6.6a25.6,25.6,0,0,0-2.6-2Zm32.2-34.1L203.4,344l7,6.5,5.2-14.6,2.2,10.7,9.8-3.7-5.4,6.6,5.4,3.4s-12.2,6.7-12.1,6.6-2.6-2-2.6-2Z"/><path class="cls-28" d="M229.5,358.1,220,344.6l7,6.5,5.2-14.6,2.2,10.7,9.8-3.7-5.4,6.6,5.4,3.4s-12.2,6.7-12.1,6.6-2.6-2-2.6-2Zm1.3-50.9-9.5-13.5,7,6.5,5.2-14.6,2.2,10.7,9.8-3.7-5.4,6.6,5.4,3.4s-12.2,6.7-12.1,6.6-2.6-2-2.6-2Zm42.6-18-9.5-13.5,7,6.5,5.2-14.6,2.2,10.7,9.8-3.7-5.4,6.6,5.4,3.4s-12.2,6.7-12.1,6.6A25.6,25.6,0,0,0,273.4,289.2Zm-10.1,46.1-9.5-13.5,7,6.5,5.2-14.6,2.2,10.7,9.8-3.7-5.4,6.6,5.4,3.4s-12.2,6.7-12.1,6.6A25.6,25.6,0,0,0,263.3,335.3Zm-71.2-30.8-6.8-9.7,5.1,4.7,3.7-10.5,1.6,7.7,7-2.7-3.9,4.8,3.9,2.5s-8.8,4.8-8.7,4.7-1.9-1.5-1.9-1.5Z"/><path class="cls-20" d="M51.3,324.7,44.5,315l5.1,4.7,3.7-10.5,1.6,7.7,7-2.7L58,319l3.9,2.5s-8.8,4.8-8.7,4.7S51.3,324.7,51.3,324.7Z"/><path class="cls-13" d="M429.6,669.4s2.5-14.9,22.4-5.3c.2.1.3.2.5.2,20.3,10.1-.3-.2-.3-.2s16.3-6.4,16.9,7.8c0,0,.8,3.6-8,1.7,0,0-5.2,1.5-4.5,4.3l-32.5-1.5s-6.1-7.3,2.3-7.1C426.4,669.5,429.3,670.6,429.6,669.4Z"/><path class="cls-5" d="M447.9,704.5c-.2-.4.1-10.2-1.9-13.3,0,0,1.7-9.1-.8-12.1,0,0-5.6,1.2-9.1,0l-1.8-2.6,2.7,1.7,7.5-.1,2.6.4.7,12,.5,1.4v-4.4l3.4-4.9v-3l-3.2-.6,2.2-.2,1.8.4,1.5-2.6-1,3.2-.4,2.3,2.1-2.3,1-.7,1.1-2.5-.8,3.9-6.8,7.6,1.4,15.9-2.7.5Z"/><path class="cls-29" d="M431.8,670.3s2.5-14.9,22.4-5.3c.2.1.3.2.5.2,20.3,10.1-.3-.2-.3-.2s16.3-6.4,16.9,7.8c0,0,.8,3.6-8,1.7,0,0-5.2,1.5-4.5,4.3l-32.5-1.5s-6.1-7.3,2.3-7.1C428.6,670.3,431.5,671.4,431.8,670.3Z"/><path class="cls-13" d="M267.1,678.7s-2.3-13.3-20-4.7c-.1.1-.3.1-.4.2-18.1,9,.3-.1.3-.1s-14.5-5.7-15.1,6.9c0,0-.7,3.2,7.1,1.5,0,0,4.6,1.3,4,3.8l29-1.3s5.4-6.5-2-6.3c-.1,0-2.6,1-2.9,0Z"/><path class="cls-5" d="M250.9,709.9c.2-.3-.1-9.1,1.7-11.8,0,0-1.5-8.1.7-10.7,0,0,5,1.1,8.1,0l1.6-2.3-2.4,1.5-6.7-.1-2.3.3-.6,10.7-.5,1.3v-3.9l-3-4.4v-2.6l2.8-.5-1.9-.2-1.6.3-1.4-2.3.9,2.9.4,2.1-1.8-2.1-.9-.7-1-2.2.7,3.5,6.1,6.8-1.3,14.1,2.4.3Z"/><path class="cls-29" d="M265.2,679.4s-2.3-13.3-20-4.7c-.1.1-.3.1-.4.2-18.1,9,.3-.1.3-.1s-14.5-5.7-15.1,6.9c0,0-.7,3.2,7.1,1.5,0,0,4.6,1.3,4,3.8l28.9-1.3s5.4-6.5-2-6.3c0,.1-2.5,1-2.8,0Z"/><path class="cls-13" d="M104.8,677.2s-2.3-13.3-20-4.7c-.1.1-.3.1-.4.2-18.1,9,.3-.1.3-.1s-14.5-5.7-15.1,6.9c0,0-.7,3.2,7.1,1.5,0,0,4.6,1.3,4,3.8l28.9-1.3s5.4-6.5-2-6.3c.1,0-2.5,1-2.8,0Z"/><path class="cls-5" d="M88.6,708.4c.2-.3-.1-9.1,1.7-11.8,0,0-1.5-8.1.7-10.7,0,0,5,1.1,8.1,0l1.6-2.3-2.4,1.5-6.7-.1-2.3.3L88.6,696l-.5,1.3v-3.9l-3-4.4v-2.6l2.8-.5-1.9-.2-1.6.3L83,683.7l.9,2.9.4,2.1-1.8-2.1-.9-.7-1-2.2.7,3.5,6.1,6.8-1.3,14,2.5.4Z"/><path class="cls-29" d="M102.9,677.9s-2.3-13.3-20-4.7c-.1.1-.3.1-.4.2-18.1,9,.3-.1.3-.1s-14.5-5.7-15.1,6.9c0,0-.7,3.2,7.1,1.5,0,0,4.6,1.3,4,3.8l28.9-1.3s5.4-6.5-2-6.3c.1.1-2.5,1.1-2.8,0Z"/><path class="cls-5" d="M412.8,665.1V647l-2.7-4.1-7.2-4h2.6l.7-1.5,2.3,2.7,4.3,3.9-1.2-6.6-3.8-1.3,5,1.3,1.8-1.3-1.1,3.6,1.1,6.2,4.2-5.1-2.4-4.7,3.9,3.6,5.6-2.3-6.2,4.4-4.4,5.2.7,18.1Z"/><path class="cls-13" d="M407.3,628.7s-5.7-.8-8,3.2c0,0-6.6-.4-6,5.5a8.81,8.81,0,0,0,5-1.3s-4.3,4.2,11.7,2.8c0,0,6.7-4,7.5,1.5,0,0,13.8,6.1,20.8,0,0,0-1.8-11-13.5-10.8C424.7,629.5,409.8,617.5,407.3,628.7Z"/><path class="cls-13" d="M502.1,519.4s2.5-14.9,22.4-5.3c.2.1.3.2.5.2,20.3,10.1-.3-.2-.3-.2s16.3-6.4,16.9,7.8c0,0,.8,3.6-8,1.7,0,0-5.2,1.5-4.5,4.3l-32.5-1.5s-6.1-7.3,2.3-7.1c0,.2,2.9,1.3,3.2.1Z"/><path class="cls-5" d="M520.4,554.6c-.2-.4.1-10.2-1.9-13.3,0,0,1.7-9.1-.8-12.1,0,0-5.6,1.2-9.1,0l-1.8-2.6,2.7,1.7,7.5-.1,2.6.4.7,12,.5,1.4v-4.4l3.4-4.9v-3l-3.2-.6,2.2-.2,1.8.4,1.5-2.6-1,3.2-.4,2.3,2.1-2.3,1-.7,1.1-2.5-.8,3.9-6.8,7.6,1.4,15.9-2.7.5Z"/><path class="cls-29" d="M504.3,520.3s2.5-14.9,22.4-5.3c.2.1.3.2.5.2,20.3,10.1-.3-.2-.3-.2s16.3-6.4,16.9,7.8c0,0,.8,3.6-8,1.7,0,0-5.2,1.5-4.5,4.3l-32.5-1.5s-6.1-7.3,2.3-7.1c0,.1,2.9,1.2,3.2.1Z"/><path class="cls-5" d="M485.3,515.1V497l-2.7-4.1-7.2-4H478l.7-1.5,2.3,2.7,4.3,3.9-1.2-6.6-3.8-1.3,5,1.3,1.8-1.3-1.1,3.6,1.1,6.2,4.2-5.1-2.4-4.7,3.9,3.6,5.6-2.3-6.2,4.4-4.4,5.2.7,18.1Z"/><path class="cls-13" d="M479.8,478.7s-5.7-.8-8,3.2c0,0-6.6-.4-6,5.5a8.81,8.81,0,0,0,5-1.3s-4.3,4.2,11.7,2.8c0,0,6.7-4,7.5,1.5,0,0,13.8,6.1,20.8,0,0,0-1.8-11-13.5-10.8-.1,0-15-12.1-17.5-.9Z"/><path class="cls-5" d="M211.2,692.6V666.3l-3.8-6.1-10.6-5.8h3.8l1.1-2.2,3.3,4,6.2,5.6-1.8-9.6-5.4-1.8,7.2,1.8,2.6-1.8-1.5,5.2,1.5,9,6.2-7.4-3.6-6.8,5.7,5.2,8.3-3.4-9.1,6.5-6.4,7.6,1,26.3Z"/><path class="cls-13" d="M203.2,639.6s-8.3-1.2-11.6,4.6c0,0-9.6-.6-8.8,8a12.38,12.38,0,0,0,7.2-1.9s-6.2,6.2,17.1,4c0,0,9.8-5.9,10.9,2.2,0,0,20.2,8.9,30.2,0,0,0-2.6-16-19.6-15.7,0,0-21.7-17.6-25.4-1.2Z"/><path class="cls-13" d="M418.4,484.5s4.4-25.6,38.6-9.1c.3.1.5.3.8.4,35,17.4-.6-.3-.6-.3s28.1-11,29.1,13.4c0,0,1.4,6.1-13.7,3,0,0-8.9,2.5-7.8,7.4l-55.9-2.5s-10.5-12.5,3.9-12.2c.1-.1,5.1,1.8,5.6-.1Z"/><path class="cls-5" d="M449.8,544.8c-.4-.6.2-17.6-3.2-22.9,0,0,2.8-15.7-1.4-20.8,0,0-9.6,2.1-15.6,0l-3-4.4,4.6,3,13-.2,4.4.6,1.2,20.7.9,2.4v-7.6l5.9-8.5V502l-5.6-1,3.7-.4,3,.6,2.7-4.4-1.8,5.5-.7,4,3.6-4,1.8-1.3,2-4.2-1.4,6.8-11.7,13.1,2.5,27.3Z"/><path class="cls-29" d="M422.1,485.9s4.4-25.6,38.6-9.1c.3.1.5.3.8.4,35,17.4-.6-.3-.6-.3s28.1-11,29.1,13.4c0,0,1.4,6.1-13.7,3,0,0-8.9,2.5-7.8,7.4l-55.9-2.5s-10.5-12.5,3.9-12.2c.1,0,5.1,1.9,5.6-.1Z"/><path class="cls-25" d="M388,711.2l30.4,1-3.5-8s.7,5.7,0,5.3-2.9-6.8-2.9-6.8v6.6l-1.6-11-2.6,10.3-1.7-6.5-2,5-2.1-3.9-.5,5-.8-6.5-4.5,8.5-.5-6.1-1.9,4.7-4-6.6v7.1l-2.5-2.3Zm2.5-40,30.4,1-3.5-8s.7,5.7,0,5.3-2.9-6.8-2.9-6.8v6.6l-1.6-11-2.6,10.3-1.7-6.5-2,5-2.1-3.9-.5,5-.8-6.5-4.5,8.5-.5-6.1-1.9,4.7-4-6.6v7.1l-2.5-2.3Zm-140.4-13,30.4,1-3.5-8s.7,5.7,0,5.3-2.9-6.8-2.9-6.8v6.6l-1.6-11-2.6,10.3-1.7-6.5-2,5-2.1-3.9-.5,5-.8-6.5-4.5,8.5-.5-6.1-1.9,4.7-4-6.6v7.1l-2.5-2.3.7,4.2Zm-95.3,46,30.4,1-3.5-8s.7,5.7,0,5.3-2.9-6.8-2.9-6.8v6.6l-1.6-11-2.6,10.3L173,695l-2,5-2.1-3.9-.5,5-.8-6.5-4.5,8.5-.5-6.1-1.9,4.7-4-6.6v7.1l-2.5-2.3.6,4.3Zm-3.4-36.1,30.4,1-3.5-8s.7,5.7,0,5.3-2.9-6.8-2.9-6.8v6.6l-1.6-11-2.6,10.3-1.7-6.5-2,5-2.1-3.9-.5,5-.8-6.5-4.5,8.5-.5-6.1-1.9,4.7-4-6.6v7.1l-2.5-2.3.7,4.2Z"/><path class="cls-25" d="M174.6,674.8l30.4,1-3.5-8s.7,5.7,0,5.3-2.9-6.8-2.9-6.8v6.6l-1.6-11-2.6,10.3-1.7-6.5-2,5-2.1-3.9-.5,5-.8-6.5-4.5,8.5-.5-6.1-1.9,4.7-4-6.6v7.1l-2.5-2.3.7,4.2ZM382.9,552.1l30.4,1-3.5-8s.7,5.7,0,5.3-2.9-6.8-2.9-6.8v6.6l-1.6-11-2.6,10.3L401,543l-2,5-2.1-3.9-.5,5-.8-6.5-4.5,8.5-.5-6.1-1.9,4.7-4-6.6v7.1l-2.5-2.3ZM460.5,535l30.4,1-3.5-8s.7,5.7,0,5.3-2.9-6.8-2.9-6.8v6.6l-1.6-11-2.6,10.3-1.7-6.5-2,5-2.1-3.9-.5,5-.8-6.5-4.5,8.5-.5-6.1-1.9,4.7-4-6.6v7.1l-2.5-2.3Z"/><path class="cls-25" d="M471.6,545.1l30.4,1-3.5-8s.7,5.7,0,5.3-2.9-6.8-2.9-6.8v6.6l-1.6-11-2.6,10.3-1.7-6.5-2,5-2.1-3.9-.5,5-.8-6.5-4.5,8.5-.5-6.1-1.9,4.7-4-6.6v7.1l-2.5-2.3Zm54.6-55.6,30.4,1-3.5-8s.7,5.7,0,5.3-2.9-6.8-2.9-6.8v6.6l-1.6-11L546,486.9l-1.7-6.5-2,5-2.1-3.9-.5,5-.8-6.5-4.5,8.5-.5-6.1L532,487l-4-6.6v7.1l-2.5-2.3.7,4.3Zm-44.4-21,30.4,1-3.5-8s.7,5.7,0,5.3-2.9-6.8-2.9-6.8v6.6l-1.6-11-2.6,10.3-1.7-6.5-2,5-2.1-3.9-.5,5-.8-6.5-4.5,8.5-.5-6.1-1.9,4.7-4-6.6v7.1l-2.5-2.3.7,4.2ZM234.5,546.4l30.4,1-3.5-8s.7,5.7,0,5.3-2.9-6.8-2.9-6.8v6.6l-1.6-11-2.6,10.3-1.7-6.5-2,5-2.1-3.9-.5,5-.8-6.5-4.5,8.5-.5-6.1-1.9,4.7-4-6.6v7.1l-2.5-2.3.7,4.2Zm-13-16.7,30.4,1-3.5-8s.7,5.7,0,5.3-2.9-6.8-2.9-6.8v6.6l-1.6-11-2.6,10.3-1.7-6.5-2,5-2.1-3.9-.5,5-.8-6.5-4.5,8.5-.5-6.1-1.9,4.7-4-6.6v7.1l-2.5-2.3.7,4.2Z"/><path class="cls-30" d="M647.9,587.8H184c-23.5,0-42.6-22.8-42.6-50.8V275.5c0-28.1,19.1-50.8,42.6-50.8H647.9c23.5,0,42.6,22.8,42.6,50.8V537C690.5,565,671.5,587.8,647.9,587.8Z"/><path class="cls-31" d="M208.6,375H89.1a12,12,0,0,1-12-12V333a12,12,0,0,1,12-12H208.6a12,12,0,0,1,12,12v30A12,12,0,0,1,208.6,375Z"/><path class="cls-32" d="M205.9,372.3H88.4a12,12,0,0,1-12-12V333a12,12,0,0,1,12-12H205.9a12,12,0,0,1,12,12v27.3A12,12,0,0,1,205.9,372.3Z"/><path class="cls-31" d="M658.6,114H539.1a12,12,0,0,1-12-12V72a12,12,0,0,1,12-12H658.6a12,12,0,0,1,12,12v30A12,12,0,0,1,658.6,114Z"/><path class="cls-32" d="M655.9,111.3H538.4a12,12,0,0,1-12-12V72a12,12,0,0,1,12-12H655.9a12,12,0,0,1,12,12V99.3A12,12,0,0,1,655.9,111.3Z"/><path class="cls-31" d="M973.6,500H854.1a12,12,0,0,1-12-12V458a12,12,0,0,1,12-12H973.6a12,12,0,0,1,12,12v30A12,12,0,0,1,973.6,500Z"/><path class="cls-32" d="M970.9,497.3H853.4a12,12,0,0,1-12-12V458a12,12,0,0,1,12-12H970.9a12,12,0,0,1,12,12v27.3A12,12,0,0,1,970.9,497.3Z"/><g class="cls-33"><path d="M543.61,81.22h1.7l3.93,5.17V81.22h1.82v8.4h-1.57l-4.07-5.34v5.34h-1.82Z"/><path d="M552.71,85.44v0a4.46,4.46,0,0,1,8.92,0v0a4.46,4.46,0,0,1-8.92,0Zm7,0v0a2.55,2.55,0,0,0-2.54-2.64,2.51,2.51,0,0,0-2.52,2.61v0a2.55,2.55,0,0,0,2.54,2.64A2.51,2.51,0,0,0,559.71,85.44Z"/><path d="M563.29,81.22h3.84a3.34,3.34,0,0,1,2.45.85,2.64,2.64,0,0,1,.72,1.92v0a2.61,2.61,0,0,1-1.8,2.6l2.05,3h-2.16l-1.8-2.69h-1.45v2.69h-1.85ZM567,85.3c.9,0,1.42-.48,1.42-1.19v0c0-.79-.55-1.2-1.45-1.2h-1.83V85.3Z"/><path d="M573.92,82.92h-2.55v-1.7h7v1.7h-2.55v6.69h-1.85Z"/><path d="M579.74,81.22h1.85v3.32H585V81.22h1.85v8.4H585V86.25h-3.41v3.37h-1.85Z"/><path d="M595.33,81.16H597l3.6,8.46h-1.93l-.77-1.88h-3.55l-.77,1.88h-1.88Zm1.94,4.94-1.12-2.72L595,86.1Z"/><path d="M601.94,81.22h2l2.21,3.55,2.21-3.55h2v8.4H608.5V84.13l-2.36,3.59h0l-2.34-3.55v5.45h-1.81Z"/><path d="M612.35,81.22h6.33v1.64h-4.5v1.7h4v1.64h-4V88h4.56v1.64h-6.39Z"/><path d="M620.39,81.22h3.84a3.34,3.34,0,0,1,2.45.85A2.64,2.64,0,0,1,627.4,84v0a2.61,2.61,0,0,1-1.8,2.6l2.05,3h-2.16l-1.8-2.69h-1.45v2.69h-1.85Zm3.72,4.08c.9,0,1.42-.48,1.42-1.19v0c0-.79-.55-1.2-1.45-1.2h-1.83V85.3Z"/><path d="M629.15,81.22H631v8.4h-1.85Z"/><path d="M632.73,85.44v0a4.27,4.27,0,0,1,4.38-4.34,4.33,4.33,0,0,1,3.31,1.29l-1.17,1.36a3.1,3.1,0,0,0-2.15-.95,2.49,2.49,0,0,0-2.44,2.61v0a2.49,2.49,0,0,0,2.44,2.64,3,3,0,0,0,2.21-1l1.18,1.19a4.29,4.29,0,0,1-3.44,1.5A4.24,4.24,0,0,1,632.73,85.44Z"/><path d="M644.83,81.16h1.7l3.6,8.46h-1.93l-.77-1.88h-3.55l-.77,1.88h-1.88Zm1.94,4.94-1.12-2.72-1.12,2.72Z"/></g><g class="cls-33"><path d="M900.48,469.16h1.7l3.6,8.46h-1.93l-.77-1.88h-3.55l-.77,1.88h-1.88Zm1.94,4.94-1.12-2.72-1.12,2.72Z"/><path d="M906.39,476.39l1.09-1.31a3.86,3.86,0,0,0,2.51,1c.76,0,1.21-.3,1.21-.79v0c0-.47-.29-.71-1.69-1.07-1.69-.43-2.78-.9-2.78-2.57v0c0-1.52,1.22-2.53,2.94-2.53a4.86,4.86,0,0,1,3.12,1.07l-1,1.39a3.94,3.94,0,0,0-2.18-.83c-.71,0-1.08.32-1.08.73v0c0,.55.36.73,1.81,1.1,1.7.44,2.66,1.06,2.66,2.52v0c0,1.67-1.27,2.6-3.08,2.6A5.34,5.34,0,0,1,906.39,476.39Z"/><path d="M914.73,469.22h1.85v8.4h-1.85Z"/><path d="M921.56,469.16h1.7l3.6,8.46h-1.93l-.77-1.88h-3.55l-.77,1.88H918Zm1.94,4.94-1.12-2.72-1.12,2.72Z"/></g><g class="cls-33"><g class="cls-33"><path d="M112.48,334.77h1.7l3.6,8.58h-1.93l-.77-1.91h-3.55l-.77,1.91h-1.88Zm1.94,5L113.31,337l-1.12,2.76Z"/><path d="M118.65,339.7v-4.87h1.85v4.82c0,1.39.68,2.11,1.81,2.11s1.81-.69,1.81-2v-4.88H126v4.81c0,2.58-1.43,3.85-3.68,3.85S118.65,342.21,118.65,339.7Z"/><path d="M127.28,342.11l1.09-1.33a3.82,3.82,0,0,0,2.51,1c.76,0,1.21-.3,1.21-.8v0c0-.47-.29-.72-1.69-1.08-1.69-.44-2.78-.91-2.78-2.61v0a2.64,2.64,0,0,1,2.94-2.57,4.81,4.81,0,0,1,3.12,1.08l-1,1.41a3.9,3.9,0,0,0-2.18-.84c-.71,0-1.08.33-1.08.74v0c0,.56.36.74,1.81,1.12,1.7.45,2.66,1.07,2.66,2.56v0c0,1.69-1.27,2.64-3.08,2.64A5.3,5.3,0,0,1,127.28,342.11Z"/><path d="M137.31,336.55h-2.55v-1.73h7v1.73h-2.55v6.79h-1.85Z"/><path d="M143.13,334.83H147a3.32,3.32,0,0,1,2.45.86,2.7,2.7,0,0,1,.72,1.95v0a2.65,2.65,0,0,1-1.8,2.64l2.05,3h-2.16l-1.8-2.73H145v2.73h-1.85Zm3.72,4.14c.9,0,1.42-.49,1.42-1.21v0c0-.8-.55-1.22-1.45-1.22H145V339Z"/><path d="M154.69,334.77h1.7l3.6,8.58h-1.93l-.77-1.91h-3.55l-.77,1.91h-1.88Zm1.94,5L155.51,337l-1.12,2.76Z"/><path d="M161.29,334.83h1.85v6.82h4.19v1.71h-6Z"/><path d="M168.8,334.83h1.85v8.52H168.8Z"/><path d="M175.63,334.77h1.7l3.6,8.58H179l-.77-1.91h-3.55l-.77,1.91H172Zm1.94,5L176.45,337l-1.12,2.76Z"/></g><g class="cls-33"><path d="M109,356.71l1.09-1.33a3.82,3.82,0,0,0,2.51,1c.76,0,1.21-.3,1.21-.8v0c0-.47-.29-.72-1.69-1.08-1.69-.44-2.78-.91-2.78-2.61v0a2.64,2.64,0,0,1,2.94-2.57,4.81,4.81,0,0,1,3.12,1.08l-1,1.41a3.9,3.9,0,0,0-2.18-.84c-.71,0-1.08.33-1.08.74v0c0,.56.36.74,1.81,1.12,1.7.45,2.66,1.07,2.66,2.56v0c0,1.69-1.27,2.64-3.08,2.64A5.3,5.3,0,0,1,109,356.71Z"/><path d="M117,356H119V358H117Z"/><path d="M127.19,349.37h1.7l3.6,8.58h-1.93L129.8,356h-3.55l-.77,1.91H123.6Zm1.94,5L128,351.62l-1.12,2.76Z"/><path d="M133.8,349.43h2L138,353l2.21-3.6h2V358h-1.83v-5.56L138,356h0l-2.34-3.6V358H133.8Z"/><path d="M144.21,349.43h6.33v1.67H146v1.73h4v1.67h-4v1.79h4.56V358h-6.39Z"/><path d="M152.25,349.43h3.84a3.32,3.32,0,0,1,2.45.86,2.7,2.7,0,0,1,.72,1.95v0a2.65,2.65,0,0,1-1.8,2.64l2.05,3h-2.16l-1.8-2.73H154.1V358h-1.85Zm3.72,4.14c.9,0,1.42-.49,1.42-1.21v0c0-.8-.55-1.22-1.45-1.22H154.1v2.45Z"/><path d="M161,349.43h1.85V358H161Z"/><path d="M164.59,353.71v0a4.51,4.51,0,0,1,7.69-3.09L171.1,352a3.08,3.08,0,0,0-2.15-1,2.51,2.51,0,0,0-2.44,2.65v0a2.52,2.52,0,0,0,2.44,2.68,3,3,0,0,0,2.21-1l1.18,1.21a4.41,4.41,0,0,1-7.75-2.86Z"/><path d="M176.69,349.37h1.7L182,358h-1.93l-.77-1.91h-3.55L175,358h-1.88Zm1.94,5-1.12-2.76-1.12,2.76Z"/></g></g><path class="cls-13" d="M280.8,610.7s4.4-25.6,38.6-9.1c.3.1.5.3.8.4,35,17.4-.6-.3-.6-.3s28.1-11,29.1,13.4c0,0,1.4,6.1-13.7,3,0,0-8.9,2.5-7.8,7.4L271.3,623s-10.5-12.5,3.9-12.2c.1,0,5,1.9,5.6-.1Z"/><path class="cls-5" d="M312.1,671.1c-.4-.6.2-17.6-3.2-22.9,0,0,2.8-15.7-1.4-20.8,0,0-9.6,2.1-15.6,0l-3-4.4,4.6,3,13-.2,4.4.6,1.2,20.7.9,2.4v-7.6l5.9-8.5v-5.1l-5.5-1.1,3.7-.4,3,.6,2.7-4.4-1.8,5.5-.7,4,3.6-4,1.8-1.3,2-4.2-1.4,6.8-11.7,13.1,2.5,27.3-5,.9Z"/><path class="cls-29" d="M284.4,612.2s4.4-25.6,38.6-9.1c.3.1.5.3.8.4,35,17.4-.6-.3-.6-.3s28.1-11,29.1,13.4c0,0,1.4,6.1-13.7,3,0,0-8.9,2.5-7.8,7.4l-55.9-2.5s-10.5-12.5,3.9-12.2c.1,0,5.1,1.8,5.6-.1Z"/><path class="cls-25" d="M354.6,704.2l30.4,1-3.5-8s.7,5.7,0,5.3-2.9-6.8-2.9-6.8v6.6l-1.6-11-2.6,10.3-1.7-6.5-2,5-2.1-3.9-.5,5-.8-6.5-4.5,8.5-.5-6.1-1.9,4.7-4-6.6v7.1l-2.5-2.3Z"/><path class="cls-31" d="M380.6,703H261.1a12,12,0,0,1-12-12V661a12,12,0,0,1,12-12H380.6a12,12,0,0,1,12,12v30A12,12,0,0,1,380.6,703Z"/><path class="cls-32" d="M377.9,700.3H260.4a12,12,0,0,1-12-12V661a12,12,0,0,1,12-12H377.9a12,12,0,0,1,12,12v27.3A12,12,0,0,1,377.9,700.3Z"/><g class="cls-33"><path d="M265.48,669.16h1.7l3.6,8.46h-1.93l-.77-1.88h-3.55l-.77,1.88h-1.88Zm1.94,4.94-1.12-2.72-1.12,2.72Z"/><path d="M272.09,669.22h6.39v1.68h-4.55v1.79h4v1.68h-4v3.25h-1.85Z"/><path d="M280,669.22h3.84a3.35,3.35,0,0,1,2.45.85A2.64,2.64,0,0,1,287,672v0a2.61,2.61,0,0,1-1.8,2.6l2.05,3h-2.16l-1.8-2.69H281.8v2.69H280Zm3.72,4.08c.9,0,1.42-.48,1.42-1.19v0c0-.79-.55-1.2-1.45-1.2H281.8v2.41Z"/><path d="M288.72,669.22h1.85v8.4h-1.85Z"/><path d="M292.29,673.44v0a4.27,4.27,0,0,1,4.38-4.34,4.33,4.33,0,0,1,3.31,1.29l-1.18,1.36a3.1,3.1,0,0,0-2.15-.95,2.49,2.49,0,0,0-2.44,2.61v0a2.49,2.49,0,0,0,2.44,2.64,3,3,0,0,0,2.21-1l1.18,1.19a4.29,4.29,0,0,1-3.44,1.5A4.24,4.24,0,0,1,292.29,673.44Z"/><path d="M304.4,669.16h1.7l3.6,8.46h-1.93l-.77-1.88h-3.55l-.77,1.88H300.8Zm1.94,4.94-1.12-2.72-1.12,2.72Z"/><path d="M311,669.22h1.7l3.93,5.17v-5.17h1.82v8.4h-1.57l-4.07-5.34v5.34H311Z"/><path d="M323.5,676.39l1.09-1.31a3.86,3.86,0,0,0,2.51,1c.76,0,1.21-.3,1.21-.79v0c0-.47-.29-.71-1.69-1.07-1.69-.43-2.78-.9-2.78-2.57v0c0-1.52,1.22-2.53,2.94-2.53a4.86,4.86,0,0,1,3.12,1.07l-1,1.39a3.94,3.94,0,0,0-2.18-.83c-.71,0-1.08.32-1.08.73v0c0,.55.36.73,1.81,1.1,1.7.44,2.66,1.06,2.66,2.52v0c0,1.67-1.27,2.6-3.08,2.6A5.34,5.34,0,0,1,323.5,676.39Z"/><path d="M334.46,669.16h1.7l3.6,8.46h-1.93l-.77-1.88h-3.55l-.77,1.88h-1.88Zm1.94,4.94-1.12-2.72-1.12,2.72Z"/><path d="M339.14,669.22h2l2.19,5.91,2.19-5.91h2l-3.39,8.46h-1.63Z"/><path d="M350.54,669.16h1.7l3.6,8.46h-1.93l-.77-1.88h-3.55l-.77,1.88h-1.88Zm1.94,4.94-1.12-2.72-1.12,2.72Z"/><path d="M357.14,669.22h1.7l3.93,5.17v-5.17h1.82v8.4H363L359,672.28v5.34h-1.82Z"/><path d="M366.62,669.22h1.7l3.93,5.17v-5.17h1.82v8.4h-1.57l-4.07-5.34v5.34h-1.82Z"/><path d="M379,669.16h1.7l3.6,8.46h-1.93l-.77-1.88H378l-.77,1.88h-1.88Zm1.94,4.94-1.12-2.72-1.12,2.72Z"/></g></svg>